<?xml version="1.0" encoding="UTF-8"?>
<svg id="Layer_1" data-name="Layer 1" xmlns="http://www.w3.org/2000/svg" viewBox="0 0 500 500">
  <defs>
    <style>
      .cls-1 {
        fill: #be4479;
      }

      .cls-1, .cls-2, .cls-3, .cls-4, .cls-5 {
        stroke-width: 0px;
      }

      .cls-2 {
        fill: #e0a3ae;
      }

      .cls-3 {
        fill: #e6a778;
      }

      .cls-4 {
        fill: #a5d2d9;
      }

      .cls-5 {
        fill: #66b9c6;
      }
    </style>
  </defs>
  <path class="cls-1" d="M258.27463,382.31727c-4.36152-.04919-8.34592.04354-12.29569-.6973-3.38624-.63507-3.76567-.73708-3.73235-3.95707.07096-6.8417-.776-13.63804-.80379-20.46832-.06669-16.37039-1.04984-32.69226-2.46555-48.99565-.45513-5.2411-.70634-10.50032-1.01663-15.75326-.05845-.98949-.05532-2.00403.09568-2.97973.27561-1.78189,1.39172-2.41654,3.08331-1.82861,1.76385.61304,3.27503,1.68858,4.78396,2.77213,5.20338,3.73636,10.37756,7.5323,16.24218,10.20896,6.19122,2.82576,12.60509,4.44518,19.4795,3.31593,3.61946-.5945,6.71393-2.26963,9.48711-4.60027,1.08931-.91548,2.11267-1.91216,3.22758-2.79414,7.2491-5.73463,14.15282-5.59865,21.24747.38727,1.08764.91772,2.22159,1.78434,3.2682,2.74627,8.76768,8.05808,19.34884,10.4426,30.84752,9.7215,4.81097-.30171,9.15232-2.14924,12.8124-5.29835,6.1504-5.2917,10.93593-11.57383,13.40779-19.42298.98305-3.12163,1.90395-6.26281,2.8845-9.38525.8869-2.82412,2.48396-5.1376,5.16886-6.50834,2.33244-1.1908,3.64856-.71758,4.89194,1.57153.83158,1.53102,1.28791,3.18104,1.26012,4.9147-.12112,7.54744,1.10402,15.05562.71802,22.60325-.63898,12.49609-.87924,25.01361-2.14953,37.47677-.73528,7.21388-1.39527,14.44243-1.79154,21.68063-.16909,3.08842-1.61316,4.56784-4.29046,5.56239-7.22052,2.68238-14.60602,4.81712-22.10851,6.47635-12.36201,2.73389-24.6759,5.74488-37.21675,7.58436-7.5952,1.11408-15.21783,1.96983-22.9073,2.33137-10.50978.49416-20.99355,1.48073-31.43107,2.8231-3.69637.47541-7.38138.41073-10.69697.51275Z"/>
  <path class="cls-2" d="M218.91048,240.57464c2.77324,1.70676,7.25342,3.20025,10.98729,4.267-7.54362,9.692-14.70552,19.64305-20.78625,30.34088-5.05909,8.9148-10.14944,17.78393-16.70192,25.76917-3.38265,4.11456-5.0137,9.21969-6.41557,14.30948-.68605,2.48397-1.4175,4.93743-2.63632,7.20803-2.49941,4.66323-7.28393,5.66897-11.4449,2.40779-1.93464-1.5239-3.21523-3.59639-4.6171-5.56219-3.27624-4.61747-5.83667-4.95269-10.08842-1.03634-3.24574,2.98688-6.21765,6.26331-9.41799,9.29587-3.21523,3.06306-6.62839,5.80607-11.09369,6.949-6.82706,1.75253-13.82154-1.11242-17.5554-7.37573-2.43839-4.0993-3.84027-8.57958-4.12972-13.34932-.60941-9.96639,1.09754-19.56696,4.86116-28.80182,1.92051-4.73932,5.07472-7.98524,9.60104-10.85019,11.5967-7.37573,24.6414-10.95687,37.21361-15.77246,17.18931-6.55277,34.79084-11.9321,52.22421-17.79918Z"/>
  <path class="cls-5" d="M308.77466,215.034c-.38098,4.81559-1.32523,9.57016-2.55968,14.26381-1.11242,4.2364-3.64234,6.90324-7.81819,8.24428-7.64928,2.42305-15.54337,3.4898-23.43746,4.49553-4.93706.64001-9.88975,1.17344-14.84243,1.61533-6.67526.6096-13.19724-.48766-19.67383-1.84396-.06102-.03041-.13691-.04567-.22844-.04567-1.12805-.22862-2.25535-.48766-3.35289-.80771-.12203-.04567-.24406-.07618-.38098-.10668-4.63273-1.38671-11.77975-3.84017-12.37428-4.05354-.02976-.01525-.04539-.01525-.04539-.01525,0,0-.01563,0-.03051-.01525-.09152-.04567-.16742-.09143-.25894-.1371-4.00769-2.1335-7.61952-4.06889-11.26186-5.97377-4.52632-2.37729-4.92218-3.39828-3.93179-8.50332,1.25008-6.40041,4.58734-11.68841,8.99088-16.21436,3.16984-3.26118,5.60823-6.62894,6.52272-11.18549,1.0209-4.9831,4.87679-8.24428,8.01538-11.90168.96062-1.11242,2.19508-1.08191,3.50542-.45715,17.49438,8.57958,36.57369,10.25593,55.46994,12.7094,3.9623.50282,7.90897.8838,11.91666.9143,3.29187.03051,3.80976.57909,4.77038,3.74884,1.53879,5.01361,1.41675,10.16441,1.00527,15.26945Z"/>
  <path class="cls-2" d="M233.15912,170.50558c-.10715,1.87437-.18305,4.08405-.06102,5.72989-3.76437,2.56015-6.49222,6.01944-8.62553,10.01206-.91449,1.73718-1.46289,3.70307-3.1237,5.50127-1.85949-1.76769-3.32238-3.35261-5.28827-4.25166-3.74874-1.6916-5.22726-5.08988-6.38507-8.6406-.91449-2.80393-.44199-3.55063,2.40789-4.26691,5.80542-1.44773,11.6726-2.56015,17.58591-3.45929,1.17269-.18286,2.31562-.50282,3.4898-.62476Z"/>
  <path class="cls-3" d="M316.4098,122.89884c-.61016,15.19327-1.47851,30.38664-1.67644,45.61042-.07664,5.94326-.4725,11.91694-.62504,17.89061-.13691,5.30315-2.68171,7.29946-8.07639,6.65945-6.5071-.76195-12.99857-1.55432-19.39926-3.00205-9.9969-2.25544-20.17684-3.42878-30.29503-4.98319-6.96472-1.06675-13.56334-2.8802-18.59192-8.09192,0,0-1.09679-3.94695-1.47777-7.74146.59379-.60951,1.00527-1.40197,1.34086-2.37729,1.93539-5.68413,4.95269-10.88069,7.7103-16.1686,1.44801-2.78877,2.24047-2.86495,4.45042-.67052,4.86116,4.80033,9.66131,9.66159,14.46146,14.52285,5.80616,5.86699,12.17635,11.10922,18.42376,16.50381,1.37211,1.18869,2.8655,2.65158,4.87679,1.40206,1.27984-.79246.5789-2.25544-1.76797-4.93753-8.35022-9.57007-18.2102-17.54005-27.56718-26.04346-2.20996-2.01156-4.31277-4.14507-6.49147-6.17179-1.58492-1.47823-1.87437-3.07832-.80809-4.96794,2.66683-4.7089,5.27265-9.43297,7.9246-14.15712.5789-1.02099,1.38699-1.4934,2.42277-.59425,2.24047,1.9658,4.46531,3.94686,6.67452,5.95842,1.21957,1.09726,1.23445,2.14876-.24332,3.07832-1.06703.68578-2.13332,1.41722-3.18546,2.14866-1.06629.7467-2.17871,1.46298-1.21883,3.07832.82297,1.38671,1.87437,2.16392,3.50468,1.56957,1.47851-.54858,3.00242-1.02099,4.31277-1.82861,2.78886-1.73727,4.95269-1.50874,7.65003.65527,6.53761,5.25749,13.5931,9.8292,19.97817,15.31521,1.23445,1.0515,2.63707,2.60591,4.38941.83813,1.14293-1.12767.53352-2.89536-1.64593-4.60222-4.80015-3.77925-9.70744-7.45182-14.5381-11.20065-1.67644-1.31053-3.26136-2.75826-4.86116-4.16023-1.08191-.96007-1.0514-1.99631.0759-2.86495,3.4898-2.71259,7.01011-5.34892,10.4999-8.04626,1.14293-.8838,2.0723-.48766,3.04781.3048,1.00601.77721,2.04179,1.56967,3.15421,2.16392.91449.47241,1.9964.50291,2.68246-.48757.5484-.76195.35047-1.63059-.13766-2.39254-.22844-.36582-.51789-.68578-.77683-1.00583q-2.72785-3.38302.18305-6.8118c1.26496-1.5239,2.49867-3.09357,3.70261-4.69365.50301-.68578.89961-1.55441.06102-2.28586-.74633-.67052-1.6757-.45715-2.33125.10668-1.63031,1.37146-3.18546,2.83444-4.73913,4.29742-3.39902,3.16965-4.11484,3.21541-7.4826.3048-4.5107-3.91644-9.06752-7.78722-13.5172-11.77984-2.51429-2.24009-2.52992-2.60582-.73144-5.36408,7.31518-11.20075,14.49271-22.49283,22.63012-33.12974,1.93539-2.52964,4.1446-4.6783,7.04061-6.06511,1.69132-.82287,3.4898-1.20385,5.37905-1.14293,3.33726.10668,4.64835,1.29528,4.9073,4.58696.10641,1.41722.06102,2.84969.03051,4.26691-.07664,2.86495-.01563,5.66897,1.17344,8.36622.76195,1.72202.51789,3.64215.5789,5.48611.50301,14.24846-.50301,28.45125-1.08191,42.65405Z"/>
  <path class="cls-5" d="M394.50008,226.55026c-.15673,1.57321-.04703,3.21203-.51728,4.66285-1.25533,3.87331-2.80477,7.57059-2.39318,11.8732.22034,2.303-1.7043,4.08906-3.57442,5.53223-3.33978,2.57734-7.16797,4.09991-11.20486,5.05097-9.29518,2.18991-18.73369,3.47874-28.27539,3.81416-6.377.22418-12.74628.62443-19.15191.11763-5.70512-.45135-11.28521-1.27344-16.74642-2.99451-11.36076-3.58031-11.34648-12.29806-5.95915-20.98787.14792-.23854.33526-.4818.56264-.63765,4.90894-3.36544,6.03298-8.51348,7.12719-13.94579,2.21027-10.97293,6.87259-20.72636,15.49584-28.3042,5.57206-4.89656,12.26571-7.63964,18.95518-10.43239,1.62917-.68014,3.3488-.43726,5.04112-.02773,12.91808,3.12614,23.55681,9.6711,31.3308,20.6375,4.3354,6.11579,7.77503,12.58886,8.79364,20.12825.24688,1.82702.34793,3.67372.51619,5.51336Z"/>
  <path class="cls-2" d="M342.16702,303.66176c-9.95611-.3374-18.1418-4.5059-25.2011-11.19527-2.89112-2.73968-5.59683-5.69503-8.64296-8.24651-5.02787-4.21139-8.16937-3.75057-12.15355,1.3851-1.91662,2.47056-3.66613,5.06023-5.87588,7.31284-4.81274,4.90613-10.57996,6.37395-17.19764,5.13367-5.56268-1.04259-10.46041-3.63636-15.19734-6.56424-4.82797-2.98414-9.1263-6.83237-14.56243-8.82446-1.6263-.59599-1.94472-1.95638-1.68871-3.49899,1.65336-9.96401,3.33483-19.92332,4.9725-29.88991.38678-2.35381,1.95745-2.89211,4.00421-2.9047,5.40474-.03327,10.78826-.35145,16.18592-.72243,9.09371-.62495,18.1151-1.69823,27.11871-3.02582,3.51018-.51754,3.65158-.59776,4.99138,2.36044,2.91489,6.43613,8.20112,9.98755,14.50137,12.42885,5.09659,1.97486,10.46599,2.62739,15.82021,3.38311,10.90819,1.53965,21.87274,1.03128,32.81789.79501,3.67525-.07936,7.33116-.90437,11.00334-1.32384,2.62082-.29936,3.19176.27692,2.45512,2.80196-1.27988,4.3871-1.98127,8.88134-2.83846,13.35231-.86193,4.49644-2.33223,8.81771-4.64793,12.78296-5.7825,9.90154-14.7274,14.19461-25.86464,14.45992Z"/>
  <path class="cls-1" d="M237.26559,378.57559c0,1.23789-.02988,2.09306.00626,2.94542.07539,1.77853-.62015,2.97791-2.37363,3.57496-8.23752,2.80493-15.85962,7.05607-23.94317,10.22562-4.12272,1.61653-8.37757,2.74416-12.72897,3.5508-4.83391.89608-5.8338.24769-5.34713-4.51137.90145-8.81426.81719-17.65713.41665-26.44871-.44658-9.80149-.35398-19.62388-1.22159-29.41491-.59033-6.66226-.37687-13.37238-.16575-20.06102.09192-2.91372,1.11262-5.5468,2.70472-7.98839,5.36308-8.22482,11.09792-16.21,16.01573-24.72196,4.41434-7.64046,8.79078-15.30279,13.18489-22.95496.4252-.74039.82804-1.49574,1.29141-2.21171.88388-1.36565,1.93221-2.64387,3.78073-2.10646,1.8016.52377,2.15839,2.15594,2.23191,3.7622.26023,5.68257.5373,11.37096.75066,17.04732.46499,12.37194,1.46227,24.70692,2.12106,37.06288.96939,18.18103,1.98477,36.35701,2.54934,54.5566.08358,2.69486.50075,5.37935.72689,7.69369Z"/>
  <path class="cls-1" d="M185.11513,349.71769c-1.01527,15.62661-.754,31.27066-.78122,46.91142-.00704,4.06722-.41691,4.42469-4.54667,3.6306-16.63896-3.19937-33.00236-7.47147-49.06935-12.86005-3.77521-1.26615-7.50943-2.65602-11.29491-3.88934-2.4703-.80481-3.56847-2.28804-3.75159-4.97271-.45503-6.67063-.75369-13.3386-.81615-20.02364-.05709-6.11124-1.14098-12.18228-.79488-18.31172.10975-1.94311-.43819-4.28493,1.58016-5.45774,2.17273-1.26252,3.62249.88271,5.29144,1.79472,1.49627.81761,2.91343,1.79336,4.44938,2.52267,8.51527,4.0431,15.02356,4.04819,24.48991-3.35115,2.57254-2.01081,4.74355-4.50207,6.55605-7.26038.39037-.59408.79284-1.18267,1.22639-1.7455,4.14425-5.37961,9.62856-5.47542,13.93445-.18601,1.16361,1.42942,2.10787,3.03586,3.18196,4.54018,1.32446,1.85512,2.7031,2.99662,5.35521,2.01365,2.56821-.95179,3.59438-.1035,4.19014,2.60878,1.01762,4.6332.62469,9.34789.79967,14.03623Z"/>
  <path class="cls-4" d="M260.2815,390.77764c17.87766.40059,35.47527-1.77295,52.86859-5.77264,14.42129-3.31627,28.9175-6.14365,43.63363-7.88575,8.64275-1.02317,17.07793-3.12001,24.83967-7.31857.49862-.26969,1.02388-.50725,1.56165-.68405,1.16398-.38266,2.0161-.1334,2.01058,1.28048-.02065,5.29856-.91735,10.47571-2.42462,15.53383-.45612,1.53063-1.80462,2.54108-3.09337,3.44271-5.13502,3.59256-10.3665,6.98446-16.26173,9.29213-9.13985,3.5778-18.13163,7.54249-27.3206,10.98434-14.33322,5.36869-29.25781,8.37522-44.44525,9.92834-12.91225,1.3205-25.82856,1.43954-38.55873-1.78103-1.25366-.31722-2.50252-.53853-3.79064-.21135-2.4266.6163-3.78433-.68507-4.65283-2.70039-.79363-1.84146-1.29813-3.8048-1.34714-5.79363-.12967-5.26201-.19151-10.52884-.11627-15.7914.03822-2.67255.53788-3.09866,3.02298-2.8463,4.68902.47617,9.38496.18536,14.07408.32329Z"/>
  <path class="cls-5" d="M163.63891,214.79024c-4.4061-.03024-8.82764.22169-13.16731-.84012-.96616-.23639-1.94869-.42134-2.89487-.72086-9.05706-2.8667-11.89186-9.34327-7.913-17.95873.8697-1.88315,2.01741-3.50725,4.05906-4.12777,3.30694-1.00508,3.85675-3.41741,3.5108-6.37017-.73565-6.27905.00777-12.47776,1.14724-18.63039.7308-3.94585,2.41883-7.50911,4.49375-10.98271,5.94095-9.94585,20.28554-14.43849,32.56731-6.14229,6.77181,4.57429,10.65395,11.32908,13.87606,18.5271,2.3278,5.2003,4.16089,10.60381,5.26078,16.20589.44856,2.2847,1.41832,3.6238,3.86744,3.66373.69612.01133,1.40945.2138,2.07846.43736,4.76311,1.59171,6.40703,6.8856,2.51524,10.00642-3.75482,3.01096-6.0834,6.29118-7.19597,10.91532-.65488,2.72173-3.45439,3.63528-6.04002,4.10936-2.37326.43515-4.79611.91612-7.18851.8752-9.68112-.16564-19.30885.98284-28.97647,1.03266Z"/>
  <path class="cls-2" d="M126.96417,244.00311c.19714-7.75407,2.86593-14.75793,6.74438-21.32034,6.21912-10.52303,5.00947-8.51939,14.04827-5.32802,12.9379,4.56808,26.10469,5.28439,39.5143,3.31976,4.65434-.6819,9.13683-2.1266,13.31044-4.38811.37478-.2031.73773-.44745,1.1366-.58351,2.54548-.86833,4.00874.32426,3.16105,2.91286-1.13389,3.46247-.82387,6.71216.44147,9.98936.72626,1.88093,1.86594,3.49839,3.17095,5.02435.9807,1.14672.79842,2.07745-.7346,2.52786-1.09088.32048-2.19588.59403-3.29812.87452-12.95218,3.29591-25.96595,6.34785-38.79654,10.11998-7.79031,2.29033-15.34943,5.19475-22.90934,8.11522-1.06116.4099-2.10495.86889-3.17977,1.2383-5.76185,1.98062-8.85314.61862-11.15882-5.00496-.97737-2.38387-1.4728-4.89718-1.45028-7.49728Z"/>
  <path class="cls-4" d="M185.02696,427.67833c0,3.7739.14599,6.48835-.0377,9.18031-.22014,3.22638-1.94092,4.51294-5.14477,4.14188-.70076-.08116-1.41733-.23473-2.06944-.49708-12.29011-4.94484-25.30403-7.80525-37.49804-13.0227-5.10243-2.18319-10.1666-4.4591-15.3035-6.55743-3.88694-1.58772-5.56721-4.27307-5.79246-8.51996-.34595-6.52171-1.25877-13.01353-1.94118-19.51697-.07404-.70608-.27905-1.40226-.3107-2.10808-.05438-1.21174.47703-1.93487,1.79638-1.68986.69534.1291,1.36868.38052,2.04895.5866,10.3568,3.13803,20.56027,6.6876,30.60475,10.74131,6.19477,2.50007,12.62255,4.42294,18.94684,6.60178,2.9127,1.00346,5.85174.89097,8.85183.37752,4.23498-.72477,5.05504-.1761,4.99143,3.88752-.09161,5.84992,1.44574,11.60316.8576,16.39515Z"/>
  <path class="cls-4" d="M239.78698,413.76794c1.26711,4.7927-1.76766,7.52309-6.60167,9.83679-10.76485,5.15249-21.28861,10.80808-31.92343,16.23362-1.51655.77368-3.06287,1.52703-4.66712,2.08302-3.83486,1.32895-5.44364.28117-5.5572-3.66892-.07743-2.69554-.00918-5.40568.17842-8.0964.45388-6.51092,1.0366-13.0128,1.52583-19.52143.26169-3.48231.3836-3.80899,3.685-4.78907,12.42948-3.68985,24.43808-8.44735,36.11231-14.0695.25611-.12331.51395-.24389.776-.3539,3.86734-1.62362,4.43243-1.29404,4.69944,2.75595.41092,6.23273,1.68548,12.38524,1.7724,19.58983Z"/>
  <path class="cls-3" d="M276.05097,130.03747c-1.56144-.00847-2.45142-.73202-3.27409-1.52307-2.66478-2.5623-5.28545-5.17058-7.96055-7.72185-1.29162-1.23184-1.74988-2.4836-.71489-4.13669,1.88575-3.01189,3.69189-6.07369,5.5255-9.11811,1.0598-1.75957,2.2328-1.83067,3.79935-.50782,4.77682,4.03372,9.66814,7.93243,14.4216,11.99288,2.07685,1.77403,1.98378,2.24203-.06471,3.95227-2.96224,2.47309-6.31735,4.35356-9.65025,6.257-.72371.41331-1.56978.61229-2.08196.80538Z"/>
  <path class="cls-2" d="M313.52972,204.89983c.2679-1.64301.41639-3.31636.82428-4.92384,1.85572-7.31293,3.49975-14.66889,4.91468-22.08096.78215-4.09755,1.4045-4.4673,5.52268-3.36819,5.32893,1.42225,10.58971,3.0745,16.06511,5.40955-2.43375,2.71971-5.60616,3.47502-7.95122,5.41198-2.41065,1.99105-4.89221,3.896-7.33497,5.8484-2.34318,1.87282-4.52582,3.92343-6.27173,6.36742-1.77641,2.48659-3.41872,5.06891-5.11969,7.60932-.21638-.09122-.43276-.18245-.64914-.27368Z"/>
</svg>