<svg width="64" height="64" viewBox="0 0 64 64" fill="none" xmlns="http://www.w3.org/2000/svg">
<path d="M55.6951 34.9159C55.5873 35.8061 55.1047 36.4177 54.2377 36.667C55.0142 37.9729 55.1595 39.0785 53.4707 39.8885C53.4541 40.0621 53.5734 40.1868 53.6237 40.3336C53.9629 41.3557 53.4682 42.3392 52.4577 42.6545C52.0203 42.7915 51.9897 42.8013 52.1542 43.2438C52.4724 44.0903 51.7532 45.2423 50.9028 45.2814C50.3889 45.3056 50.3915 45.3643 50.5202 45.8708C50.7115 46.6265 50.5419 46.9986 49.8132 47.3262C49.5907 47.426 49.4428 47.5514 49.3682 47.7909C49.2178 48.2778 48.8786 48.5512 48.3915 48.6054C48.0568 48.6419 47.9638 48.8084 47.9255 49.1386C47.8445 49.8696 47.469 50.2658 46.7671 50.3245C46.3221 50.3611 46.1028 50.4962 46.0072 50.9778C45.8682 51.6749 45.3977 52.0756 44.6811 52.1102C44.4204 52.1226 44.1915 52.1715 44.0672 52.4352C43.721 53.1936 43.0969 53.3352 42.3828 53.1786C42.015 53.0983 41.8263 53.2008 41.6204 53.5167C41.0785 54.3455 40.3211 54.5387 39.3941 54.1452C38.8733 53.9226 38.8682 53.9174 38.5507 54.3605C38.2115 54.8324 37.762 55.0967 37.1959 55.1333C36.661 55.1698 36.1185 55.1992 35.6168 54.9519C35.3471 54.8226 35.1533 54.8298 35.0245 55.1379C34.6515 56.0307 33.2923 56.2069 32.5133 55.6417C32.3673 55.5366 32.2289 55.4192 32.1072 55.2873C31.9019 55.0648 31.7514 55.0426 31.5002 55.2723C30.4942 56.1899 28.968 56.0457 28.129 54.9519C27.9212 54.6784 27.7707 54.6438 27.4698 54.803C26.1603 55.4949 24.8731 55.0184 24.2879 53.6315C24.1751 53.3626 24.0871 53.2915 23.8002 53.4135C22.3785 54.0107 20.9192 53.36 20.3716 51.868C20.2211 51.4647 20.0254 51.2663 19.6002 51.2885C19.2132 51.31 18.8523 51.1808 18.5011 51.0268C17.7367 50.6939 17.1724 50.1829 17.0488 49.2946C17.0054 48.982 16.869 48.8939 16.5566 48.9108C15.1897 48.9846 14.2436 48.0572 14.1984 46.6389C14.1818 46.0666 14.1818 46.0666 13.6227 45.9321C12.4254 45.6456 11.8523 44.8487 11.9811 43.5962C12.0123 43.2928 11.9428 43.1557 11.668 43.0265C10.7532 42.5931 10.328 41.791 10.4924 40.7343C10.5594 40.2944 10.4542 40.0471 10.1463 39.7364C9.53678 39.1301 9.28368 38.3404 9.52977 37.4789C9.65663 37.0364 9.64006 36.7603 9.26455 36.4222C8.45744 35.6984 8.35225 34.446 8.96874 33.4853C9.1498 33.2014 9.21419 33.0154 8.97831 32.7145C8.41409 31.9933 8.40708 31.0417 8.95918 30.3153C9.17148 30.0366 9.20718 29.8258 9.02803 29.5275C8.91328 29.337 8.85845 29.1046 8.81064 28.8847C8.61236 27.9572 8.93049 27.2824 9.77139 26.8862C10.0315 26.7616 10.0914 26.6591 9.95755 26.3752C9.38633 25.1619 9.56802 24.4283 10.6429 23.604C10.875 23.4252 10.8941 23.2666 10.7863 23.0264C10.5785 22.5695 10.6072 22.1049 10.7366 21.6225C10.8966 21.0136 11.2071 20.5391 11.7924 20.2996C12.0576 20.1919 12.1506 20.0379 12.1385 19.7298C12.1028 18.715 12.4688 18.123 13.367 17.7679C13.6941 17.6387 13.8254 17.4599 13.828 17.1199C13.8305 16.819 13.9236 16.5305 14.0575 16.2662C14.2864 15.8139 14.6185 15.5032 15.1566 15.5084C15.2898 15.5104 15.4237 15.4889 15.5576 15.481C16.0402 15.4497 16.3296 15.2513 16.5254 14.7331C16.8218 13.9525 17.4593 13.4806 18.3002 13.4245C18.5846 13.4049 18.6968 13.2803 18.7803 13.0499C18.9454 12.5852 19.2081 12.2066 19.6167 11.9253C20.0681 11.6147 20.5533 11.4724 21.0767 11.6414C21.4515 11.7615 21.7002 11.7269 21.8984 11.338C22.0655 11.0103 22.3575 10.7825 22.6966 10.6337C22.8184 10.5822 22.9759 10.5358 23.0377 10.4379C23.229 10.1371 23.4827 10.1371 23.7377 10.2643C24.082 10.4379 24.321 10.34 24.5576 10.064C24.7316 9.85838 24.9394 9.67759 25.1568 9.52357C25.8766 9.01449 26.6238 9.06605 27.3576 9.48179C27.5724 9.60384 27.742 9.72393 27.9384 9.49419C28.442 8.89701 29.1994 8.98251 29.8401 8.75995C30.069 8.67968 30.2673 8.87286 30.4082 9.05365C30.6071 9.30297 30.7932 9.27621 31.0438 9.12479C31.6437 8.76517 32.2672 8.5622 32.9289 8.99034C33.0724 9.08302 33.235 9.05887 33.3829 8.9923C33.8177 8.80433 34.2499 8.83109 34.6872 8.99491C34.788 9.03146 34.9097 9.05365 35.0149 9.03407C35.3375 8.97272 35.5855 9.09999 35.7863 9.33755C35.9655 9.5451 36.1402 9.57447 36.3697 9.41783C36.6846 9.20311 37.0525 9.16591 37.4012 9.27164C37.9297 9.43023 38.515 9.40609 38.9784 9.78267C39.1123 9.89231 39.2698 9.85316 39.4273 9.82444C40.7438 9.57969 41.9429 10.0052 43.1236 10.5136C43.5081 10.6801 43.7612 11.0103 43.9524 11.3797C44.0984 11.6656 44.2941 11.8079 44.6187 11.8588C45.4768 11.9984 45.9524 12.5095 46.1194 13.3782C46.2271 13.9408 46.2271 13.9408 46.7359 14.0334C47.6195 14.192 48.2073 14.9772 48.1837 15.9731C48.1716 16.5305 48.1716 16.5305 48.7116 16.4789C49.8056 16.3791 50.2193 16.7681 50.1715 17.9174C50.1594 18.245 50.2691 18.3429 50.5585 18.416C51.4638 18.6438 51.9056 19.3115 51.7411 20.2383C51.6786 20.5953 51.7456 20.7225 52.0969 20.7937C52.6037 20.8942 52.9473 21.2557 53.0002 21.7746C53.0551 22.3516 53.2871 22.9363 53.0404 23.5303C52.9473 23.7528 53.0882 23.839 53.2795 23.9219C54.3665 24.3963 54.6482 24.9054 54.4646 26.1181C54.4194 26.4215 54.4767 26.6245 54.675 26.8543C55.3604 27.6394 55.4298 28.4246 54.916 29.3611C54.7942 29.5817 54.7585 29.7384 54.9115 29.9753C55.5108 30.9073 55.4369 31.8099 54.7247 32.6636C54.6533 32.7491 54.5628 32.8196 54.5411 33.0127C55.4611 33.2771 55.8098 33.9695 55.6951 34.9159ZM56.775 28.9088C55.9819 23.5185 53.669 18.8905 50.0089 14.9628C48.5586 13.4023 46.915 12.0742 45.1306 10.9222C40.5646 7.97481 35.5664 6.75433 30.2029 7.02845C29.2925 7.0774 28.3776 7.18966 27.508 7.5199C27.0038 7.71113 26.4829 7.83057 25.9576 7.93826C23.389 8.46169 21.0002 9.50398 18.7663 10.8413C15.1968 12.9742 12.3967 15.9653 10.2298 19.566C8.20626 22.9266 7.21936 26.6219 6.99049 30.5352C6.86107 32.7073 7.07656 34.8669 7.50179 37.0044C8.49315 41.9744 10.6958 46.2891 14.2201 49.8598C17.0628 52.7433 20.3716 54.9127 24.1228 56.3511C27.6037 57.6819 31.1968 58.0239 34.8543 57.4176C38.441 56.8256 41.788 55.5171 44.9036 53.6146C47.5914 51.9757 49.9681 49.9434 51.8846 47.4019C55.2768 42.909 56.9089 37.7876 56.9586 32.1251C56.9854 31.0443 56.9299 29.9727 56.775 28.9088Z" fill="#C67D45"/>
<path d="M53.4127 33.5904C53.3005 33.7346 53.1711 33.8619 53.0735 34.0133C52.6528 34.6614 52.6649 35.4368 53.0971 36.0633C53.3796 36.4719 53.3815 36.4791 52.9728 36.6847C52.7509 36.7969 52.5457 36.9314 52.3754 37.1148C51.8692 37.6578 51.7736 38.3424 52.1032 39.0081C52.1823 39.1693 52.3257 39.2966 52.3614 39.5609C52.1128 39.6536 51.8667 39.7071 51.6614 39.8324C50.9327 40.2821 50.6152 41.0725 50.8753 41.8204C50.9831 42.1337 50.9614 42.3145 50.5814 42.4078C49.7692 42.6056 49.4014 43.1486 49.4326 43.9997C49.4371 44.1367 49.4537 44.2738 49.4804 44.4056C49.5327 44.6601 49.4422 44.8142 49.191 44.8409C48.5892 44.8997 48.264 45.2351 48.2092 45.8486C48.1875 46.1058 48.0492 46.2598 47.8127 46.3453C47.3109 46.5313 47.0674 46.9249 47.0744 47.4509C47.0789 47.8471 46.8831 47.9913 46.5561 48.0181C45.858 48.0768 45.3614 48.3607 45.2466 49.1335C45.2135 49.371 45.0432 49.4689 44.8284 49.5153C44.6543 49.5518 44.4822 49.6034 44.3101 49.6523C43.897 49.7672 43.5788 50.0093 43.4571 50.442C43.371 50.7527 43.1797 50.8702 42.8839 50.9165C42.4466 50.9824 41.9901 51.0144 41.651 51.374C41.5171 51.5157 41.3641 51.4524 41.2257 51.3545C41.0224 51.2076 40.7979 51.1123 40.5519 51.0634C39.7396 50.9048 39.171 51.3616 38.71 51.9268C38.4544 52.2401 38.3039 52.3106 37.9571 52.105C37.4656 51.8146 36.9179 51.7239 36.3423 51.8342C35.8501 51.9268 35.4867 52.1148 35.3076 52.6578C35.1284 53.1989 34.9327 53.223 34.5004 52.8216C34.0752 52.4307 33.6238 52.3204 33.0839 52.5429C32.651 52.7192 32.176 52.7877 31.8413 53.1715C31.7125 53.3164 31.5519 53.2915 31.4352 53.1421C30.9239 52.4744 30.2265 52.3524 29.4544 52.3961C29.0866 52.4183 28.7404 52.4627 28.456 52.7166C28.2074 52.9391 28.0213 52.8804 27.8536 52.6167C27.8179 52.5599 27.7701 52.5116 27.7248 52.4601C27.0152 51.6677 25.9805 51.3936 24.9917 51.7924C24.664 51.9242 24.5136 51.8655 24.3657 51.5548C24.0004 50.7873 23.3979 50.32 22.564 50.1829C22.476 50.1679 22.3919 50.1268 22.3065 50.1144C21.7518 50.0387 21.384 49.7966 21.2309 49.1824C21.1162 48.7203 20.784 48.3509 20.4047 48.0455C19.8188 47.571 19.1883 47.3948 18.4692 47.6833C18.3857 47.7178 18.2996 47.7466 18.2161 47.774C17.7405 47.928 17.7188 47.928 17.6882 47.4366C17.6595 46.9621 17.4874 46.5555 17.2438 46.1619C16.8805 45.5752 16.4074 45.1496 15.7291 45.0198C15.4613 44.9682 15.3612 44.8488 15.3351 44.572C15.2465 43.5911 14.797 42.8431 13.9058 42.4124C13.6718 42.3001 13.5717 42.1435 13.6195 41.872C13.7744 40.9746 13.6074 40.1894 12.836 39.6242C12.6683 39.5022 12.6683 39.3234 12.69 39.1302C12.8213 38.0611 12.5465 37.1415 11.7178 36.4327C11.529 36.2709 11.5361 36.0947 11.6483 35.8845C11.763 35.6672 11.8803 35.4394 11.9543 35.2025C12.2335 34.2901 11.9753 33.6615 11.1535 33.2014C10.7978 33.0037 10.7978 33.0037 11.0273 32.6656C11.6126 31.8126 11.6196 31.0959 11.0126 30.286C10.8405 30.0563 10.7525 29.897 10.9961 29.6529C11.6126 29.0362 11.6457 28.2706 11.4117 27.4907C11.297 27.116 11.3423 26.9111 11.684 26.7101C12.1596 26.4314 12.4796 25.9863 12.683 25.4602C12.8455 25.0425 12.9169 24.6216 12.6849 24.2058C12.5249 23.9219 12.5344 23.7144 12.8404 23.5258C13.696 22.9997 14.0683 22.2296 13.8796 21.2095C13.8344 20.9602 13.93 20.8231 14.1353 20.7206C14.7377 20.4198 15.0457 19.9303 15.017 19.2384C15.0004 18.8442 15.184 18.683 15.5569 18.6099C16.3379 18.4533 16.8996 18.003 17.103 17.1813C17.1718 16.9026 17.3223 16.8412 17.583 16.8367C18.4092 16.8243 18.976 16.3961 19.2699 15.6162C19.3936 15.2833 19.5447 15.1319 19.9145 15.2494C20.8127 15.5281 21.4987 15.1489 21.9909 14.4127C22.2344 14.0433 22.4403 13.884 22.9013 13.9748C23.6893 14.1262 24.3606 13.884 24.7648 13.1067C24.8935 12.8594 25.0631 12.7908 25.3118 12.9403C25.4648 13.033 25.6292 13.1113 25.7969 13.1726C26.7048 13.5029 27.4832 13.187 27.9326 12.3144C28.1545 11.8862 28.1621 11.8693 28.5753 12.0448C29.3301 12.3653 29.9778 12.2211 30.4987 11.5854C30.697 11.3406 30.864 11.338 31.1292 11.4705C31.7718 11.7857 32.424 11.8079 33.0309 11.3726C33.2675 11.2036 33.423 11.2675 33.6187 11.434C34.3258 12.0403 35.0787 12.1891 35.8788 11.6121C36.0745 11.4705 36.2014 11.556 36.3301 11.7172C36.9396 12.4854 37.7015 12.691 38.6004 12.3385C38.8197 12.2557 38.9823 12.3144 39.1544 12.4508C39.7039 12.8913 40.3249 13.1041 41.03 13.0036C41.2735 12.967 41.4622 13.0428 41.6274 13.2242C41.9423 13.5688 42.3248 13.7914 42.7858 13.8573C42.9987 13.8866 43.1587 13.9917 43.2805 14.1706C43.6432 14.7012 44.1717 14.9263 44.7736 14.9583C45.1656 14.9779 45.3397 15.1169 45.4666 15.5209C45.7388 16.3837 46.3004 16.9835 47.2561 16.9979C47.5857 17.005 47.6883 17.1277 47.6883 17.4404C47.6909 18.2085 48.111 18.6687 48.7849 18.9056C49.0405 18.9963 49.117 19.1255 49.0954 19.4094C49.0189 20.4707 49.337 20.9138 50.3283 21.1951C50.7848 21.3224 50.7848 21.3224 50.7676 21.8406C50.7606 22.0462 50.7631 22.2518 50.7561 22.4567C50.7319 23.2614 51.0736 23.8292 51.8144 24.0981C52.1345 24.213 52.0917 24.3448 51.9815 24.5994C51.5613 25.5777 51.6946 26.1403 52.538 26.8008C52.8223 27.026 52.8893 27.2068 52.7439 27.5416C52.3665 28.4031 52.4258 29.1856 53.2144 29.8043C53.4388 29.9825 53.4459 30.1835 53.2336 30.3793C53.0519 30.5477 52.8753 30.7213 52.7509 30.9439C52.297 31.7512 52.5093 32.5781 53.3005 33.0402C53.6518 33.2478 53.6562 33.2699 53.4127 33.5904ZM54.5379 33.0135C54.5596 32.8203 54.6501 32.7491 54.7222 32.6636C55.4337 31.8099 55.5083 30.9073 54.9083 29.9753C54.7553 29.7384 54.791 29.5818 54.9128 29.3618C55.4267 28.4246 55.3572 27.6395 54.6718 26.8543C54.4735 26.6246 54.4162 26.4216 54.4614 26.1181C54.6457 24.9055 54.3639 24.3964 53.2763 23.9219C53.0857 23.839 52.9448 23.7535 53.0378 23.531C53.2839 22.9364 53.0519 22.3516 52.997 21.7747C52.9448 21.2558 52.6005 20.8942 52.0937 20.7937C51.7424 20.7226 51.6761 20.596 51.7379 20.2383C51.9024 19.3115 51.4606 18.6439 50.5553 18.4167C50.2665 18.343 50.1562 18.2451 50.1683 17.9175C50.2161 16.7681 49.8024 16.3792 48.7084 16.4797C48.1684 16.5306 48.1684 16.5306 48.1805 15.9732C48.2041 14.9779 47.6169 14.1927 46.7327 14.0335C46.2239 13.9408 46.2239 13.9408 46.1162 13.3782C45.9492 12.5095 45.4736 11.9985 44.6161 11.8595C44.291 11.8079 44.0952 11.6663 43.9492 11.3798C43.758 11.0104 43.5049 10.6801 43.1205 10.5137C41.9404 10.0053 40.7406 9.57975 39.4241 9.8245C39.2666 9.85387 39.1091 9.89303 38.9753 9.78273C38.5118 9.40615 37.9265 9.43029 37.398 9.27169C37.0493 9.16662 36.6814 9.20317 36.3665 9.41855C36.137 9.57453 35.9623 9.54516 35.7832 9.33762C35.583 9.10005 35.3343 8.97278 35.0117 9.03413C34.9065 9.05371 34.7848 9.03152 34.6841 8.99497C34.2473 8.83115 33.8145 8.80439 33.3797 8.99302C33.2318 9.05893 33.0692 9.08308 32.9258 8.9904C32.264 8.56226 31.6405 8.76523 31.0406 9.12485C30.79 9.27626 30.6039 9.30302 30.4056 9.05371C30.2647 8.87292 30.0658 8.67974 29.8369 8.76067C29.1962 8.98322 28.4388 8.89707 27.9352 9.49426C27.7395 9.72399 27.5692 9.6039 27.3544 9.48185C26.6212 9.06611 25.8734 9.01455 25.1543 9.52362C24.9369 9.67765 24.7291 9.85844 24.5544 10.064C24.3179 10.3401 24.0788 10.438 23.7352 10.2644C23.4795 10.1371 23.2258 10.1371 23.0351 10.438C22.9727 10.5359 22.8152 10.5822 22.6934 10.6338C22.3543 10.7833 22.0623 11.0104 21.8952 11.338C21.697 11.727 21.4483 11.7616 21.0735 11.6415C20.5501 11.4725 20.0655 11.6147 19.6135 11.9254C19.2049 12.2067 18.9422 12.5859 18.7777 13.0506C18.6936 13.2803 18.5814 13.405 18.297 13.4246C17.4561 13.4807 16.8186 13.9526 16.5222 14.7331C16.3264 15.2514 16.037 15.4498 15.5544 15.4817C15.4205 15.4889 15.2873 15.5111 15.1534 15.5085C14.6153 15.5033 14.2838 15.8139 14.0543 16.2669C13.9204 16.5306 13.8273 16.819 13.8248 17.1199C13.8222 17.4599 13.6909 17.6388 13.3639 17.768C12.4656 18.1231 12.0996 18.715 12.136 19.7299C12.1474 20.038 12.0544 20.192 11.7892 20.2997C11.2039 20.5392 10.8934 21.0137 10.7334 21.6233C10.604 22.1049 10.5753 22.5696 10.7831 23.0271C10.8909 23.2667 10.8718 23.4253 10.6403 23.6041C9.56482 24.4284 9.38377 25.162 9.95436 26.3753C10.0882 26.6592 10.0283 26.7616 9.7682 26.8863C8.9273 27.2825 8.60917 27.958 8.80744 28.8847C8.85526 29.1047 8.91072 29.337 9.02484 29.5276C9.20399 29.8265 9.16828 30.0367 8.95599 30.3154C8.40389 31.0418 8.4109 31.9933 8.97511 32.7145C9.21163 33.0154 9.14661 33.2014 8.96555 33.4853C8.34906 34.4467 8.45425 35.6985 9.26136 36.4229C9.63687 36.7604 9.65344 37.0364 9.52658 37.4789C9.28049 38.3405 9.53422 39.1302 10.1431 39.7365C10.4516 40.0472 10.5568 40.2945 10.4899 40.7344C10.3248 41.7911 10.75 42.5932 11.6648 43.0265C11.9396 43.1558 12.0091 43.2928 11.9779 43.5963C11.8491 44.8488 12.4222 45.6457 13.6195 45.9322C14.1786 46.0666 14.1786 46.0666 14.1952 46.639C14.2405 48.0572 15.1865 48.9847 16.5534 48.9109C16.8664 48.8939 17.0022 48.982 17.0456 49.2953C17.1699 50.1829 17.7335 50.694 18.4979 51.0268C18.8491 51.1809 19.21 51.3107 19.597 51.2885C20.0222 51.2664 20.2179 51.4648 20.3684 51.8681C20.916 53.3601 22.3753 54.0108 23.797 53.4136C24.0839 53.2915 24.1719 53.3627 24.2847 53.6316C24.87 55.0185 26.1578 55.4956 27.4666 54.8031C27.7675 54.6439 27.9186 54.6784 28.1258 54.9526C28.9648 56.0458 30.491 56.19 31.4971 55.2724C31.7482 55.0426 31.8987 55.0648 32.104 55.2874C32.2257 55.4192 32.3647 55.5367 32.5101 55.6418C33.2891 56.207 34.6484 56.0308 35.0213 55.1379C35.1501 54.8299 35.3439 54.8227 35.6136 54.9526C36.1153 55.1993 36.6578 55.1699 37.1927 55.1334C37.7588 55.0968 38.2083 54.8325 38.5475 54.3606C38.865 53.9174 38.8701 53.9227 39.3909 54.1452C40.3179 54.5388 41.0753 54.3456 41.6178 53.5167C41.8231 53.2008 42.0118 53.0984 42.3797 53.1793C43.0937 53.3353 43.7178 53.1937 44.064 52.4353C44.1883 52.1716 44.4178 52.1226 44.6779 52.1102C45.3945 52.0763 45.8657 51.6749 46.004 50.9779C46.0996 50.4962 46.3196 50.3618 46.7639 50.3246C47.4658 50.2658 47.8414 49.8697 47.9223 49.1387C47.9606 48.8084 48.0536 48.642 48.3883 48.6055C48.8754 48.5513 49.2152 48.2778 49.3657 47.7909C49.4396 47.5514 49.5875 47.4268 49.81 47.3263C50.5387 46.9986 50.7083 46.6266 50.5171 45.8708C50.3883 45.3644 50.3857 45.3056 50.8996 45.2815C51.75 45.2423 52.4692 44.0904 52.151 43.2439C51.9865 42.8014 52.0172 42.7916 52.4545 42.6545C53.465 42.3393 53.9597 41.3557 53.6205 40.3337C53.5702 40.1868 53.451 40.0622 53.4675 39.8886C55.157 39.0786 55.011 37.9737 54.2345 36.667C55.1015 36.4177 55.5841 35.8062 55.6919 34.916C55.8066 33.9696 55.4579 33.2771 54.5379 33.0135Z" fill="white"/>
<path d="M47.5623 25.8855C47.0293 25.9762 46.437 25.6826 46.3248 25.0834C46.1769 24.2859 45.7823 23.953 45.03 23.8336C44.4301 23.7357 43.9736 23.2834 43.7448 22.7234C43.4623 22.0381 43.0562 21.747 42.5143 21.9383C41.3987 22.0283 40.538 21.7033 39.7118 21.2947C39.2075 21.0454 38.7772 20.9965 38.2831 21.3385C37.7979 21.6713 37.2222 21.811 36.6274 21.8032C36.4266 21.8012 36.1875 21.8012 36.1378 21.5493C36.0874 21.2823 36.3169 21.2092 36.5127 21.1675C37.1865 21.0258 37.7622 20.6734 38.3092 20.2798C38.6484 20.0325 38.9327 20.0351 39.2865 20.2185C39.824 20.4952 40.3761 20.7419 40.9492 20.9423C41.6441 21.1844 42.3422 21.2288 43.0588 21.1042C43.6989 20.9893 43.8232 21.0598 44.0814 21.6713C44.1987 21.9454 44.3083 22.2169 44.4875 22.4565C44.8432 22.9381 45.2971 23.2318 45.9092 23.2246C46.3102 23.2194 46.7118 23.2168 47.1135 23.2273C47.357 23.2344 47.6056 23.237 47.8441 23.2906C48.4988 23.4348 48.8475 23.8381 48.8335 24.3962C48.8189 25.0782 48.2215 25.7778 47.5623 25.8855ZM36.5031 26.514C36.5076 26.0911 36.8187 25.7289 37.1789 25.7243C37.5735 25.7165 37.8986 26.0813 37.9057 26.5362C37.9127 27.0055 37.664 27.2946 37.2458 27.2992C36.8301 27.3044 36.4961 26.952 36.5031 26.514ZM28.8362 26.9859C28.8241 26.531 29.0944 26.2184 29.4979 26.223C29.9404 26.2282 30.2579 26.5754 30.277 27.0695C30.2961 27.5368 30.043 27.8742 29.6631 27.8885C29.2423 27.9035 28.8508 27.478 28.8362 26.9859ZM48.1475 33.0471C48.0691 33.2619 48.0978 33.4335 48.1501 33.6365C48.3318 34.3577 48.0162 34.8517 47.2971 34.9549C46.9031 35.0136 46.504 35.0332 46.124 34.8178C45.7562 34.6096 45.7154 34.6292 45.5362 35.0332C45.0893 36.0285 44.6596 37.0336 44.2153 38.0315C43.945 38.6333 43.6683 39.2324 43.3814 39.8244C43.2928 40.0078 43.1857 40.1885 43.0492 40.3354C42.7674 40.6434 42.4735 40.6461 42.1745 40.355C41.9457 40.135 41.7997 39.8465 41.6371 39.575C41.0493 38.6013 40.4641 37.6301 39.8763 36.6596C39.8195 36.5643 39.7762 36.454 39.5537 36.3953C39.5231 36.8476 39.6378 37.2437 39.6997 37.6425C40.0171 39.6259 40.5119 41.5728 40.8988 43.5445C40.9779 43.9478 41.0448 44.3518 41.0927 44.7598C41.1239 45.0169 41.0997 45.2982 40.7841 45.3543C40.4832 45.4078 40.3493 45.1735 40.2613 44.9262C40.2059 44.7774 40.1657 44.6207 40.137 44.4641C39.7188 42.1746 39.124 39.9196 38.7944 37.6131C38.5674 36.0311 38.3691 34.4484 38.3137 32.8461C38.285 32.027 38.2282 31.2053 38.1613 30.3882C38.1039 29.6716 37.963 29.5809 37.263 29.667C35.2032 29.9209 33.1344 30.0632 31.058 30.0312C30.4536 30.024 29.8562 29.9235 29.2856 29.716C29.0778 29.6422 28.884 29.5228 28.6927 29.4073C28.5952 29.3485 28.5257 29.2487 28.5761 29.1188C28.6143 29.0235 28.7074 28.9915 28.796 28.987C29.0396 28.9746 29.2882 28.9452 29.5292 28.9746C31.1326 29.1651 32.7308 29.0992 34.3387 28.9994C35.4518 28.9282 36.5649 28.8741 37.664 28.6835C38.6796 28.5073 39.6735 28.2482 40.5884 27.7417C40.8274 27.6099 41.0519 27.4656 41.2457 27.2724C41.7997 26.7268 41.7761 26.2941 41.1475 25.8098C40.7892 25.5331 40.3901 25.3255 39.9719 25.1617C38.8849 24.7362 37.7622 24.4327 36.6083 24.2787C32.6397 23.7429 28.8866 24.4986 25.2934 26.2497C23.743 27.0055 22.7797 28.2508 22.2805 29.9039C21.8839 31.2151 21.5926 32.5531 21.3395 33.9008C21.277 34.2356 21.3344 34.5195 21.5282 34.8028C22.6101 36.3757 23.4969 38.0661 24.3231 39.7904C24.3639 39.8733 24.3996 39.9562 24.443 40.0345C24.6719 40.4483 24.7649 40.4483 25.0206 40.0299C25.4866 39.2716 25.7996 38.4375 26.1484 37.6229C26.7457 36.2217 27.2475 34.7787 27.8499 33.3774C28.1508 32.6725 28.2987 31.8188 27.5273 31.1884C27.3291 31.0265 27.3023 30.7772 27.5127 30.5912C27.718 30.413 27.9334 30.4933 28.11 30.6721C28.2752 30.8386 28.3561 31.0513 28.3823 31.2837C28.4039 31.4866 28.3969 31.6942 28.4205 31.8972C28.4658 32.3207 28.5232 32.3599 28.9318 32.2737C29.0848 32.2398 29.2353 32.1863 29.3883 32.1687C29.9021 32.1099 30.4823 32.5772 30.1909 33.1522C30.0813 33.3722 30.1648 33.5236 30.2649 33.7174C30.5448 34.2624 30.3962 34.7421 29.8734 35.0502C29.5196 35.2557 29.1422 35.383 28.7265 35.3778C28.01 35.368 27.6848 35.5977 27.4221 36.285C27.0753 37.2026 26.7483 38.1242 26.3804 39.032C26.1318 39.6436 25.8258 40.2277 25.5465 40.8249C25.5179 40.8856 25.4847 40.9469 25.4465 41.0031C25.2284 41.3209 25.0352 41.6929 24.5839 41.659C24.1535 41.6296 24.0292 41.2452 23.8718 40.9202C23.2126 39.5724 22.5553 38.2221 21.8935 36.8769C21.7622 36.6133 21.6187 36.3535 21.4657 36.1016C21.3918 35.9743 21.3491 35.757 21.1457 35.8157C20.9736 35.8673 20.9691 36.0703 20.9474 36.2191C20.7013 37.8213 20.4597 39.423 20.2213 41.0252C20.0683 42.0649 19.9274 43.104 19.7623 44.141C19.7291 44.3492 19.7431 44.7088 19.483 44.6912C19.1961 44.6716 19.3109 44.3244 19.3058 44.1169C19.2796 43.038 19.4588 41.9794 19.5857 40.9149C19.9656 37.6941 20.3934 34.4823 21.0571 31.3078C21.2343 30.4594 21.4562 29.6253 21.7647 28.8107C22.3423 27.2966 23.3248 26.1642 24.7388 25.428C27.257 24.1194 29.9232 23.3715 32.75 23.1855C35.4206 23.0119 37.9936 23.3813 40.4762 24.4184C40.9135 24.5991 41.3241 24.8341 41.6945 25.1252C42.6865 25.9077 42.7413 26.9859 41.8475 27.8761C41.224 28.5001 40.4526 28.8473 39.6378 29.1188C38.7013 29.4321 38.7223 29.4347 38.8543 30.4443C39.0048 31.6211 39.1214 32.8024 39.2362 33.9811C39.2674 34.2846 39.3152 34.5685 39.4969 34.8178C40.4405 36.1212 41.2189 37.5374 42.0961 38.8878C42.5711 39.6188 42.6406 39.624 43.011 38.8291C43.8806 36.9775 44.7406 35.1187 45.5866 33.2547C45.8544 32.6608 45.9589 32.0394 45.6676 31.4031C45.5432 31.1368 45.4502 30.8529 45.3641 30.569C45.2952 30.3321 45.3335 30.1024 45.584 29.9921C45.804 29.8968 45.9736 30.0312 46.1074 30.195C46.3102 30.447 46.4224 30.7407 46.4728 31.0657C46.5709 31.7386 46.5754 31.7314 47.1893 31.8704C47.3831 31.9148 47.5744 31.9879 47.7535 32.076C48.2597 32.3279 48.3433 32.5087 48.1475 33.0471ZM19.1171 28.4368C18.9692 28.6443 18.7734 28.8349 18.4987 28.6861C18.2379 28.5464 18.2188 28.2873 18.3074 28.0308C18.3839 27.8181 18.4891 27.6144 18.5796 27.4069C18.7951 26.9004 18.79 26.8593 18.3214 26.6074C17.9995 26.4331 17.7152 26.2203 17.4978 25.9247C17.1866 25.4992 17.0891 25.0175 17.2204 24.5012C17.2657 24.3205 17.3734 24.1586 17.5838 24.1514C17.77 24.1442 17.8535 24.2911 17.9153 24.4399C18.0231 24.6918 18.1257 24.9437 18.2284 25.1957C18.4056 25.6264 18.6778 25.9005 19.1674 25.9567C19.6265 26.0076 19.7839 26.191 19.7909 26.595C19.5544 27.1523 19.5187 27.8644 19.1171 28.4368ZM17.4614 21.0278C17.5813 20.8888 17.7387 20.8718 17.8866 20.9521C18.0422 21.0382 18.1882 21.1479 18.324 21.2628C18.8423 21.6961 19.3848 22.0923 19.9465 22.4636C20.7134 22.9753 21.5614 23.222 22.4571 23.3271C22.6101 23.3441 22.7701 23.3441 22.9231 23.3271C23.3388 23.2853 23.3917 23.1757 23.1762 22.8259C23.1169 22.728 23.0449 22.6399 22.9875 22.542C22.7013 22.0407 22.7414 21.6295 23.1788 21.268C23.5517 20.9619 23.8692 20.6369 24.07 20.1846C24.2065 19.8785 24.4666 19.776 24.7962 19.8445C24.99 19.8837 25.1902 19.9104 25.3891 19.9131C25.6275 19.9131 25.8213 19.8028 25.9265 19.5704C26.0336 19.3335 25.9648 19.1279 25.7971 18.9465C25.7518 18.8975 25.69 18.861 25.6492 18.8101C25.4771 18.5823 25.5561 18.3747 25.8283 18.3258C26.1509 18.267 26.5404 18.5457 26.6954 18.9465C26.951 19.5972 26.5832 20.4411 25.9265 20.6904C25.6734 20.7863 25.4127 20.8444 25.1404 20.8078C24.983 20.7883 24.8108 20.7713 24.7031 20.911C24.4404 21.251 24.1657 21.576 23.8456 21.8619C23.7022 21.9918 23.7449 22.153 23.8482 22.2953C23.9795 22.476 24.1414 22.6425 24.2492 22.8383C24.5335 23.3519 24.3805 23.7677 23.8456 23.985C23.4414 24.1514 23.0187 24.1468 22.7701 24.1442C21.7074 24.154 20.8684 23.9556 20.0874 23.5255C19.2414 23.0608 18.4387 22.5276 17.7553 21.828C17.6457 21.7177 17.5379 21.5982 17.4474 21.4683C17.3492 21.3267 17.3396 21.1701 17.4614 21.0278ZM22.3309 18.6508C22.5508 18.6456 22.83 18.8929 22.8492 19.1129C22.8657 19.3061 22.7656 19.419 22.5814 19.4307C22.4074 19.4431 22.1256 19.1377 22.1084 18.9249C22.0969 18.7611 22.1849 18.673 22.3309 18.6508ZM23.9891 17.5504C24.2345 17.5844 24.2919 17.7847 24.3308 17.9975C24.3136 18.2546 24.2014 18.4354 23.9387 18.47C23.7239 18.4994 23.5039 18.269 23.5135 18.0419C23.5205 17.8193 23.7978 17.523 23.9891 17.5504ZM26.1222 15.689C26.2153 15.5957 26.3301 15.5983 26.4282 15.6623C26.5978 15.7693 26.7744 15.877 26.9128 16.0193C27.7371 16.8508 28.49 17.7482 29.204 18.6802C29.3692 18.8956 29.4979 19.1377 29.5266 19.419C29.5196 19.622 29.4361 19.7734 29.2448 19.8367C29.0657 19.8935 28.9509 19.7956 28.8623 19.6461C28.2197 18.5431 27.324 17.6477 26.5353 16.6648C26.3658 16.4546 26.1771 16.2562 26.07 16.0017C26.0241 15.892 26.0317 15.7791 26.1222 15.689ZM32.2935 20.101C32.5995 20.0325 32.9023 19.962 33.1822 19.8073C33.3186 19.7342 33.471 19.6853 33.631 19.4529C33.3014 19.3087 33.1918 19.0718 33.2632 18.7363C33.3206 18.4746 33.1535 18.2547 33.0891 18.0171C32.9266 17.4108 33.2275 16.7281 33.7796 16.4644C33.8605 16.4252 33.9536 16.3959 34.0327 16.452C34.1328 16.5277 34.1761 16.6674 34.1117 16.7555C33.7101 17.3129 33.844 17.8533 34.1066 18.4132C34.2214 18.6534 34.0614 18.8975 33.9606 19.2891C34.4222 18.9713 34.704 18.6554 34.9093 18.2644C35.3517 17.4179 35.4901 16.4983 35.5162 15.5546C35.5232 15.2805 35.4805 15.0038 35.5806 14.7401C35.6144 14.6546 35.6647 14.5763 35.7623 14.5586C35.9032 14.5371 35.9701 14.6422 35.9943 14.7518C36.2474 15.941 36.4604 17.134 36.1996 18.3473C36.0345 19.1181 35.5997 19.7075 34.9284 20.116C34.2858 20.507 33.5953 20.7491 32.8545 20.8398C32.6996 20.8568 32.5421 20.8568 32.3866 20.8496C32.1743 20.8398 31.9735 20.7765 31.9422 20.5246C31.9084 20.2727 32.0857 20.1474 32.2935 20.101ZM53.418 33.5902C53.6615 33.2697 53.657 33.2475 53.3058 33.0393C52.5152 32.5772 52.3023 31.751 52.7562 30.9436C52.8805 30.7211 53.0571 30.5475 53.2388 30.3784C53.4518 30.1826 53.4441 29.9823 53.2197 29.8034C52.4317 29.1847 52.3718 28.4022 52.7492 27.5413C52.8946 27.2065 52.8276 27.0251 52.5439 26.8006C51.7005 26.1401 51.5666 25.5775 51.9867 24.5991C52.097 24.3446 52.1397 24.2128 51.8197 24.0979C51.0789 23.8284 50.7372 23.2612 50.7614 22.4565C50.7684 22.2509 50.7659 22.0453 50.7735 21.8404C50.7901 21.3215 50.7901 21.3215 50.3336 21.1942C49.3423 20.9129 49.0248 20.4704 49.1006 19.4092C49.1223 19.1253 49.0458 18.9954 48.7902 18.9053C48.1163 18.6678 47.6962 18.2083 47.6936 17.4401C47.6936 17.1269 47.591 17.0048 47.2614 16.9976C46.3057 16.9826 45.7441 16.3835 45.4718 15.52C45.345 15.1167 45.1709 14.977 44.7788 14.9574C44.177 14.9261 43.6491 14.7009 43.2858 14.1703C43.164 13.9915 43.004 13.8864 42.791 13.857C42.3301 13.7911 41.9476 13.5686 41.6326 13.2233C41.4675 13.0425 41.2788 12.9668 41.0353 13.0034C40.3302 13.1039 39.7092 12.8911 39.1597 12.4506C38.9875 12.3135 38.8256 12.2548 38.6057 12.3383C37.7074 12.6901 36.9449 12.4851 36.3361 11.717C36.2066 11.5551 36.0804 11.4696 35.8841 11.6119C35.084 12.1888 34.331 12.0394 33.624 11.4331C33.4283 11.2666 33.2727 11.2033 33.0362 11.3717C32.4293 11.807 31.7771 11.7855 31.1345 11.4696C30.8693 11.3378 30.7022 11.3404 30.504 11.5845C29.9831 12.2208 29.3354 12.3651 28.5805 12.0446C28.1674 11.8684 28.1604 11.8854 27.9379 12.3135C27.4891 13.1868 26.71 13.502 25.8022 13.1724C25.6352 13.111 25.47 13.0327 25.317 12.9401C25.0684 12.7906 24.8988 12.8591 24.77 13.1058C24.3665 13.8838 23.6952 14.1259 22.9065 13.9745C22.4456 13.8838 22.2397 14.043 21.9962 14.4124C21.504 15.1486 20.8186 15.5272 19.9204 15.2485C19.55 15.131 19.3995 15.2831 19.2752 15.6153C18.9813 16.3959 18.4152 16.824 17.5883 16.8358C17.3282 16.841 17.1771 16.9017 17.1082 17.181C16.9049 18.0027 16.3438 18.4524 15.5622 18.609C15.1899 18.6828 15.0057 18.844 15.0222 19.2376C15.0509 19.93 14.743 20.4189 14.1405 20.7197C13.9353 20.8229 13.8396 20.9599 13.8849 21.2092C14.0736 22.2293 13.7013 22.9995 12.8457 23.5255C12.5403 23.7135 12.5308 23.9217 12.6908 24.2049C12.9222 24.6213 12.8508 25.0416 12.6882 25.46C12.4849 25.986 12.1648 26.4312 11.6892 26.7098C11.3482 26.9102 11.3023 27.1158 11.417 27.4898C11.651 28.2703 11.6178 29.0359 11.0014 29.652C10.7578 29.8968 10.8464 30.056 11.0179 30.2858C11.6249 31.095 11.6178 31.8117 11.0326 32.6653C10.8031 33.0028 10.8031 33.0028 11.1595 33.2012C11.9812 33.6606 12.2388 34.2892 11.9596 35.2016C11.8856 35.4391 11.7683 35.6663 11.6535 35.8843C11.5413 36.0944 11.5343 36.2706 11.723 36.4318C12.5518 37.1413 12.8266 38.0609 12.6953 39.1299C12.6736 39.3231 12.6736 39.5013 12.8413 39.624C13.6127 40.1885 13.7803 40.9737 13.6248 41.8717C13.577 42.1432 13.6771 42.2992 13.9117 42.4121C14.8029 42.8422 15.2517 43.5908 15.3404 44.5718C15.3665 44.8479 15.4666 44.968 15.7344 45.0195C16.4127 45.1487 16.8857 45.5743 17.2491 46.1617C17.4927 46.5552 17.6648 46.9612 17.6935 47.4357C17.7247 47.9271 17.7458 47.9271 18.2214 47.7731C18.3049 47.7463 18.3909 47.717 18.4744 47.683C19.1936 47.3939 19.8247 47.5701 20.41 48.0446C20.7899 48.3507 21.1221 48.7201 21.2362 49.1822C21.3892 49.7957 21.7571 50.0378 22.3117 50.1142C22.3978 50.1259 22.4813 50.1677 22.5699 50.1827C23.4038 50.3191 24.0056 50.7864 24.3709 51.5546C24.5195 51.8652 24.6699 51.924 24.997 51.7915C25.9858 51.3934 27.0205 51.6668 27.7301 52.4592C27.7753 52.5107 27.8232 52.5597 27.8595 52.6158C28.0265 52.8801 28.2127 52.9389 28.4613 52.7163C28.7457 52.4618 29.0918 52.418 29.4597 52.3959C30.2317 52.3521 30.9292 52.4742 31.4405 53.1418C31.5578 53.2913 31.7178 53.3155 31.8466 53.1712C32.1813 52.7875 32.6563 52.7189 33.0891 52.5427C33.6291 52.3202 34.0805 52.4304 34.5057 52.8214C34.938 53.2228 35.1343 53.198 35.3135 52.6576C35.4926 52.1146 35.8554 51.9266 36.3475 51.8333C36.9239 51.7236 37.4709 51.8137 37.963 52.1048C38.3092 52.3104 38.4597 52.2392 38.7153 51.9266C39.1762 51.3614 39.7449 50.9039 40.5571 51.0631C40.8032 51.1121 41.0283 51.2074 41.231 51.3542C41.37 51.4521 41.5223 51.5154 41.6562 51.3738C41.9954 51.0142 42.4519 50.9822 42.8892 50.9163C43.1857 50.8699 43.3763 50.7525 43.4623 50.4418C43.5841 50.0084 43.9022 49.767 44.3154 49.6514C44.4875 49.6025 44.6596 49.5516 44.8337 49.515C45.0492 49.468 45.2187 49.3701 45.2519 49.1332C45.3666 48.3605 45.8639 48.0766 46.5614 48.0178C46.8884 47.9911 47.0848 47.8468 47.0797 47.4507C47.0727 46.9246 47.3162 46.5311 47.8179 46.3451C48.0545 46.2596 48.1928 46.1055 48.2145 45.8484C48.2693 45.2342 48.5944 44.8994 49.1963 44.8407C49.4475 44.8139 49.538 44.6599 49.4857 44.4054C49.4589 44.2735 49.4424 44.1365 49.4379 43.9994C49.4067 43.1483 49.7745 42.6053 50.5867 42.4069C50.9667 42.3142 50.9884 42.1335 50.8806 41.8202C50.6205 41.0716 50.938 40.2819 51.6667 39.8315C51.872 39.7069 52.1181 39.6534 52.3667 39.56C52.331 39.2957 52.1875 39.1691 52.1091 39.0072C51.7789 38.3422 51.8745 37.6575 52.3814 37.1145C52.5509 36.9311 52.7562 36.7967 52.9787 36.6838C53.3874 36.4782 53.3848 36.471 53.1024 36.0624C52.6702 35.4365 52.658 34.6612 53.0788 34.0131C53.177 33.8617 53.3058 33.7344 53.418 33.5902Z" fill="#C67D45"/>
<path d="M48.8278 24.3963C48.8137 25.079 48.2164 25.778 47.5565 25.8857C47.0242 25.9764 46.4313 25.6827 46.3191 25.0835C46.1712 24.286 45.7772 23.9538 45.0243 23.8337C44.425 23.7358 43.9685 23.2835 43.739 22.7235C43.4572 22.0382 43.0511 21.7472 42.5086 21.9384C41.3929 22.0285 40.5329 21.7034 39.706 21.2949C39.2024 21.0456 38.772 20.9966 38.2773 21.3392C37.7928 21.6715 37.2165 21.8111 36.6217 21.8039C36.4208 21.8013 36.1824 21.8013 36.132 21.5494C36.0817 21.2825 36.3112 21.2094 36.5069 21.1676C37.1808 21.026 37.7565 20.6735 38.3035 20.28C38.6433 20.0326 38.9276 20.0352 39.2808 20.2186C39.8182 20.4954 40.3703 20.7421 40.9435 20.9424C41.639 21.1852 42.3365 21.2289 43.053 21.1043C43.6938 20.9894 43.8181 21.0599 44.0756 21.6715C44.1929 21.9456 44.3026 22.2171 44.4824 22.4566C44.8381 22.9383 45.292 23.232 45.9034 23.2248C46.3051 23.2196 46.7061 23.2176 47.1077 23.2274C47.3513 23.2346 47.5999 23.2372 47.839 23.2907C48.4931 23.4349 48.8424 23.8389 48.8278 24.3963Z" fill="white"/>
<path d="M36.1989 18.3477C36.0338 19.1178 35.599 19.7078 34.9277 20.1157C34.2851 20.5073 33.5946 20.7494 32.8545 20.8402C32.6989 20.8571 32.5414 20.8571 32.3859 20.8499C32.1736 20.8402 31.9728 20.7762 31.9415 20.5243C31.9084 20.2723 32.085 20.1477 32.2928 20.1013C32.5988 20.0328 32.9023 19.9617 33.1815 19.8077C33.3179 19.7346 33.4703 19.6856 33.6303 19.4533C33.3007 19.309 33.1911 19.0715 33.2625 18.7366C33.3199 18.4749 33.1528 18.255 33.0884 18.0174C32.9259 17.4111 33.2268 16.7284 33.7789 16.4641C33.8598 16.4249 33.9529 16.3962 34.032 16.4523C34.1321 16.528 34.1754 16.6671 34.111 16.7552C33.7094 17.3132 33.8433 17.8536 34.1059 18.4136C34.2207 18.6531 34.0607 18.8978 33.9606 19.2894C34.4215 18.9716 34.7033 18.6557 34.9086 18.2648C35.351 17.4183 35.4894 16.4987 35.5155 15.5543C35.5225 15.2808 35.4798 15.0041 35.5799 14.7398C35.6137 14.6543 35.664 14.5759 35.7616 14.559C35.9025 14.5368 35.9694 14.6425 35.9936 14.7522C36.2467 15.9407 36.4597 17.1344 36.1989 18.3477Z" fill="white"/>
<path d="M29.5236 19.4191C29.5166 19.6221 29.4331 19.7735 29.2418 19.8375C29.0627 19.8936 28.9479 19.7957 28.8593 19.6469C28.2167 18.5433 27.3209 17.6485 26.5323 16.6649C26.3627 16.4548 26.174 16.2564 26.0663 16.0025C26.021 15.8922 26.028 15.7799 26.1192 15.6892C26.2123 15.5965 26.327 15.5985 26.4246 15.6624C26.5942 15.7701 26.7714 15.8778 26.9097 16.0194C27.7341 16.8509 28.4863 17.7483 29.201 18.6803C29.3661 18.8957 29.4949 19.1378 29.5236 19.4191Z" fill="white"/>
<path d="M22.8434 19.1129C22.8599 19.3061 22.7599 19.4184 22.5756 19.4308C22.4016 19.4432 22.1198 19.1371 22.1026 18.9243C22.0911 18.7605 22.1791 18.6724 22.3251 18.6509C22.545 18.6456 22.8242 18.893 22.8434 19.1129Z" fill="white"/>
<path d="M24.3254 17.9978C24.3088 18.2542 24.1966 18.4357 23.9333 18.4696C23.7185 18.499 23.4986 18.2693 23.5081 18.0415C23.5158 17.8189 23.7925 17.5233 23.9837 17.55C24.2298 17.5846 24.2872 17.785 24.3254 17.9978Z" fill="white"/>
<path d="M25.9212 20.6905C25.6681 20.7858 25.4074 20.8446 25.1352 20.808C24.9777 20.7884 24.8056 20.7715 24.6978 20.9105C24.4351 21.2505 24.1604 21.5762 23.8403 21.8621C23.6969 21.9919 23.7402 22.1532 23.8429 22.2948C23.9742 22.4762 24.1368 22.6426 24.2439 22.8378C24.5282 23.3514 24.3752 23.7672 23.8403 23.9852C23.4368 24.1516 23.0135 24.1464 22.7655 24.1438C21.7021 24.1535 20.8637 23.9558 20.0821 23.525C19.2367 23.0603 18.4335 22.5271 17.7507 21.8281C17.6404 21.7178 17.5333 21.5977 17.4421 21.4685C17.3446 21.3262 17.335 21.1696 17.4568 21.028C17.576 20.889 17.7335 20.8713 17.882 20.9523C18.0369 21.0378 18.1829 21.1481 18.3193 21.2629C18.8377 21.6956 19.3796 22.0918 19.9412 22.4638C20.7082 22.9748 21.5561 23.2222 22.4524 23.3273C22.6054 23.3443 22.7655 23.3443 22.9178 23.3273C23.3335 23.2855 23.3864 23.1752 23.1716 22.826C23.1116 22.7281 23.0402 22.64 22.9829 22.5421C22.696 22.0409 22.7368 21.6297 23.1735 21.2675C23.5464 20.9621 23.8639 20.637 24.0647 20.1841C24.2012 19.8786 24.4613 19.7755 24.7909 19.844C24.9847 19.8832 25.1855 19.9106 25.3838 19.9126C25.6229 19.9126 25.816 19.8029 25.9212 19.5706C26.029 19.333 25.9595 19.1274 25.7924 18.9466C25.7465 18.8977 25.6847 18.8611 25.6439 18.8096C25.4724 18.5825 25.5508 18.3743 25.823 18.3253C26.1456 18.2666 26.5352 18.5459 26.6907 18.9466C26.9464 19.5973 26.5785 20.4412 25.9212 20.6905Z" fill="white"/>
<path d="M19.7915 26.5949C19.555 27.1522 19.5193 27.8643 19.1176 28.4367C18.9697 28.6442 18.7733 28.8354 18.4992 28.686C18.2385 28.5463 18.2193 28.2872 18.3079 28.0307C18.3845 27.8179 18.4896 27.615 18.5802 27.4068C18.795 26.9003 18.7906 26.8592 18.322 26.6073C17.9994 26.4336 17.715 26.2209 17.4977 25.9246C17.1872 25.499 17.0896 25.0174 17.221 24.5011C17.2662 24.3203 17.374 24.1591 17.5837 24.1513C17.7705 24.1441 17.854 24.291 17.9159 24.4398C18.0236 24.6917 18.1263 24.9436 18.2289 25.1956C18.4055 25.6263 18.6784 25.9004 19.168 25.9566C19.6264 26.0081 19.7845 26.1915 19.7915 26.5949Z" fill="white"/>
<path d="M30.2771 27.0697C30.2963 27.537 30.0432 27.8744 29.6632 27.8888C29.2424 27.9038 28.851 27.4783 28.8363 26.9868C28.8242 26.5319 29.0945 26.2186 29.4981 26.2232C29.9405 26.2284 30.258 26.5756 30.2771 27.0697Z" fill="white"/>
<path d="M37.9027 26.5363C37.9097 27.0056 37.661 27.2947 37.2435 27.2993C36.8278 27.3045 36.4931 26.952 36.5001 26.5141C36.5052 26.0912 36.8157 25.729 37.1765 25.7244C37.5705 25.7172 37.8957 26.0814 37.9027 26.5363Z" fill="white"/>
<path d="M48.1439 33.6366C48.3256 34.3585 48.01 34.8525 47.2909 34.955C46.8969 35.0137 46.4978 35.0333 46.1178 34.8179C45.75 34.6104 45.7092 34.6293 45.53 35.0333C45.0831 36.0286 44.6534 37.0337 44.2091 38.0316C43.9388 38.6334 43.6621 39.2325 43.3752 39.8245C43.2872 40.0079 43.1795 40.1893 43.043 40.3355C42.7612 40.6442 42.4674 40.6462 42.169 40.3551C41.9395 40.1351 41.7935 39.8467 41.6309 39.5752C41.0438 38.6014 40.4579 37.6309 39.8701 36.6597C39.8133 36.5644 39.77 36.4541 39.5481 36.3954C39.5169 36.8477 39.6316 37.2445 39.6935 37.6426C40.0116 39.6267 40.5057 41.5736 40.8927 43.5446C40.9717 43.948 41.0387 44.352 41.0865 44.7605C41.1177 45.017 41.0935 45.2983 40.7785 45.3544C40.477 45.4086 40.3431 45.1737 40.2551 44.9263C40.2003 44.7775 40.1595 44.6209 40.1308 44.4642C39.7126 42.1753 39.1178 39.9198 38.7882 37.6133C38.5612 36.0312 38.3629 34.4485 38.3081 32.8469C38.2794 32.0272 38.2221 31.2055 38.1551 30.3883C38.0977 29.6717 37.9568 29.5817 37.2568 29.6672C35.197 29.9217 33.1282 30.0633 31.0518 30.0313C30.4474 30.0242 29.8507 29.9236 29.2795 29.7161C29.0716 29.6424 28.8778 29.5229 28.6866 29.408C28.589 29.3493 28.5195 29.2488 28.5699 29.1189C28.6081 29.0236 28.7012 28.9923 28.7898 28.9871C29.0334 28.9747 29.282 28.9453 29.523 28.9747C31.1264 29.1659 32.7247 29.0993 34.3325 28.9995C35.4456 28.9283 36.5594 28.8748 37.6578 28.6836C38.6734 28.508 39.6673 28.2483 40.5822 27.7425C40.8213 27.61 41.0457 27.4657 41.2395 27.2725C41.7935 26.7269 41.7699 26.2942 41.1413 25.8099C40.783 25.5339 40.3839 25.3257 39.9657 25.1618C38.8787 24.7363 37.756 24.4328 36.6021 24.2788C32.6335 23.743 28.8804 24.4987 25.2873 26.2505C23.7368 27.0063 22.7735 28.2509 22.2743 29.9041C21.8778 31.2153 21.5864 32.5532 21.3333 33.9009C21.2708 34.2358 21.3282 34.5197 21.522 34.8036C22.6039 36.3758 23.4907 38.0662 24.3169 39.7905C24.3577 39.8734 24.3934 39.957 24.4368 40.0346C24.6657 40.4484 24.7594 40.4484 25.015 40.0301C25.4804 39.2717 25.7935 38.4376 26.1422 37.6231C26.7395 36.2218 27.2413 34.7788 27.8437 33.3775C28.1447 32.6726 28.2926 31.8196 27.5212 31.1885C27.3229 31.0266 27.2961 30.7773 27.5065 30.5913C27.7118 30.4131 27.9273 30.4941 28.1039 30.6722C28.269 30.8387 28.3499 31.0514 28.3761 31.2838C28.3978 31.4868 28.3907 31.695 28.4143 31.8979C28.4596 32.3209 28.517 32.36 28.9256 32.2745C29.0786 32.2399 29.2291 32.1864 29.3821 32.1694C29.8959 32.1107 30.4761 32.5774 30.1847 33.1523C30.0751 33.3723 30.1586 33.5244 30.2587 33.7175C30.5386 34.2625 30.39 34.7422 29.8673 35.0503C29.5134 35.2559 29.136 35.3831 28.7203 35.3779C28.0038 35.3681 27.6786 35.5979 27.416 36.2858C27.0691 37.2027 26.7421 38.125 26.3742 39.0321C26.1256 39.6437 25.8196 40.2278 25.5404 40.825C25.5117 40.8863 25.4785 40.947 25.4403 41.0032C25.2229 41.3217 25.0291 41.693 24.5777 41.6591C24.1474 41.6297 24.023 41.2453 23.8656 40.9203C23.2064 39.5725 22.5491 38.2228 21.8873 36.8771C21.756 36.6134 21.6125 36.3543 21.4595 36.1017C21.3856 35.9751 21.3429 35.7571 21.1395 35.8158C20.9674 35.8674 20.9629 36.0704 20.9412 36.2192C20.6951 37.8215 20.4542 39.4237 20.2151 41.0254C20.0621 42.065 19.9212 43.1047 19.7561 44.1418C19.7229 44.3494 19.7369 44.709 19.4768 44.692C19.1899 44.6724 19.3047 44.3252 19.3002 44.117C19.2735 43.0382 19.4526 41.9796 19.5795 40.9157C19.9594 37.6942 20.3872 34.4831 21.0509 31.3079C21.2281 30.4595 21.45 29.6254 21.7585 28.8109C22.3368 27.2973 23.3186 26.1643 24.7326 25.4281C27.2508 24.1202 29.917 23.3716 32.7438 23.1856C35.4144 23.012 37.9874 23.3814 40.47 24.4185C40.9073 24.5993 41.3179 24.8342 41.6883 25.1253C42.6803 25.9078 42.7351 26.9867 41.8413 27.8769C41.2178 28.5002 40.4464 28.8474 39.6316 29.1189C38.6951 29.4322 38.7161 29.4348 38.8481 30.4451C38.9986 31.6212 39.1152 32.8025 39.23 33.9812C39.2612 34.2847 39.309 34.5686 39.4907 34.8179C40.4343 36.1213 41.2133 37.5376 42.0899 38.8879C42.5655 39.6189 42.6344 39.6241 43.0048 38.8292C43.8744 36.9776 44.7344 35.1188 45.5804 33.2548C45.8482 32.6609 45.9534 32.0396 45.6614 31.4039C45.5377 31.1369 45.444 30.853 45.3585 30.5698C45.289 30.3322 45.3273 30.1025 45.5778 29.9922C45.7978 29.8969 45.9674 30.0313 46.1013 30.1952C46.3046 30.4471 46.4168 30.7408 46.4666 31.0658C46.5647 31.7387 46.5692 31.7315 47.1831 31.8705C47.377 31.9149 47.5682 31.988 47.7474 32.0761C48.2536 32.328 48.3377 32.5088 48.1413 33.0473C48.0629 33.2626 48.0916 33.4336 48.1439 33.6366Z" fill="white"/>
<path d="M44.3469 33.818C43.6775 35.4268 42.9514 37.0069 42.1564 38.6099C41.7273 38.3149 41.589 37.8711 41.3467 37.514C41.1076 37.161 40.9055 36.7811 40.6875 36.413C40.7034 36.1422 40.887 35.9522 41.0279 35.7577C41.7343 34.7788 41.733 33.6784 41.5711 32.5552C41.5131 32.1531 41.3646 31.7648 41.2849 31.3647C41.2409 31.1448 41.2294 30.9105 41.2466 30.6859C41.2881 30.1449 41.6616 29.9517 42.1443 30.203C42.4509 30.3622 42.6785 30.6239 42.8844 30.8857C43.3434 31.4711 43.7617 32.0898 44.0868 32.7666C44.2449 33.0962 44.3342 33.4486 44.3469 33.818Z" fill="#AD612E"/>
<path d="M24.2621 49.8134C23.8897 49.7619 23.4288 49.6294 23.0323 49.3886C21.8828 48.6915 20.7805 47.9266 19.9913 46.7792C19.7828 46.4764 19.617 46.1546 19.487 45.8179C19.3607 45.4928 19.3117 45.115 19.6387 44.882C19.9709 44.645 20.3056 44.3292 20.7856 44.6144C21.3262 44.9355 21.842 45.2899 22.3284 45.688C23.0565 46.2832 23.819 46.8393 24.4705 47.5265C24.7823 47.8542 25.0443 48.2216 25.1795 48.6687C25.372 49.305 25.0067 49.818 24.2621 49.8134Z" fill="#AD612E"/>
<path d="M26.3891 46.4001C25.6056 46.4242 25.1835 45.8884 24.8322 45.3428C24.43 44.7195 24.108 44.0407 23.9524 43.2908C23.721 42.178 24.5683 41.3159 25.6247 41.65C26.0843 41.7949 26.514 42.0175 26.806 42.4783C27.2338 43.1525 27.6029 43.8391 27.761 44.6366C27.9568 45.6234 27.3396 46.4131 26.3891 46.4001Z" fill="#6B3624"/>
<path d="M40.0669 37.1854C40.4851 37.7343 40.7937 38.3549 41.1481 38.9449C41.3324 39.2517 41.5294 39.5454 41.7793 39.7999C42.091 39.9683 42.2345 40.2418 42.3142 40.5883C42.4723 41.2723 42.6489 41.9504 42.5807 42.6631C42.4914 43.5873 42.0515 44.5578 40.8421 44.7464C40.5776 44.7523 40.6311 44.5983 40.6949 44.439C40.7082 43.4241 40.4163 42.4582 40.2326 41.4753C40.0446 40.4689 39.7545 39.4834 39.6174 38.4652C39.6009 37.9777 39.3529 37.4047 40.0669 37.1854Z" fill="#AD612E"/>
<path d="M35.8922 49.2788C35.131 49.269 34.6675 48.7985 34.3513 48.1654C34.0236 47.5075 34.053 46.8437 34.5177 46.2472C34.8512 45.8197 35.4702 45.7068 35.9713 45.9555C36.8039 46.3673 37.2935 47.6361 36.962 48.5198C36.7771 49.0112 36.4074 49.2729 35.8922 49.2788Z" fill="#F2CBAF"/>
<path d="M24.6374 32.0974C24.6546 32.8708 24.1299 33.218 23.4548 32.8753C22.6999 32.4929 21.8456 31.1021 21.9642 30.1564C22.0248 29.6708 22.3818 29.3836 22.7968 29.5735C23.7582 30.0154 24.4378 30.7209 24.6355 31.8252C24.6508 31.9133 24.6374 32.0066 24.6374 32.0974Z" fill="#AD612E"/>
<path d="M47.6853 41.4442C47.7242 42.1079 47.5412 42.7012 47.1409 43.222C46.8992 43.5353 46.6034 43.7807 46.1871 43.6997C45.7982 43.624 45.5152 43.2122 45.5407 42.7044C45.5897 41.7241 45.9002 40.8411 46.6449 40.1747C47.0172 39.8419 47.3015 39.9202 47.5438 40.3777C47.7229 40.7171 47.6706 41.0852 47.6853 41.4442Z" fill="#6B3624"/>
<path d="M30.4996 15.1382C29.6606 15.1304 29.0364 14.3602 29.1257 13.532C29.1518 13.2899 29.192 13.0405 29.315 12.8141C29.7039 12.0974 30.4702 11.9767 31.0223 12.5654C31.19 12.7442 31.329 12.9524 31.4743 13.1528C31.7625 13.549 31.846 13.9778 31.6095 14.4261C31.3519 14.9137 30.8987 15.0736 30.4996 15.1382Z" fill="#6C3624"/>
<path d="M19.0354 39.8023C19.0022 40.126 19.0354 40.4608 18.876 40.7624C18.3424 40.8009 17.8171 40.8218 17.3504 40.4674C16.8321 40.0738 16.6861 39.2645 17.0629 38.7789C17.432 38.3038 18.3367 38.249 18.7759 38.668C18.9481 38.8318 19.0494 39.0119 19.0303 39.2626C19.0169 39.4414 19.0328 39.6222 19.0354 39.8023Z" fill="#6C3725"/>
<path d="M16.7403 32.603C16.739 33.2015 16.3322 33.5298 15.7993 33.4286C15.0374 33.2837 14.4637 32.4151 14.6084 31.6371C14.7008 31.1365 15.1968 30.6705 15.8063 31.1065C16.3482 31.4948 16.6905 31.9843 16.7403 32.603Z" fill="#F2C9AE"/>
<path d="M34.0152 33.5896C34.0477 33.9166 33.9559 34.2155 33.7939 34.4981C33.5389 34.9432 33.0786 35.1514 32.6687 35.0006C32.3595 34.8877 32.1134 34.4113 32.1625 33.9681C32.2218 33.4388 32.4341 32.9598 32.7006 32.5114C32.8867 32.1968 33.2686 32.1694 33.5657 32.4272C33.9138 32.7287 34.0515 33.1242 34.0152 33.5896Z" fill="#6C3624"/>
<path d="M43.1094 26.1575C43.1132 25.5244 43.4326 25.1328 43.9395 25.1407C44.6968 25.1511 45.2662 25.7026 45.2419 26.401C45.2228 26.9453 44.7064 27.4824 44.2149 27.47C43.6194 27.4543 43.1056 26.8441 43.1094 26.1575Z" fill="#6C3624"/>
<path d="M14.3372 24.6536C14.3244 24.2372 14.4194 23.8632 14.5916 23.5134C14.7324 23.2269 14.962 23.0774 15.2916 23.0807C15.6097 23.084 15.7716 23.27 15.8991 23.531C16.1548 24.0532 16.04 25.0374 15.6664 25.472C15.2272 25.9824 14.6521 25.8708 14.4271 25.2377C14.3569 25.04 14.3295 24.8409 14.3372 24.6536Z" fill="#F2C9AD"/>
<path d="M40.5657 15.4947C40.5874 15.032 40.5925 14.6684 40.9622 14.5027C41.3486 14.3291 41.9007 14.5046 42.1703 14.8525C42.5733 15.3714 42.5701 16.0377 42.1627 16.4704C41.675 16.9886 40.9852 16.8529 40.7104 16.1806C40.6065 15.9255 40.5478 15.6585 40.5657 15.4947Z" fill="#F2C9AE"/>
<path d="M14.4866 32.6858C14.4803 33.3913 14.2635 33.8874 13.7242 34.2C13.174 34.5178 12.6174 34.1928 12.5945 33.5473C12.5836 33.2328 12.6965 32.9671 12.8852 32.7309C13.0388 32.539 13.2141 32.3739 13.2945 32.118C13.3742 31.8641 13.5743 31.701 13.8587 31.7323C14.1558 31.7643 14.3502 31.9483 14.428 32.2355C14.4752 32.4084 14.4758 32.5951 14.4866 32.6858Z" fill="#6C3724"/>
<path d="M32.1389 39.0314C32.144 39.3929 31.8673 39.7297 31.5549 39.7414C31.2234 39.7538 30.8415 39.314 30.8211 38.8956C30.8032 38.536 31.094 38.1816 31.3993 38.1907C31.7353 38.2012 32.1331 38.6535 32.1389 39.0314Z" fill="#F1C7AB"/>
<path d="M48.0622 24.4116C48.08 24.7099 47.7396 25.0864 47.4349 25.1047C47.1422 25.123 46.8432 24.8032 46.8018 24.4266C46.7699 24.1394 46.8891 24.0304 47.2627 24.0043C47.7587 23.9691 48.0443 24.1146 48.0622 24.4116Z" fill="#C67D45"/>
</svg>
