<svg width="24" height="24" viewBox="0 0 24 24" fill="none" xmlns="http://www.w3.org/2000/svg">
<path d="M12.9986 20.5252C12.9582 21.3393 12.226 22.0419 11.4638 21.9981C10.6508 21.951 9.95242 21.2555 10.0025 20.5426C10.0592 19.7433 10.8142 18.9724 11.5139 19.0008C12.3184 19.0336 13.0363 19.7704 12.9986 20.5252Z" fill="white"/>
<path d="M16.0014 20.5252C16.0418 21.3393 16.774 22.0419 17.5362 21.9981C18.3492 21.951 19.0476 21.2555 18.9975 20.5426C18.9408 19.7433 18.1858 18.9724 17.4861 19.0008C16.6816 19.0336 15.9637 19.7704 16.0014 20.5252Z" fill="white"/>
<path d="M6.81807 2.57218C6.7526 2.41044 6.60089 2.16925 6.46353 2.05936C6.04429 1.72397 3.20013 2.11878 2.44107 2.15764C2.18782 2.32118 1.76028 2.81094 1.85801 2.98686C1.96606 3.18134 2.25985 3.91687 2.5 4C3.18862 4.23837 4.36143 3.4699 4.87539 4.04097C5.04164 4.22569 5.05742 4.45834 5.17295 4.66775C6.31946 6.74578 6.44835 8.17079 7 10.5C7.14117 11.096 7.75536 12.5337 7.75536 13.145C7.75536 15.8146 6.6833 15.9168 9.5 17.5264C11.1456 18 16.5 17.9728 18.8663 17.5264C19.3811 17.4292 19.9603 17.2421 20.3762 16.9186C20.5106 16.8141 20.597 16.5203 20.6358 16.3456C20.9381 14.9852 19.7699 14.9331 18.7207 15.0921C17.3925 15.2933 11.5 15.5 10 15C9.68517 14.8951 9.55201 14.4978 10 14C10.2043 13.773 10.8911 13.9873 11.1554 13.9873C13.3764 13.9873 15.8514 13.9554 18.0243 13.5692C18.6352 13.4606 19.7714 13.3438 19.9457 12.5594C20.4647 10.2241 21.5292 8.29336 22.2819 6.03524C22.5716 5.16602 21.5474 5.40847 21.003 5.40847C17.4458 5.40847 14 5.40847 10.5 5.5C9.51671 5.67208 8.5 6 8.18557 5.1679C8.03439 5.07341 7.90866 4.81312 7.8152 4.66775C7.59912 4.33162 7.50051 3.94052 7.30239 3.58831C7.10806 3.24283 6.9677 2.94186 6.81807 2.57218Z" fill="white"/>
</svg>
