<svg width="121" height="76" viewBox="0 0 121 76" fill="none" xmlns="http://www.w3.org/2000/svg">
<path d="M14.3602 75.6937C9.54706 76.7565 3.53376 74.7347 1.07619 70.2677C-0.177095 67.9802 2.12127 67.0212 3.58683 65.7467C4.10937 65.3191 4.89318 63.9906 5.67699 64.0985C6.56695 64.2065 7.03642 65.9584 7.55896 66.5977C8.97145 68.2999 11.5882 69.2589 13.6253 68.0342C15.9808 66.5977 15.5073 63.8328 13.5723 62.2885C11.5842 60.6943 8.7061 60.1089 6.56286 58.9382C4.31349 57.7135 1.80284 55.7457 0.704693 53.3004C-1.07521 49.3108 0.651622 43.9927 4.36656 41.7592C8.60404 39.26 14.6173 38.5667 18.5405 42.1328C19.8468 43.3575 22.5167 46.1224 20.9981 47.8785C20.3163 48.7296 19.1161 49.207 18.2261 49.7924C16.9688 50.5895 16.7606 50.7514 15.7155 49.6844C13.8866 47.8246 11.9475 45.9605 9.07351 46.9735C5.72598 48.1442 8.13049 51.3368 10.2778 52.2376C15.2991 54.4172 23.0392 57.398 23.0392 64.1525C23.0392 69.6865 19.7978 74.5271 14.3561 75.6937H14.3602Z" fill="#F4F9FF"/>
<path d="M23.3516 41.8132C23.3516 39.6876 25.4417 40.1111 27.0665 40.219C31.3571 40.4847 35.5904 40.327 39.881 40.4308C41.4486 40.4308 43.649 39.7375 45.1636 40.219C46.6291 40.6965 46.2617 42.7722 46.2086 43.9969C46.1556 45.9108 46.3638 46.8698 44.3797 46.9237C43.2285 46.9237 42.0773 46.9777 40.9261 46.9777C40.4566 47.0317 38.6236 46.766 38.2603 47.1355C37.946 47.4551 38.3134 48.3062 38.3664 48.7297C38.3664 49.6347 38.1052 50.5895 38.1052 51.4946C38.1052 53.9938 38.1582 56.547 38.2113 58.9964C38.2644 63.4094 37.95 67.9346 38.2113 72.3477C38.2644 73.3565 38.6318 74.7431 37.7418 75.3284C37.2724 75.7021 36.3294 75.4364 35.7537 75.4364C34.6556 75.4364 33.5044 75.6481 32.4593 75.5443C30.9407 75.3326 31.1529 74.1079 31.2019 72.7254C31.255 70.7576 31.2019 68.7358 31.255 66.714C31.4101 61.6616 31.3611 56.5553 31.255 51.5029C31.255 50.4401 31.5693 48.8957 31.3081 47.8329C31.0468 46.7162 30.6794 46.9279 29.5282 46.9819C28.6913 46.9819 23.5149 47.5672 23.5149 46.5044C23.5149 45.068 23.3597 43.3659 23.3597 41.8215L23.3516 41.8132Z" fill="#F4F9FF"/>
<path d="M72.3146 62.6632C72.4207 65.6938 72.2615 69.3638 70.4857 71.917C68.7058 74.5241 65.1501 75.7447 62.17 75.9606C59.1368 76.1183 55.3198 75.8526 52.6499 74.3124C49.6167 72.5023 48.6206 69.4717 48.3594 66.1215C48.045 62.3436 48.2042 58.5159 48.1512 54.792C48.0981 51.122 47.943 47.0784 49.9311 43.8859C51.813 40.8013 55.7892 39.8963 59.1898 39.7385C60.9167 39.6846 63.0599 39.8465 64.7867 40.2699C70.698 41.8641 72.3187 45.9617 72.2125 51.6534C72.2125 55.3234 72.2125 59.0473 72.3187 62.6632H72.3146ZM62.7946 47.4521C60.5452 46.4433 57.512 46.547 56.0995 48.8345C54.6339 51.176 55.4708 53.4095 55.3688 55.9087C55.2626 58.5698 55.0013 61.2808 55.2136 63.9419C55.581 68.2512 59.9736 70.5387 63.4763 67.7198C65.2562 66.3373 65.4113 64.1578 65.3583 62.0281C65.2521 58.8895 65.2521 55.697 65.2521 52.5584C65.2521 50.4827 64.7296 48.3571 62.7946 47.4521Z" fill="#F4F9FF"/>
<path d="M93.8623 68.7275C94.544 70.4296 95.2748 72.0778 96.0055 73.7259C96.8955 75.59 96.0586 75.536 94.3848 75.536C93.5479 75.536 92.7111 75.7477 91.8742 75.6439C91.4578 75.59 90.3066 75.4862 89.9391 75.3782C88.7879 74.9506 88.3715 72.7711 87.849 71.7083C87.0652 70.2179 86.5916 68.5158 85.7057 67.0793C85.1301 66.0705 83.2482 65.4852 82.5664 66.8676C82.2521 67.6107 82.6195 69.263 82.5664 70.0601C82.5664 71.2848 82.6195 72.5054 82.6195 73.7301C82.6726 75.5941 81.9908 75.3782 80.215 75.3782C79.4312 75.3782 76.5531 75.9636 75.9244 75.4322C75.2427 74.8468 75.7693 74.4234 75.8183 73.7301C75.8714 72.825 75.7122 71.8702 75.7122 70.9652C75.6591 68.6777 75.7122 66.3902 75.7122 64.1027C75.7122 59.9553 75.6591 55.8038 75.6591 51.6564C75.7122 49.7966 75.7652 48.0405 75.8673 46.1764C75.9203 44.74 75.4509 42.9839 75.7122 41.5475C76.0796 39.8993 78.2759 40.3228 79.6884 40.2688C81.6765 40.2148 83.9789 40.2148 85.8609 40.2148C91.8742 40.3726 95.6422 43.0337 96.2178 49.3648C96.3239 51.4945 96.3239 53.6741 96.2709 55.7997C96.1647 59.4156 95.3809 63.3513 92.0334 64.9496C92.1395 64.8956 92.0865 65.2693 92.0334 64.9496C92.1395 66.1743 93.3928 67.6107 93.8623 68.7275ZM87.7959 47.9823C86.6447 47.343 84.7627 47.0233 83.4564 47.289C81.6765 47.6627 82.6726 50.1079 82.7256 51.6523C82.7787 53.5661 82.5705 55.4841 82.5705 57.344C82.6236 58.7804 82.3623 59.3658 83.9299 59.3118C85.0811 59.3118 86.6488 59.1541 87.6979 58.7265C88.9022 58.249 89.2656 57.344 89.3717 56.1193C89.5799 54.6829 89.5799 52.9808 89.5799 51.4904C89.5799 49.8422 89.2656 48.7255 87.8 47.9782L87.7959 47.9823Z" fill="#F4F9FF"/>
<path d="M100.611 58.8361C100.456 55.8553 100.456 52.8247 100.504 49.8979C100.558 48.1957 100.611 46.5476 100.504 44.8455C100.451 43.6747 99.9289 41.2295 100.872 40.3245C102.178 39.2077 105.787 40.3245 107.253 40.3245C110.286 40.2705 113.319 40.3784 116.303 40.3784C117.087 40.3784 118.185 39.901 118.867 40.6441C119.496 41.2295 119.234 42.612 119.234 43.409C119.181 45.9622 119.549 47.4526 116.462 47.079C113.952 46.8133 111.494 47.079 108.984 46.9212C107.779 46.8133 107.571 46.6016 107.363 47.93C107.102 49.4744 107.31 51.2803 107.31 52.8247C107.31 54.1034 107.204 53.9954 108.355 54.1532C109.298 54.2611 110.71 54.3109 111.702 54.2611C112.801 54.2071 114.474 53.6757 115.572 54.0494C116.932 54.5268 116.724 55.5938 116.671 56.9222C116.618 58.7323 117.401 60.9658 114.997 61.0198C113.27 61.0738 108.196 59.6913 107.257 61.3934C106.84 62.0867 106.995 64.424 106.995 65.3291C106.942 65.9684 107.049 67.8823 107.465 68.4676C107.673 68.7333 108.824 68.6254 109.555 68.6793C111.49 68.7873 112.956 68.7873 114.731 68.6793C115.777 68.6254 117.295 68.2019 118.287 68.5714C119.594 69.1028 119.332 70.5392 119.332 71.8179C119.279 72.7229 119.594 75.0104 118.704 75.4878C118.022 75.8075 115.932 75.3799 115.201 75.3799C114.209 75.3259 100.504 76.0192 100.504 74.9025C100.504 69.5844 100.819 64.1583 100.611 58.8402V58.8361Z" fill="#F4F9FF"/>
<path d="M43.8592 8.78047C43.9939 8.37362 45.1574 4.74104 44.5491 2.53243C44.4103 1.9097 44.149 1.3534 43.7775 0.880122C43.3734 0.373637 42.7937 0.0830304 42.0466 0.0207576C41.9323 0.00830304 41.8221 0 41.716 0C41.3363 0 40.973 0.0747274 40.6341 0.220031C40.23 0.394394 39.8381 0.631031 39.4747 0.921638C39.1196 1.20394 38.7807 1.53606 38.4746 1.89725C38.1766 2.24597 37.903 2.56564 37.6377 2.8687C36.8253 3.93564 35.7761 5.34716 34.5106 7.06174C33.2083 8.83444 31.8571 10.6943 30.5017 12.5916C29.1137 14.5345 27.6849 16.5397 26.252 18.5573C24.8273 20.5666 23.5372 22.3975 22.3819 24.0456C21.3328 25.5402 20.4428 26.8354 19.7366 27.9024C19.8999 27.3959 20.0754 26.8769 20.2632 26.3414C20.7817 24.8635 21.3205 23.3606 21.8716 21.8245L23.5291 17.2164C24.0802 15.6844 24.5619 14.219 24.962 12.849C25.3621 11.479 25.6437 10.2169 25.8111 9.10429C25.9785 7.95847 25.9662 7.01607 25.7662 6.29786C25.5988 5.76646 25.2804 5.41358 24.8109 5.25583C24.7824 5.24752 24.6191 5.1977 24.3374 5.1977C23.7414 5.1977 22.7779 5.40113 21.5655 6.36013C20.055 7.55577 18.5772 9.05862 18.0097 9.64813C16.5564 11.1634 15.1725 12.7908 13.8907 14.4888C13.5151 15.0077 13.1722 15.5018 12.8619 15.9626C14.156 11.7488 14.5275 10.6154 14.6091 10.4245C15.0092 9.45716 15.3481 8.43174 15.6134 7.38556C15.8869 6.32277 16.0012 5.29319 15.9604 4.33419C15.9155 3.29631 15.5113 2.49506 14.7479 1.95537C14.2417 1.59834 13.7029 1.41567 13.1477 1.41567C12.9803 1.41567 12.8129 1.43227 12.6415 1.46549C11.9556 1.59834 11.282 1.85988 10.6411 2.24182C10.0165 2.61131 9.41231 3.05552 8.8367 3.55785C8.75914 3.62428 8.38765 3.9481 8.38765 3.9481C7.31807 4.86973 5.08911 6.79189 4.1665 7.74674C3.38677 8.55213 1.46806 10.5573 0.463803 11.8609C-0.0383259 12.5127 -0.103643 13.2724 0.312756 13.6253C0.459721 13.754 0.643427 13.8163 0.863874 13.8163C1.59053 13.8163 2.62745 13.1064 3.95421 11.7031C5.18708 10.3331 6.34239 9.14995 7.39155 8.1785L9.6246 6.11104C10.5064 5.29734 11.1881 4.83237 11.6535 4.73273C11.7597 4.70782 11.8536 4.69952 11.9393 4.69952C12.2291 4.69952 12.3475 4.82822 12.421 4.94031C12.6047 5.22676 12.6782 5.69173 12.6415 6.31446C12.6006 6.98701 12.4618 7.71768 12.2332 8.48571C11.5229 10.8064 10.686 13.1354 9.75523 15.4104L6.93433 22.3061C5.99131 24.6061 5.09319 26.9475 4.26039 29.2682C3.42351 31.6014 2.73767 34.0051 2.23146 36.3922C2.19064 36.5085 2.16614 36.633 2.16206 36.7534C2.07225 37.1852 2.14981 37.5422 2.407 37.8162C2.52947 37.9491 2.61928 38.0487 2.85198 38.0487C2.85198 38.0487 2.8928 38.0487 2.93363 38.057C3.01935 38.0736 3.10917 38.0777 3.19898 38.0777C3.41126 38.0777 3.63171 38.0362 3.85215 37.9574C4.19507 37.8287 4.45226 37.592 4.62372 37.2433C5.183 36.085 5.70146 34.8852 6.20359 33.7228C6.81594 32.303 7.4487 30.8375 8.1672 29.4218C9.46539 26.8603 10.8901 24.3155 12.3965 21.8619C13.9641 19.3087 15.7114 17.0046 17.3688 14.8957C19.1161 12.6663 20.8674 10.5656 23.0637 9.34507C22.8555 10.2003 22.5738 11.1178 22.2309 12.0768C21.7818 13.3264 21.2838 14.6632 20.7572 16.0539C20.2265 17.453 19.6631 18.9019 19.0916 20.3674C18.5078 21.8536 17.9648 23.3482 17.479 24.8136C16.9851 26.304 16.5646 27.7778 16.2258 29.1976C15.8828 30.6382 15.6828 32.0414 15.6338 33.3741C15.6216 33.6896 15.7032 33.9719 15.8747 34.221C16.0339 34.4535 16.238 34.632 16.4789 34.7524C16.683 34.8562 16.8993 34.9101 17.1239 34.9101C17.1729 34.9101 17.2219 34.9101 17.2749 34.9018C17.5689 34.8686 17.8301 34.7358 18.0506 34.495C19.8876 32.3902 21.5287 30.3725 22.9208 28.4877C24.3047 26.6154 25.6397 24.7306 26.8929 22.879C28.1789 20.9818 29.4607 19.0679 30.7059 17.1873C31.9877 15.2485 33.4655 13.1313 35.0903 10.8811C35.421 10.4245 35.7884 9.90138 36.1885 9.32432C36.5885 8.7431 37.0253 8.12868 37.4866 7.49765L38.8134 5.68343C39.2257 5.12298 39.6176 4.63725 39.9687 4.25116C40.0953 4.13491 40.2463 3.98546 40.4218 3.80694C40.5647 3.65749 40.728 3.5371 40.8995 3.43746C41.0587 3.35028 41.2138 3.29631 41.3934 3.27555C41.4628 3.27555 41.5159 3.30046 41.5567 3.33782C41.6384 3.44576 41.6915 3.59937 41.7241 3.80694C41.8548 4.33419 41.8221 5.54228 40.924 8.30304C40.5729 9.38244 40.1238 10.6611 39.5931 12.1017C39.0583 13.5589 38.4582 15.1489 37.8173 16.8344C37.1478 18.5988 36.4987 20.3425 35.8904 22.0197C35.2618 23.7425 34.6412 25.482 34.0493 27.1883C33.4655 28.8697 32.9593 30.4597 32.5388 31.9086C32.1224 33.3533 31.8203 34.632 31.6448 35.7114C31.457 36.8572 31.4693 37.6792 31.6856 38.2231C32.004 39.1032 32.5715 39.8712 33.3757 40.5064C34.0289 41.0212 34.7637 41.3035 35.5679 41.3325C35.621 41.3325 35.6741 41.3325 35.7231 41.3325C35.8823 41.3325 36.0497 41.3201 36.2211 41.3035C36.6293 41.2371 36.9314 41.0336 37.1111 40.7057C37.2744 40.4068 37.3356 40.0788 37.2907 39.7384C37.2458 39.3938 37.107 39.0907 36.8702 38.8375C36.6334 38.5801 36.3273 38.4514 35.9598 38.4514C35.9231 38.4514 35.8904 38.4514 35.8455 38.4555C35.817 38.4555 35.7884 38.4597 35.7639 38.4597C35.6782 38.4597 35.6128 38.4389 35.5598 38.3974C35.4332 38.2936 35.3434 38.0362 35.3067 37.6751C35.2373 36.9153 35.3312 35.8525 35.5843 34.524C35.8415 33.179 36.2374 31.6014 36.7641 29.8453C37.2907 28.085 37.8826 26.2169 38.5236 24.2864C39.1604 22.3684 39.8299 20.4172 40.5157 18.4867C41.2016 16.5563 41.8384 14.7462 42.4059 13.098C42.9652 11.4831 43.4591 10.0259 43.8755 8.77216L43.8592 8.78047Z" fill="#584340"/>
<path d="M120.174 20.985C119.664 20.7899 119.088 21.01 118.737 21.8652C118.137 23.2435 117.263 24.9041 116.055 26.4526C114.838 28.0094 113.295 29.4583 111.344 30.4339C109.85 31.1853 105.87 31.9866 105.143 30.9238C105.184 30.8864 105.257 30.8158 105.38 30.7121L105.914 30.2512C106.686 29.587 109.209 27.5569 110.76 24.2149C111.119 23.4469 111.483 22.272 111.417 21.2092C111.324 19.7271 110.674 18.7183 109.213 18.4028C107.258 17.9752 105.167 19.395 103.681 21.1968C101.612 23.696 100.983 26.847 101.73 30.1516C101.734 30.218 99.3867 32.1817 97.1904 31.8122C95.7698 31.5756 95.3779 30.4754 95.1738 29.4749C94.839 27.7811 94.9247 25.8506 95.2391 24.4557C95.2962 24.2108 95.4922 23.9492 95.6881 23.7707C96.1331 23.3597 96.623 23.0068 97.072 22.6041C99.3745 20.5201 101.167 17.9586 102.914 14.957C103.816 13.4044 104.645 11.586 105.004 10.0458C105.641 6.77854 104.935 6.01466 104.139 5.62857C103.02 5.06811 101.861 5.51648 100.779 6.31357C100.367 6.61248 99.9909 6.96121 99.6398 7.33069C97.2843 9.8133 95.733 12.7899 94.6431 16.0074C94.0797 17.668 93.6551 19.8641 93.1979 21.5621C93.0877 21.9565 93.0101 22.4588 92.6468 22.6498C91.9854 22.9902 91.7119 23.0899 91.1404 23.2808C89.9647 23.6586 88.8665 23.2974 88.0174 22.3966C87.801 22.1724 87.5765 21.944 87.3356 21.7531C86.7682 21.3047 86.0742 21.2673 85.5435 21.6327C85.0087 22.0022 84.8128 22.6498 85.0005 23.4012C85.0822 23.7084 85.1638 24.0157 85.2128 24.3312C85.4945 26.1993 85.5353 27.8475 84.5147 29.4251C84.0167 30.189 82.5715 31.5258 81.2489 31.3057C79.918 31.0774 79.1505 29.4874 79.6037 28.848C85.6251 20.2793 89.2094 11.6441 89.4666 8.73806C89.5319 8.00739 89.6218 7.28503 89.434 6.57927C89.0461 5.11793 87.6622 4.37896 86.2579 4.91866C85.8415 5.07642 85.4455 5.31721 85.0781 5.57875C84.1637 6.20563 83.535 7.10651 82.939 8.02815C80.7508 11.4407 79.1546 15.094 78.0279 18.9882C77.1298 22.1018 76.5133 25.6223 76.4725 28.848C76.4725 29.0058 76.2847 29.3545 75.9296 29.7904L75.7948 29.9482C75.4519 30.3716 75.0029 30.8034 74.5048 31.2102C73.1944 32.3602 72.1126 32.7629 71.2879 32.7629C71.043 32.7629 70.8103 32.7089 70.6021 32.6093C69.8019 32.2066 69.5203 30.7245 69.9326 29.093C70.3735 27.4614 71.2757 25.257 71.8717 23.7998C72.2024 22.9902 72.4432 22.4049 72.48 22.2139C72.6759 21.3089 72.3371 20.5118 71.6472 20.2253C71.3492 20.1008 71.0838 20.0385 70.8389 20.0385C70.798 20.0385 70.7572 20.0385 70.7205 20.0426C70.3612 20.0676 69.9979 20.1963 69.6387 20.3208C69.4876 20.3748 69.3325 20.4246 69.1774 20.4703C68.5772 20.6488 67.969 20.8563 67.3485 21.0598L67.2464 21.093C66.8137 21.2424 66.3769 21.3877 65.94 21.5206C65.4787 21.6659 65.0787 21.7738 64.7153 21.8652C65.5563 20.2668 65.985 18.9259 65.9931 17.8839C66.0013 16.8086 65.4991 15.5424 64.5112 15.2186C64.1765 15.1065 63.8499 15.0484 63.5437 15.0484C62.8987 15.0484 62.3068 15.2933 61.776 15.779C59.4205 17.9378 59.5593 22.081 60.8902 23.7167L60.8453 23.833L60.8085 23.8994C60.6697 24.1443 60.5024 24.4765 60.3023 24.8626C59.2001 27.0338 57.1548 31.0774 54.4237 31.0774C54.2237 31.0732 53.942 30.9611 53.7297 30.6539C53.5215 30.3509 53.2439 29.6368 53.7297 28.2377C53.9257 27.6773 54.1216 27.1002 54.3298 26.5481L54.5585 25.9544C54.6197 25.78 54.8156 25.2611 54.5666 24.7837C54.4156 24.5014 54.1012 24.2938 53.6522 24.19C53.5705 24.1651 53.493 24.1568 53.4113 24.1568C52.8969 24.1568 52.4234 24.5678 52.007 25.3857C50.9986 27.5112 47.7654 31.5673 45.6957 31.5673C45.4916 31.5673 45.2997 31.5258 45.1282 31.4469C44.7404 31.2725 44.3485 30.629 44.3485 29.7364C44.3485 26.5232 47.6266 22.1931 50.2067 21.0349C50.5414 20.8854 50.9374 20.8024 51.3211 20.8024C51.7416 20.8024 52.1295 20.902 52.3744 21.0764C52.701 21.313 52.852 21.695 52.8235 22.2305C52.8071 22.4464 52.8479 22.6373 52.8724 22.7619C52.999 23.3888 53.4317 23.7707 53.9869 23.7707C54.0359 23.7707 54.0849 23.7666 54.1298 23.7624C54.7667 23.7126 55.2565 23.2393 55.3831 22.5543C55.5219 21.8153 55.5545 20.7152 54.934 19.7064C54.1706 18.4568 52.8684 17.7427 51.3701 17.7427C51.2803 17.7427 51.1946 17.7427 51.1089 17.7469C51.0925 17.7469 51.0762 17.751 51.0599 17.751C45.1854 18.382 42.3032 25.4811 42.1849 25.7842C41.597 27.258 40.8377 30.2969 41.7031 32.3021C42.0624 33.1324 42.6625 33.7136 43.483 34.0333C43.9729 34.2201 44.4873 34.3156 45.0221 34.3156C47.2225 34.3156 49.3045 32.6882 50.2597 31.505C50.6721 32.41 51.7171 33.3026 52.6887 33.5517C53.1705 33.6762 53.6481 33.7385 54.1216 33.7385C58.6571 33.7385 61.5025 28.1423 62.8701 25.4521C63.0742 25.0535 63.2334 24.7422 63.3559 24.5221C63.3682 24.5055 63.3763 24.4931 63.3845 24.4848C63.4784 24.4889 63.5804 24.4931 63.6784 24.4931C65.2134 24.4931 67.7363 23.8247 69.3529 23.0068C69.0549 23.9285 68.7201 24.792 68.418 25.5642C68.1241 26.3114 67.8506 27.0255 67.6506 27.669C66.5238 30.7619 67.1117 32.6218 67.8057 33.6389C68.614 34.8221 69.9652 35.3202 71.6186 35.3202C73.0474 35.3202 74.5171 34.7349 75.8847 33.6264L75.999 33.5309C76.5133 33.095 76.9991 32.5885 77.4482 32.0281C78.4157 34.1163 80.9998 34.6103 82.7757 34.1163C85.7109 33.3109 88.1154 30.2595 87.8745 26.5937C87.8704 26.5024 87.8827 26.4069 87.8949 26.3114C87.9235 25.9253 87.9807 25.8838 88.3277 25.9752C88.4869 26.0208 88.6502 26.0707 88.8135 26.1163C89.8871 26.3986 90.9322 26.382 91.9936 26.0374C92.4059 25.9046 92.2998 27.0753 92.2794 27.4116C92.3039 28.8895 92.4059 30.2637 92.8019 31.5922C93.1652 32.821 93.9123 33.6804 95.0554 34.2076C95.9453 34.6145 96.8638 34.5896 97.815 34.4443C99.0193 34.2616 99.4398 34.1121 100.256 33.7261C100.795 33.506 101.35 33.2279 102.057 32.8376C102.379 32.655 102.489 32.6799 102.747 32.8667C104.571 34.1827 108.066 34.108 109.291 33.8132C111.336 33.3192 116.912 31.1023 120.374 24.2647C120.374 24.2647 120.378 24.2564 120.378 24.2481C120.529 23.9492 120.676 23.6503 120.811 23.3348C121.358 21.8403 120.611 21.1553 120.166 20.985H120.174ZM96.1045 19.1833C96.1903 18.8844 96.2882 18.5896 96.3985 18.2949C97.4272 15.505 98.7376 12.3582 100.652 10.0209C100.975 9.62648 101.673 8.79618 102.004 8.63842C102.379 8.45991 102.616 8.56785 102.579 9.07433C102.253 12.3208 98.1375 17.5476 96.8312 18.8968C96.7005 19.0504 96.5536 19.1999 96.3985 19.3327C96.3209 19.3992 96.1943 19.5196 96.1168 19.4822C96.0106 19.4116 96.0841 19.2746 96.1127 19.1833H96.1045ZM79.5914 23.6545C79.9425 22.3467 80.2773 21.039 80.6488 19.7396C81.7306 15.9783 83.388 12.4744 85.4741 9.16982C85.715 8.77957 86.3436 7.95342 86.5763 7.887C86.9233 7.79151 87.1234 8.06966 87.0499 8.50557C86.9397 9.47703 86.3926 11.0338 86.017 12.0883C84.9556 15.0857 83.9228 17.3109 82.3184 19.8143C81.5183 21.0473 80.7671 22.3177 79.9997 23.5714C79.9548 23.6379 79.5669 24.1859 79.4853 24.2606C79.4771 24.1485 79.5751 23.7583 79.5996 23.6545H79.5914ZM62.4047 21.4542C61.972 20.408 62.3517 18.9383 62.7966 18.1828C63.0048 17.8257 63.1804 17.697 63.2702 17.697V17.5808L63.2743 17.697C63.5029 17.697 63.5804 17.8008 63.6213 17.8797C63.9479 18.519 62.9273 20.6239 62.4047 21.4542ZM104.518 28.3664C104.404 28.4785 104.286 28.5823 104.171 28.6944C104.167 28.6487 104.167 28.5948 104.171 28.5159V28.3374C104.355 23.5382 107.29 21.1386 107.768 20.9601C108.086 20.8397 108.27 20.9269 108.36 21.0099C108.609 21.2424 108.625 21.778 108.445 22.5003C107.751 25.2902 105.02 27.9015 104.518 28.3664Z" fill="#584340"/>
</svg>
