<svg width="23" height="23" viewBox="0 0 23 23" fill="none" xmlns="http://www.w3.org/2000/svg">
<circle cx="11.5" cy="11.5" r="11.5" fill="#584340"/>
<path d="M11.5 1L17.6717 3.00532L21.4861 8.25532V14.7447L17.6717 19.9947L11.5 22L5.32825 19.9947L1.51391 14.7447V8.25532L5.32825 3.00532L11.5 1Z" fill="#915526"/>
<path d="M17 5L19.5981 7.25H14.4019L17 5Z" fill="#491616"/>
<path d="M6 7L7.73205 10H4.26795L6 7Z" fill="#AD622E"/>
<path d="M6.37778 14.0052L6.74995 15.09L7.88441 14.9214L6.96766 15.6106L7.47858 16.6374L6.53983 15.9785L5.72114 16.7817L6.05771 15.6853L5.04081 15.1549L6.18757 15.1362L6.37778 14.0052Z" fill="#6B3624"/>
<circle cx="11" cy="6" r="1" fill="#6B3624"/>
<circle cx="13" cy="13" r="2" fill="#AD622E"/>
</svg>
