<svg width="64" height="64" viewBox="0 0 64 64" fill="none" xmlns="http://www.w3.org/2000/svg">
<path d="M52.6639 30.385C52.6639 31.038 52.7101 31.6581 52.6556 32.2684C52.4631 34.4126 52.5812 36.5594 52.5504 38.7043C52.5414 39.3494 52.6562 39.982 52.6678 40.6238C52.6768 41.1113 52.5439 41.5166 52.225 41.897C51.505 42.7549 50.6856 43.513 49.9354 44.3394C48.0649 46.3975 46.109 48.3709 44.1679 50.3581C43.6609 50.8778 43.6507 50.8935 43.0135 50.5703C42.314 50.2149 41.6698 49.7577 41.0749 49.246C38.3567 46.9093 35.4363 44.8479 32.5943 42.68C31.71 42.006 30.8636 41.2775 29.9563 40.6383C29.4089 40.2527 29.2068 39.7514 29.1843 39.128C29.1683 38.6859 29.1862 38.2431 29.1843 37.8004C29.1804 36.5608 29.1837 35.3211 29.1657 34.0815C29.1529 33.1973 28.9905 32.3196 29.0444 31.4321C29.0553 31.2443 28.9687 31.034 29.1336 30.8784C29.2767 30.8508 29.3364 30.9506 29.4031 31.034C30.7892 32.7604 32.6655 33.5074 34.7472 33.8647C35.668 34.0231 36.6017 34.0513 37.5231 34.0644C38.4029 34.0769 39.2949 34.0546 40.1765 33.9744C42.2216 33.7872 44.2584 33.529 46.2656 33.0692C47.8095 32.7151 49.3297 32.2921 50.7459 31.5445C51.2278 31.2902 51.695 31.0176 52.1223 30.6727C52.2699 30.5532 52.4079 30.4001 52.6639 30.385Z" fill="#40BBC8"/>
<path d="M50.8578 25.6928C50.4105 25.7328 50.1378 26.0652 49.8067 26.3017C49.48 26.5369 49.1213 26.6834 48.7184 26.6716C48.3847 26.6644 48.1992 26.8214 48.0953 27.1314C47.9727 27.4895 47.7802 27.8146 47.5441 28.1037C46.9402 28.8407 46.0996 29.0017 45.275 28.5491C44.7238 28.2482 44.7167 28.2436 44.3651 28.7672C44.1033 29.1534 43.8113 29.5023 43.4321 29.7703C43.0868 30.012 42.7025 30.1112 42.3296 29.9339C41.9825 29.7703 41.7624 29.8366 41.5583 30.1349C41.5006 30.2203 41.4171 30.3031 41.2458 30.2985C41.2272 30.0685 41.3665 29.9404 41.4454 29.7913C41.6257 29.4451 41.7021 29.0897 41.6097 28.7035C41.4961 28.2383 41.5609 27.7785 41.6674 27.3259C41.7021 27.1768 41.7579 27.0276 41.8298 26.8943C41.9151 26.736 42.0492 26.6052 42.2462 26.6433C42.4451 26.6814 42.5125 26.8522 42.5337 27.0368C42.5728 27.3922 42.5472 27.743 42.4689 28.0919C42.4175 28.3054 42.3598 28.5182 42.3207 28.7363C42.2834 28.9498 42.3572 29.1298 42.5337 29.2559C42.6999 29.3742 42.8597 29.3104 43.0195 29.225C43.7305 28.848 44.3093 27.6603 44.1777 26.8306C44.1148 26.4489 44.1245 26.079 44.3093 25.7355C44.4209 25.5266 44.5852 25.3847 44.8329 25.4274C45.078 25.4674 45.2006 25.6474 45.2404 25.8826C45.3007 26.2354 45.284 26.5914 45.18 26.935C45.0645 27.3121 45.0966 27.6294 45.4393 27.8665C45.8006 28.1175 46.1804 28.2528 46.5905 28.0091C47.1507 27.6767 47.4241 27.1314 47.5838 26.5152C47.6486 26.2689 47.4677 26.1053 47.3406 25.9299C47.0763 25.5601 46.9332 25.1521 46.9749 24.6877C46.998 24.4295 47.0833 24.2015 47.3381 24.1115C47.632 24.0097 47.8386 24.1759 48.0074 24.396C48.2435 24.7041 48.2942 25.0812 48.3571 25.451C48.4565 26.0225 48.6253 26.1244 49.1374 25.9181C49.448 25.7926 49.679 25.5693 49.9061 25.3255C50.2141 24.9984 50.5382 24.9649 50.8905 25.1902C50.9874 25.252 51.0567 25.3321 51.0503 25.4556C51.0432 25.5765 50.9643 25.6855 50.8578 25.6928ZM40.2178 24.5504C39.6878 24.6831 39.5325 24.9294 39.6364 25.4963C39.6993 25.8419 39.7988 26.1835 39.8751 26.5297C39.9541 26.8779 39.9541 27.2313 39.931 27.5867C39.9214 27.7667 39.8751 27.9355 39.7802 28.0892C39.5511 28.4545 39.2315 28.4591 39.0255 28.0846C38.8844 27.8311 38.8241 27.5486 38.8125 27.2576C38.7965 26.8352 38.8074 26.416 38.8844 25.9982C38.9325 25.7355 38.9447 25.472 38.8375 25.2165C38.7336 24.9649 38.5764 24.8703 38.3287 25.0148C37.9764 25.2211 37.6613 25.52 37.2006 25.4228C37.087 25.3991 37.0087 25.5128 36.974 25.6238C36.865 25.968 36.7007 26.0107 36.3946 25.8136C36.0776 25.61 36.0038 25.6717 36.0314 26.079C36.0616 26.506 36.0519 26.9206 35.8139 27.295C35.5726 27.6721 35.3531 27.7647 34.9521 27.5512C34.7024 27.4211 34.5587 27.4967 34.3733 27.6366C34.1653 27.793 33.9497 27.9519 33.7136 28.0538C33.1046 28.3172 32.5746 28.0965 32.3147 27.5039C32.0208 26.8404 32.1716 25.6074 32.6856 24.9839C32.762 25.3991 32.6458 25.6954 32.5996 25.9917C32.5393 26.3944 32.5348 26.7879 32.683 27.1695C32.8544 27.6149 33.1393 27.7338 33.5557 27.5203C33.9286 27.3285 34.2346 27.0513 34.4984 26.7189C34.8712 26.2525 34.8828 26.2571 35.3782 26.5862C35.5078 26.3326 35.4038 26.0652 35.4179 25.8064C35.4385 25.3702 35.5591 25.2047 35.9736 25.1212C36.2098 25.0739 36.4228 24.9458 36.6359 24.8966C37.2538 24.7566 37.8262 24.6121 38.2311 24.038C38.3678 23.8435 38.6713 23.9171 38.8844 24.0807C39.0859 24.237 39.1988 24.1398 39.2662 23.9315C39.3381 23.7016 39.4003 23.4645 39.4837 23.2372C39.5395 23.0874 39.63 22.9501 39.8193 22.9954C39.9631 23.0309 40.0093 23.1564 40.0446 23.2917C40.2063 23.9099 40.2133 23.9197 40.7228 23.5643C41.0238 23.3554 41.3222 23.2319 41.695 23.3291C42.1442 23.4454 42.5452 23.2391 42.9476 23.0854C43.2928 22.9527 43.6381 22.822 44.0013 22.7602C44.1565 22.7346 44.3234 22.7484 44.3792 22.9311C44.4325 23.111 44.3138 23.2536 44.1707 23.2963C43.3852 23.5262 42.6582 23.9861 41.8015 23.9079C41.4338 23.8744 41.1258 23.9644 40.8428 24.2134C40.6651 24.3697 40.4585 24.4886 40.2178 24.5504ZM52.6288 25.072C52.3163 24.6141 51.932 24.2278 51.5014 23.8915C50.0678 22.7675 48.4219 22.1132 46.7015 21.6343C45.259 21.2336 43.7837 21.0608 42.2924 20.9353C40.8383 20.8098 39.4029 20.8946 37.9693 21.0943C36.9805 21.2316 36.059 21.6395 35.1029 21.9141C33.7226 22.3149 32.4424 22.891 31.2565 23.7561C29.4046 25.1094 28.6538 27.3003 29.5272 29.2677C29.9969 30.3221 30.7194 31.1571 31.7154 31.7306C32.4931 32.176 33.3061 32.5222 34.1814 32.714C35.4109 32.9866 36.6545 33.1173 37.9116 33.0983C40.2923 33.0602 42.6518 32.8112 44.9901 32.3612C46.6713 32.036 48.334 31.6524 49.9132 30.9554C50.8161 30.5573 51.6336 30.0377 52.3118 29.296C53.4996 28.0019 53.6132 26.5198 52.6288 25.072Z" fill="#6C5895"/>
<path d="M51.0477 25.4558C51.0406 25.5767 50.9617 25.6857 50.8552 25.6929C50.4086 25.733 50.1352 26.0648 49.8041 26.3019C49.4781 26.5364 49.1188 26.6836 48.7158 26.6718C48.3827 26.6645 48.1973 26.8209 48.0933 27.1316C47.9701 27.4896 47.7783 27.8142 47.5421 28.1039C46.9376 28.8409 46.097 29.0019 45.2725 28.5493C44.7219 28.2484 44.7148 28.2438 44.3625 28.7674C44.1014 29.1536 43.8094 29.5025 43.4295 29.7698C43.0843 30.0116 42.6999 30.1114 42.3271 29.9334C41.9799 29.7698 41.7598 29.8362 41.5564 30.1351C41.4986 30.2205 41.4152 30.3032 41.2439 30.2986C41.2253 30.0687 41.3639 29.9406 41.4428 29.7915C41.6231 29.4453 41.7001 29.0899 41.6071 28.7036C41.4935 28.2385 41.5583 27.7787 41.6648 27.3261C41.7001 27.1769 41.7553 27.0272 41.8272 26.8945C41.9132 26.7361 42.0473 26.6054 42.2443 26.6435C42.4432 26.6816 42.5106 26.8518 42.5311 27.037C42.5703 27.3924 42.5452 27.7432 42.4663 28.092C42.4156 28.3049 42.3572 28.5184 42.3181 28.7365C42.2809 28.95 42.3553 29.13 42.5311 29.2554C42.698 29.3744 42.8578 29.31 43.0175 29.2246C43.7285 28.8482 44.3073 27.6604 44.1752 26.8307C44.1129 26.4491 44.1219 26.0792 44.3073 25.7356C44.4184 25.5267 44.5826 25.3848 44.8303 25.4275C45.0761 25.4676 45.1987 25.6476 45.2378 25.8828C45.2981 26.2356 45.2821 26.591 45.1781 26.9352C45.062 27.3116 45.0947 27.6296 45.4374 27.8667C45.7986 28.1177 46.1779 28.253 46.5879 28.0086C47.1481 27.6769 47.4215 27.1316 47.5813 26.5154C47.6461 26.2691 47.4658 26.1055 47.3381 25.9301C47.0743 25.5602 46.9306 25.1523 46.9723 24.6879C46.9954 24.4297 47.0814 24.2017 47.3361 24.1117C47.63 24.0099 47.836 24.1754 48.0048 24.3962C48.2409 24.7043 48.2923 25.0813 48.3545 25.4512C48.454 26.0221 48.6234 26.1245 49.1348 25.9183C49.4454 25.7921 49.677 25.5694 49.9036 25.3257C50.2116 24.9986 50.5363 24.9651 50.8879 25.1904C50.9855 25.2521 51.0548 25.3323 51.0477 25.4558Z" fill="white"/>
<path d="M44.1686 23.2962C43.3838 23.5262 42.6568 23.986 41.8001 23.9078C41.4318 23.8743 41.1238 23.965 40.8414 24.2133C40.663 24.3703 40.457 24.4886 40.2158 24.5503C39.6857 24.683 39.5304 24.9294 39.635 25.4963C39.6973 25.8425 39.7967 26.1834 39.8731 26.5296C39.952 26.8778 39.952 27.2312 39.9289 27.5866C39.9193 27.7673 39.8731 27.9355 39.7781 28.0892C39.549 28.4544 39.2295 28.459 39.0235 28.0846C38.8823 27.831 38.822 27.5492 38.8104 27.2575C38.7944 26.8351 38.806 26.416 38.8823 25.9988C38.9311 25.7354 38.9426 25.4726 38.8361 25.2164C38.7315 24.9648 38.5743 24.8702 38.3266 25.0148C37.9743 25.221 37.6599 25.5199 37.1985 25.4227C37.0856 25.3991 37.0066 25.5127 36.972 25.6244C36.8629 25.968 36.6986 26.0107 36.3932 25.8136C36.0755 25.6099 36.0017 25.6717 36.0293 26.079C36.0595 26.506 36.0505 26.9205 35.8118 27.2956C35.5712 27.672 35.3511 27.7646 34.9506 27.5511C34.7004 27.4211 34.5566 27.4966 34.3718 27.6365C34.1633 27.7929 33.9477 27.9519 33.7115 28.0537C33.1026 28.3171 32.5725 28.0964 32.3133 27.5039C32.0187 26.8404 32.1695 25.6073 32.6835 24.9839C32.7599 25.3991 32.6444 25.6953 32.5976 25.9916C32.5379 26.3943 32.5327 26.7878 32.681 27.1695C32.8523 27.6155 33.1372 27.7338 33.5543 27.5203C33.9271 27.3285 34.2326 27.0512 34.4963 26.7195C34.8692 26.2524 34.8807 26.257 35.3767 26.5868C35.5064 26.3326 35.4018 26.0652 35.4159 25.8064C35.4364 25.3702 35.5571 25.2046 35.9716 25.1218C36.2077 25.0739 36.4208 24.9464 36.6338 24.8965C37.2518 24.7566 37.8242 24.6121 38.2291 24.0379C38.3658 23.8441 38.6693 23.917 38.8823 24.0806C39.0838 24.2376 39.1974 24.1404 39.2641 23.9315C39.336 23.7016 39.3982 23.4644 39.4817 23.2371C39.5375 23.0873 39.628 22.95 39.8179 22.9954C39.961 23.0308 40.0072 23.1563 40.0425 23.2916C40.2042 23.9105 40.2113 23.9197 40.7208 23.5643C41.0217 23.3554 41.3201 23.2325 41.6936 23.3297C42.1428 23.4454 42.5432 23.2391 42.9462 23.0854C43.2908 22.9527 43.636 22.8219 43.9998 22.7609C44.1545 22.7346 44.3213 22.749 44.3772 22.931C44.4304 23.1117 44.3123 23.2535 44.1686 23.2962Z" fill="white"/>
<path d="M42.591 52.0641C42.4087 54.1643 42.2496 55.9905 42.0911 57.8168C42.0648 58.1249 42.0494 58.4343 42.0135 58.7411C41.9679 59.126 41.8421 59.2272 41.4995 59.08C41.0015 58.8665 40.5151 58.6208 40.0415 58.3568C38.7325 57.6256 37.4221 56.8984 36.0893 56.2139C34.3497 55.3211 32.6813 54.2956 30.9872 53.3195C29.347 52.3741 27.6677 51.5116 25.9871 50.6484C24.6896 49.9816 24.6716 49.9777 24.533 48.5009C24.4528 47.6436 24.3983 46.7811 24.3855 45.9205C24.3604 44.2821 24.1615 42.6595 24.0197 41.031C23.9273 39.9747 23.8143 38.9203 23.7232 37.864C23.7072 37.6768 23.5743 37.4252 23.7688 37.3076C23.9863 37.1762 24.1628 37.4146 24.3354 37.5276C25.2126 38.0972 26.0269 38.7567 26.8528 39.3992C29.0031 41.0724 31.1271 42.7817 33.298 44.426C35.7127 46.2542 38.1684 48.0253 40.6049 49.824C41.0079 50.1215 41.384 50.4618 41.8036 50.7312C42.3985 51.1128 42.7084 51.6022 42.591 52.0641Z" fill="#F8C8D1"/>
<path d="M10.23 18.2468C10.3981 18.231 10.5233 18.3164 10.6215 18.4406C10.7299 18.5779 10.8287 18.7237 10.9256 18.8695C13.0175 22.0162 15.146 25.1386 17.1879 28.3187C18.7312 30.7231 20.3919 33.0453 21.9076 35.4681C22.5185 36.4436 22.5108 36.4239 21.6926 37.2352C20.637 38.2817 19.6052 39.3551 18.5663 40.42C18.1992 40.7964 17.8219 41.1603 17.3958 41.4664C16.9954 41.7542 16.7804 41.7483 16.4063 41.4303C15.9533 41.0447 15.619 40.55 15.2654 40.0757C13.4257 37.6103 11.8144 34.9872 10.2101 32.3601C8.38899 29.3771 6.57749 26.3867 4.68705 23.4483C4.14675 22.6088 4.16985 22.5509 5.07784 22.1154C5.51035 21.9085 5.89023 21.6135 6.23739 21.2745C7.30389 20.232 8.4737 19.3248 9.7096 18.5049C9.87259 18.3972 10.0292 18.275 10.23 18.2468Z" fill="#F8C8D1"/>
<path d="M23.067 35.5098C22.9072 35.4822 22.8449 35.3626 22.7782 35.249C21.9446 33.8484 20.9917 32.53 20.0979 31.1714C18.3216 28.4715 16.5499 25.7689 14.7769 23.0669C14.3367 22.3962 14.3406 22.3989 14.9681 21.9443C17.669 19.9866 20.3693 18.0283 23.065 16.0641C23.3994 15.8211 23.7228 15.5576 24.025 15.2745C24.2644 15.0512 24.4383 15.0879 24.6115 15.3323C24.8143 15.6194 25.0158 15.9078 25.216 16.1962C26.6701 18.2911 28.2243 20.3066 29.774 22.3266C29.894 22.4836 30.0011 22.6511 30.1256 22.8035C30.3226 23.0446 30.2668 23.2174 30.0441 23.4177C28.7749 24.5628 28.0331 26.0093 27.8065 27.718C27.6872 28.6147 27.5659 29.5186 27.6333 30.4291C27.6711 30.933 27.5197 31.3252 27.1321 31.6516C25.8436 32.7375 24.7161 33.9962 23.5258 35.1879C23.3897 35.3239 23.2755 35.5012 23.067 35.5098Z" fill="#EBA0AE"/>
<path d="M59.4828 34.4991C59.6233 34.6981 59.5624 34.9267 59.5463 35.1343C59.4565 36.28 59.3769 37.4276 59.2377 38.5674C59.1517 39.271 59.1337 39.9785 59.0734 40.682C58.9431 42.2008 58.8815 43.7256 58.7064 45.2411C58.6987 45.3068 58.6807 45.3837 58.7044 45.4382C58.9695 46.0504 58.5915 46.3441 58.1872 46.6936C56.9674 47.7506 55.7764 48.8424 54.5809 49.9289C53.0787 51.294 51.5823 52.6663 50.0858 54.038C49.0873 54.9524 48.103 55.882 47.0949 56.7846C45.9892 57.7752 44.8932 58.779 43.6618 59.6094C43.5354 59.6948 43.4096 59.7815 43.2787 59.859C43.169 59.9247 43.0484 60.0114 42.9251 59.9037C42.8302 59.8202 42.8777 59.6987 42.8899 59.5903C43.1542 57.3292 43.307 55.0575 43.4725 52.7879C43.5194 52.1454 43.7619 51.6822 44.2772 51.2316C45.3264 50.3145 46.2979 49.2937 47.2264 48.2452C48.1139 47.2441 49.0784 46.3237 49.9703 45.3298C52.0019 43.0667 54.149 40.9146 56.1043 38.5766C57.1451 37.3324 58.2001 36.1046 59.1485 34.7842C59.2313 34.6679 59.2909 34.5037 59.4828 34.4991Z" fill="#F8C8D1"/>
<path d="M38.4987 19.8306C38.5084 20.0894 38.3274 20.1 38.1907 20.1315C37.6844 20.2458 37.173 20.3358 36.6673 20.4527C34.868 20.8686 33.1136 21.4112 31.5011 22.3611C31.1083 22.593 31.0076 22.5812 30.7329 22.2192C29.3013 20.3319 27.7754 18.5194 26.4323 16.5618C26.1846 16.1998 25.9773 15.8096 25.7457 15.4358C25.5044 15.0469 25.3087 14.6022 24.7331 14.6481C24.5598 14.6613 24.5322 14.5069 24.5688 14.3637C24.6118 14.1929 24.6696 14.0254 24.7241 13.8572C25.6501 10.9989 26.6845 8.18071 27.6688 5.34345C27.69 5.28104 27.7093 5.21667 27.7362 5.15623C27.9037 4.78178 28.0385 4.74696 28.2791 5.06689C28.7668 5.71593 29.2295 6.38533 29.7043 7.04423C32.6567 11.1421 35.3763 15.4089 38.3043 19.5238C38.38 19.6303 38.4448 19.7452 38.4987 19.8306Z" fill="#EBA0AE"/>
<path d="M26.7298 5.40886C26.8081 5.69068 26.6727 5.88054 26.5944 6.07893C25.6415 8.50298 24.7315 10.9441 23.8858 13.4089C23.6342 14.1427 23.2441 14.73 22.605 15.1852C20.2961 16.8282 18.0104 18.5033 15.717 20.1687C15.2762 20.4886 14.8392 20.8151 14.4022 21.1402C13.8137 21.5784 13.7759 21.5738 13.353 20.9346C12.977 20.3664 12.6061 19.7949 12.2326 19.2247C11.8957 18.7096 11.5582 18.1959 11.1571 17.7275C10.8716 17.3945 10.8786 17.3189 11.2238 17.0331C12.2666 16.1713 13.2978 15.2949 14.3714 14.4711C16.8804 12.5437 19.494 10.7674 22.0371 8.88859C23.4218 7.86511 24.8368 6.883 26.1433 5.75046C26.3005 5.61382 26.4481 5.43186 26.7298 5.40886Z" fill="#EBA0AE"/>
<path d="M53.8375 40.0957C53.7772 40.0386 53.7477 40.0221 53.749 40.0096C53.8991 38.9067 53.6771 37.8096 53.7034 36.7073C53.7426 35.0696 53.5815 33.4384 53.4923 31.8047C53.4564 31.1471 53.5513 30.4809 53.6059 29.8207C53.627 29.5626 53.7945 29.4883 54.0249 29.5987C54.1224 29.6453 54.2148 29.7038 54.3066 29.761C55.9314 30.7759 57.5574 31.7876 59.179 32.8071C59.7854 33.1888 59.7931 33.3793 59.3073 33.9331C57.9643 35.4637 56.634 37.0062 55.289 38.5348C54.8187 39.0696 54.3201 39.5787 53.8375 40.0957Z" fill="#EBA0AE"/>
<path d="M27.7445 37.4777C27.7445 37.7655 27.7592 38.0545 27.7406 38.3403C27.7188 38.672 27.593 38.7331 27.3274 38.5268C26.3802 37.7911 25.4202 37.0737 24.4346 36.3918C24.0637 36.1356 24.056 36.0095 24.3961 35.66C25.0513 34.986 25.6782 34.2818 26.3988 33.6761C26.6818 33.4376 26.9308 33.1565 27.2119 32.9154C27.4602 32.7032 27.5789 32.7649 27.6213 33.1019C27.627 33.1453 27.627 33.19 27.627 33.234C27.6322 34.6497 27.6065 36.066 27.7445 37.4777Z" fill="#EBA0AE"/>
</svg>
