<svg width="159" height="183" viewBox="0 0 159 183" fill="none" xmlns="http://www.w3.org/2000/svg">
<path d="M102.883 143.272C102.883 143.272 37.4058 151.419 13.2043 131.585C-10.9971 111.751 3.03093 101.27 16.0321 102.389C16.0321 102.389 3.43485 96.5503 6.14447 89.132C8.84568 81.7138 22.9995 83.397 22.9995 83.397C22.9995 83.397 7.33945 71.1634 12.5062 60.8473C17.673 50.5312 34.9234 57.5156 34.9234 57.5156C34.9234 57.5156 20.4665 46.3145 30.8926 35.2002C38.4998 27.0879 75.2146 39.7119 91.7668 69.3067C91.7668 69.3067 112.148 126.232 102.883 143.272Z" fill="#97D8DE"/>
<path d="M182.716 82.9803C182.716 82.9803 232.685 73.8442 233.156 89.7825C233.627 105.721 219.01 102.849 219.01 102.849C219.01 102.849 255.531 109.599 254.395 121.147C253.259 132.695 205.605 130.11 205.605 130.11C205.605 130.11 248.589 144.92 243.666 159.245C238.743 173.578 197.603 155.583 197.603 155.583C197.603 155.583 224.547 170.602 219.364 181.109C214.171 191.616 140.574 152.66 140.574 152.66L182.716 82.989V82.9803Z" fill="#97D8DE"/>
<path d="M179.999 28.0944C161.469 12.3384 144.075 44.449 144.075 44.449C146.869 25.3961 131.697 3.44529 116.718 0.929191C101.74 -1.58691 93.1647 12.9457 87.5856 29.9337C73.0193 74.2257 98.7441 153.327 106.966 177.047C108.118 180.379 112.183 181.42 114.724 179.043C138.017 157.214 227.249 68.2652 180.007 28.1031L179.999 28.0944Z" fill="#E05B8B"/>
<path d="M155.789 61.6019C146.154 53.0125 137.116 70.521 137.116 70.521C138.563 60.1269 130.679 48.1538 122.895 46.783C115.111 45.4121 110.651 53.3335 107.748 62.5997C100.174 86.7542 113.546 129.901 117.821 142.837C118.418 144.65 120.53 145.223 121.851 143.922C133.961 132.018 180.352 83.5006 155.789 61.6019Z" fill="#FAE20A"/>
</svg>
