<svg width="64" height="64" viewBox="0 0 64 64" fill="none" xmlns="http://www.w3.org/2000/svg">
<path d="M32.5058 50.5801C31.9134 50.573 31.3721 50.5859 30.8358 50.4834C30.3763 50.3951 30.3247 50.381 30.3291 49.9331C30.3385 48.9819 30.2239 48.0372 30.2202 47.0874C30.2107 44.8113 30.0773 42.5424 29.8853 40.2753C29.823 39.5472 29.789 38.8158 29.7468 38.0856C29.7392 37.9477 29.7392 37.8066 29.76 37.6713C29.7972 37.4232 29.9489 37.3349 30.1786 37.4167C30.4184 37.5018 30.6237 37.6519 30.8282 37.8021C31.5351 38.3215 32.2376 38.8493 33.0339 39.2217C33.8749 39.6142 34.746 39.8397 35.6796 39.6825C36.1712 39.6 36.5917 39.3674 36.9681 39.0432C37.116 38.9156 37.2551 38.7771 37.4062 38.6546C38.3907 37.8575 39.3286 37.8762 40.2917 38.7081C40.4396 38.8357 40.5938 38.9562 40.7354 39.0903C41.9264 40.2103 43.3635 40.5421 44.9252 40.4416C45.5786 40.3997 46.1678 40.1432 46.6651 39.705C47.5004 38.9698 48.15 38.0959 48.4861 37.005C48.6196 36.5706 48.7442 36.1344 48.8776 35.7C48.9979 35.3076 49.215 34.986 49.5795 34.7953C49.8961 34.6297 50.0749 34.6954 50.2442 35.0137C50.3569 35.2264 50.4186 35.4558 50.4148 35.6968C50.3984 36.7459 50.5652 37.7899 50.5124 38.8396C50.4255 40.5769 50.3934 42.3168 50.2209 44.0496C50.1208 45.053 50.0308 46.0576 49.9773 47.0642C49.9547 47.4934 49.7583 47.6989 49.3944 47.8375C48.4143 48.2106 47.411 48.507 46.3925 48.7377C44.7131 49.1179 43.0412 49.5361 41.3379 49.792C40.3068 49.9473 39.2713 50.0658 38.227 50.1161C36.8 50.1851 35.3761 50.3223 33.9586 50.5085C33.4563 50.5749 32.9558 50.5659 32.5058 50.5801Z" fill="#CE377A"/>
<path d="M27.1658 30.8738C27.5422 31.1109 28.1509 31.3184 28.6576 31.4673C27.6334 32.8148 26.6609 34.1983 25.8351 35.6856C25.1477 36.9248 24.4565 38.1576 23.5671 39.2679C23.1076 39.8401 22.886 40.5496 22.6953 41.2572C22.6021 41.6026 22.5033 41.9441 22.3377 42.2592C21.9978 42.9081 21.3482 43.048 20.7829 42.5943C20.5204 42.3823 20.3467 42.0942 20.156 41.821C19.7109 41.1792 19.3635 41.1321 18.7863 41.6767C18.345 42.0923 17.9415 42.5479 17.5072 42.9694C17.0703 43.3953 16.607 43.7768 16.0002 43.9353C15.073 44.1789 14.1231 43.7807 13.6164 42.9101C13.2853 42.3398 13.0946 41.7173 13.0556 41.0542C12.9725 39.6687 13.2048 38.3335 13.7159 37.0498C13.9765 36.3906 14.4051 35.9395 15.0195 35.5413C16.5944 34.516 18.3658 34.0179 20.0735 33.3483C22.4076 32.4371 24.7983 31.6896 27.1658 30.8738Z" fill="#EBA0AE"/>
<path d="M39.371 27.323C39.3193 27.9925 39.1909 28.6537 39.0235 29.3058C38.8724 29.8948 38.5287 30.266 37.9616 30.4522C36.9229 30.7892 35.851 30.9375 34.7783 31.0773C34.108 31.1662 33.4357 31.2403 32.7628 31.3015C31.8563 31.3866 30.9707 31.2339 30.0913 31.0457C30.0831 31.0412 30.0724 31.0393 30.0598 31.0393C29.9069 31.0071 29.7539 30.9716 29.6047 30.9271C29.5884 30.9207 29.5714 30.9162 29.5531 30.9123C28.9236 30.719 27.953 30.3781 27.8724 30.3485C27.8687 30.3465 27.8661 30.3465 27.8661 30.3465C27.8661 30.3465 27.8642 30.3465 27.8624 30.344C27.8498 30.3382 27.8397 30.3317 27.8271 30.3253C27.2826 30.0282 26.7923 29.7595 26.2975 29.4946C25.6831 29.164 25.629 29.0223 25.7637 28.3121C25.9337 27.4229 26.3869 26.6876 26.9849 26.058C27.4154 25.605 27.7465 25.1365 27.8705 24.503C28.009 23.8103 28.5327 23.3566 28.9589 22.8482C29.0892 22.6935 29.2573 22.698 29.4354 22.785C31.811 23.9778 34.4019 24.2105 36.9683 24.552C37.5065 24.6216 38.0421 24.6744 38.5866 24.679C39.0336 24.6828 39.1041 24.7595 39.2344 25.2003C39.4433 25.8969 39.427 26.6135 39.371 27.323Z" fill="#40BBC8"/>
<path d="M29.0982 21.1321C29.0838 21.3925 29.0737 21.6998 29.0901 21.9286C28.5789 22.285 28.2082 22.7657 27.9186 23.3205C27.7946 23.5622 27.7197 23.8354 27.4943 24.0854C27.2419 23.8399 27.043 23.6195 26.7761 23.4945C26.2669 23.2593 26.0661 22.787 25.9087 22.2933C25.7847 21.9035 25.8489 21.7997 26.236 21.6998C27.0248 21.4988 27.821 21.3441 28.6242 21.2191C28.7835 21.1933 28.939 21.1489 29.0982 21.1321Z" fill="#EBA0AE"/>
<path d="M40.407 14.5133C40.3239 16.6256 40.2062 18.738 40.1791 20.8542C40.169 21.6804 40.1149 22.511 40.0941 23.3417C40.0759 24.0789 39.7303 24.3566 38.9976 24.2677C38.1138 24.1613 37.2326 24.0518 36.3633 23.8501C35.0055 23.5369 33.6232 23.3732 32.249 23.1574C31.3029 23.0091 30.4066 22.7572 29.7242 22.0322C29.7242 22.0322 29.5751 21.4838 29.5234 20.9561C29.604 20.8716 29.66 20.7614 29.7054 20.6255C29.9685 19.8354 30.3776 19.1131 30.7522 18.3778C30.9492 17.9898 31.0568 17.9795 31.3571 18.2843C32.0168 18.9519 32.6689 19.6279 33.321 20.3033C34.1091 21.1191 34.9746 21.8479 35.8225 22.598C36.0089 22.7636 36.2122 22.9666 36.4854 22.7933C36.6591 22.6831 36.5634 22.4794 36.2449 22.1063C35.1112 20.7763 33.7717 19.6679 32.5015 18.486C32.2012 18.2064 31.9154 17.9093 31.6196 17.6277C31.4043 17.4221 31.3653 17.1998 31.51 16.9369C31.872 16.2822 32.2258 15.6255 32.5864 14.9689C32.6645 14.8271 32.7746 14.7614 32.915 14.8864C33.2197 15.1596 33.5218 15.4348 33.8215 15.7144C33.987 15.8672 33.9895 16.0134 33.7887 16.1423C33.6433 16.2377 33.4985 16.3395 33.3556 16.4413C33.2109 16.5451 33.0598 16.6443 33.1901 16.8692C33.3021 17.0619 33.445 17.1702 33.6666 17.0877C33.8674 17.011 34.0739 16.9453 34.252 16.8331C34.631 16.5915 34.9249 16.6237 35.2913 16.924C36.1788 17.6554 37.1369 18.2908 38.0043 19.0538C38.1717 19.2 38.3624 19.4159 38.6004 19.1704C38.7552 19.0132 38.6728 18.7676 38.3769 18.5305C37.7248 18.0047 37.0582 17.4943 36.4023 16.973C36.1744 16.7906 35.9598 16.5895 35.742 16.3949C35.5953 16.2609 35.5991 16.1172 35.7527 15.996C36.2267 15.6191 36.7044 15.2524 37.1784 14.8774C37.3339 14.7549 37.4598 14.8097 37.5926 14.9199C37.7292 15.0281 37.8696 15.1383 38.0206 15.2208C38.1447 15.2866 38.2919 15.2911 38.3851 15.1532C38.4594 15.0468 38.4323 14.9263 38.3662 14.8206C38.3354 14.7697 38.2957 14.7253 38.2611 14.6808C37.8903 14.2104 37.8922 14.2123 38.2857 13.7335C38.4575 13.5215 38.6249 13.3037 38.7886 13.0807C38.8566 12.986 38.9107 12.8649 38.7968 12.763C38.6954 12.6703 38.5689 12.6999 38.4802 12.7779C38.2586 12.9686 38.0477 13.1722 37.8368 13.3752C37.3748 13.816 37.2779 13.8225 36.8202 13.4178C36.2078 12.8732 35.589 12.3352 34.9847 11.7803C34.6435 11.4684 34.641 11.4182 34.8853 11.0347C35.8786 9.47721 36.8536 7.90742 37.959 6.42851C38.2214 6.07666 38.5217 5.7783 38.9151 5.58498C39.1442 5.47092 39.3885 5.41807 39.6453 5.42645C40.0985 5.44127 40.2767 5.60624 40.3119 6.06377C40.3264 6.26096 40.3201 6.46008 40.3157 6.65727C40.3056 7.05552 40.3138 7.44538 40.4756 7.82043C40.5788 8.05951 40.5454 8.32694 40.5536 8.58341C40.6222 10.5643 40.4856 12.5388 40.407 14.5133Z" fill="#F1A470"/>
<path d="M51.012 28.924C50.9906 29.1424 51.0057 29.3706 50.9415 29.5723C50.7716 30.111 50.5607 30.6246 50.6167 31.2232C50.6469 31.5429 50.3851 31.7916 50.1314 31.992C49.6775 32.3503 49.1576 32.5623 48.61 32.6944C47.3472 32.9986 46.0656 33.1777 44.7696 33.2248C43.9034 33.2557 43.0385 33.3111 42.1686 33.2409C41.3937 33.1784 40.6358 33.0637 39.8943 32.8246C38.3515 32.3271 38.3534 31.115 39.0855 29.9067C39.1056 29.8739 39.1308 29.8397 39.1616 29.8178C39.8282 29.3499 39.9812 28.6347 40.1298 27.8794C40.43 26.3534 41.0626 24.9976 42.2341 23.944C42.9907 23.2635 43.8996 22.882 44.808 22.4934C45.0295 22.3994 45.2631 22.4329 45.4928 22.4896C47.2472 22.9245 48.6918 23.8345 49.7474 25.3591C50.3366 26.2091 50.8037 27.1093 50.9421 28.1571C50.9755 28.4117 50.9894 28.6682 51.012 28.924Z" fill="#40BBC8"/>
<path d="M43.9041 39.6445C42.552 39.5975 41.4404 39.0182 40.4817 38.0883C40.0889 37.7074 39.7213 37.2963 39.3077 36.9412C38.6254 36.3561 38.1986 36.4199 37.6572 37.1339C37.3973 37.4774 37.1593 37.8376 36.8591 38.1508C36.2057 38.8332 35.4226 39.0369 34.5238 38.8648C33.7684 38.7198 33.103 38.3589 32.4597 37.9517C31.8044 37.5373 31.2203 37.0018 30.4826 36.7254C30.2616 36.6422 30.2182 36.4528 30.2528 36.2388C30.4775 34.8534 30.706 33.4685 30.9282 32.083C30.9805 31.7557 31.1939 31.6809 31.4721 31.679C32.206 31.6745 32.9369 31.6307 33.6702 31.5785C34.9052 31.4921 36.1302 31.3426 37.3532 31.1583C37.8297 31.0861 37.8492 31.0752 38.0312 31.4863C38.4271 32.3814 39.1447 32.875 40.0001 33.214C40.6926 33.4885 41.4215 33.5794 42.1485 33.6844C43.6303 33.8983 45.119 33.8281 46.6058 33.7952C47.105 33.7843 47.601 33.6696 48.1001 33.6109C48.4558 33.5697 48.5332 33.6496 48.4331 34.0008C48.2594 34.6104 48.1644 35.2355 48.0479 35.8567C47.9308 36.4824 47.7313 37.083 47.4165 37.634C46.6316 39.0111 45.4167 39.6078 43.9041 39.6445Z" fill="#EBA0AE"/>
<path d="M29.658 50.0598C29.658 50.2318 29.6543 50.3511 29.6587 50.469C29.6694 50.7164 29.575 50.8833 29.3364 50.9665C28.2178 51.3563 27.183 51.9473 26.0852 52.388C25.5249 52.6129 24.9471 52.7695 24.356 52.8817C23.6995 53.006 23.5641 52.9158 23.6302 52.2546C23.7524 51.029 23.741 49.7994 23.6869 48.577C23.6258 47.2147 23.6384 45.8492 23.5207 44.4876C23.4408 43.5616 23.4697 42.6285 23.4981 41.6986C23.5106 41.2939 23.6491 40.9272 23.8657 40.5883C24.594 39.4444 25.3726 38.3348 26.0405 37.151C26.6404 36.089 27.2346 35.0238 27.8313 33.9599C27.8892 33.8568 27.9434 33.7517 28.0063 33.6519C28.1265 33.4624 28.2688 33.2845 28.52 33.3593C28.7648 33.4321 28.8133 33.6589 28.8234 33.8825C28.8586 34.6726 28.8964 35.4633 28.9253 36.2527C28.9883 37.9726 29.1236 39.6874 29.213 41.4054C29.3446 43.9328 29.4824 46.4601 29.5592 48.9901C29.5705 49.3651 29.6272 49.7382 29.658 50.0598Z" fill="#CE377A"/>
<path d="M22.5729 46.0478C22.4351 48.2201 22.4703 50.3957 22.4666 52.5699C22.4659 53.1351 22.4099 53.1853 21.8497 53.0745C19.5899 52.6298 17.3672 52.0357 15.1855 51.2869C14.6725 51.111 14.1658 50.9176 13.6515 50.7462C13.316 50.6341 13.1668 50.4279 13.1422 50.0548C13.0805 49.1275 13.0396 48.2002 13.0314 47.2709C13.0233 46.421 12.8766 45.5768 12.9232 44.7249C12.9383 44.4549 12.864 44.1294 13.1378 43.9664C13.433 43.7905 13.6301 44.0888 13.8567 44.2158C14.06 44.3292 14.252 44.4652 14.461 44.5663C15.6173 45.1283 16.5011 45.1289 17.7865 44.1004C18.1358 43.8208 18.431 43.4747 18.6772 43.0913C18.73 43.0082 18.7848 42.9263 18.8433 42.8484C19.4061 42.1002 20.1514 42.0873 20.7362 42.8226C20.8941 43.0211 21.0219 43.2447 21.168 43.4535C21.348 43.7119 21.5349 43.8704 21.895 43.7338C22.2444 43.6017 22.3835 43.7196 22.464 44.0966C22.6025 44.7403 22.549 45.3957 22.5729 46.0478Z" fill="#CE377A"/>
<path d="M32.7796 51.7565C35.2075 51.8119 37.5976 51.5097 39.9593 50.9542C41.9182 50.4928 43.8866 50.0997 45.8852 49.8574C47.0591 49.7156 48.2048 49.4237 49.2585 48.8399C49.3265 48.8025 49.3976 48.7696 49.4706 48.7451C49.6286 48.6917 49.7444 48.7265 49.7438 48.923C49.7407 49.6596 49.6192 50.3794 49.4146 51.0824C49.3523 51.2957 49.1691 51.4362 48.9941 51.5612C48.2967 52.0606 47.5866 52.5323 46.7859 52.8533C45.5446 53.3507 44.3235 53.9017 43.0758 54.3805C41.1289 55.1267 39.102 55.545 37.0399 55.7608C35.2862 55.9445 33.5318 55.9606 31.8033 55.5127C31.6327 55.4689 31.4634 55.438 31.2884 55.4837C30.9586 55.5694 30.7741 55.3884 30.6564 55.108C30.5488 54.8522 30.4802 54.579 30.4732 54.3025C30.4556 53.5711 30.4474 52.8391 30.4575 52.107C30.4632 51.7359 30.5305 51.6766 30.8685 51.7114C31.5049 51.7777 32.1426 51.7371 32.7796 51.7565Z" fill="#98D4DA"/>
<path d="M19.6588 27.2888C19.0601 27.2843 18.4596 27.3198 17.8705 27.1722C17.7395 27.1393 17.6061 27.1136 17.4777 27.0717C16.2477 26.6734 15.8624 25.7725 16.4025 24.5752C16.5209 24.313 16.677 24.0874 16.9539 24.0011C17.4034 23.8612 17.4777 23.5261 17.4311 23.1156C17.331 22.2425 17.4317 21.3809 17.5866 20.5251C17.686 19.9767 17.9151 19.4812 18.1971 18.9985C19.0035 17.6156 20.9517 16.9912 22.6198 18.1447C23.5395 18.7807 24.0663 19.7196 24.5044 20.7204C24.8204 21.4434 25.0691 22.1948 25.2189 22.9732C25.2793 23.2909 25.4115 23.4772 25.7439 23.483C25.8383 23.4842 25.9352 23.5126 26.0259 23.5435C26.6729 23.7646 26.8964 24.5011 26.3677 24.9348C25.8578 25.353 25.5418 25.8093 25.3907 26.4524C25.3013 26.8307 24.9211 26.9576 24.5699 27.0233C24.2476 27.0839 23.919 27.1509 23.5942 27.1451C22.2793 27.1219 20.9718 27.2817 19.6588 27.2888Z" fill="#40BBC8"/>
<path d="M14.6798 31.3505C14.7069 30.2725 15.0688 29.2988 15.5957 28.3863C16.4404 26.9235 16.2761 27.2018 17.5036 27.6458C19.2604 28.2806 21.0488 28.3805 22.8698 28.1072C23.5018 28.0125 24.1105 27.8115 24.6777 27.497C24.7286 27.4686 24.7777 27.4351 24.8319 27.4158C25.1775 27.2953 25.3764 27.4609 25.2612 27.8211C25.107 28.3025 25.1491 28.7542 25.321 29.2098C25.4198 29.4715 25.5746 29.6964 25.7515 29.9084C25.885 30.0675 25.8604 30.1971 25.6521 30.2596C25.5035 30.304 25.3537 30.342 25.2039 30.3814C23.4452 30.8395 21.6776 31.2636 19.9352 31.7881C18.8771 32.1064 17.8504 32.5105 16.8238 32.9165C16.6796 32.9738 16.538 33.0376 16.3919 33.0885C15.6095 33.3643 15.1897 33.1749 14.8768 32.3926C14.744 32.0613 14.6766 31.7121 14.6798 31.3505Z" fill="#EBA0AE"/>
<path d="M22.5612 56.8864C22.5612 57.411 22.5807 57.7886 22.5562 58.163C22.5259 58.6115 22.2924 58.79 21.8574 58.7385C21.7624 58.7275 21.6648 58.7062 21.5761 58.6695C19.9074 57.9819 18.1398 57.5843 16.4837 56.8587C15.7913 56.5552 15.1032 56.2388 14.4058 55.9475C13.8777 55.7265 13.6498 55.3534 13.619 54.7625C13.5717 53.8558 13.4477 52.9536 13.3552 52.0495C13.3451 51.9509 13.3174 51.8542 13.313 51.7563C13.3055 51.5881 13.3779 51.4876 13.5573 51.5211C13.6517 51.5391 13.743 51.5739 13.8355 51.6029C15.2417 52.0392 16.6278 52.5328 17.9919 53.096C18.8328 53.444 19.7059 53.7114 20.5645 54.0143C20.9605 54.1535 21.3595 54.138 21.7668 54.0665C22.3421 53.966 22.4536 54.042 22.4447 54.6072C22.4322 55.4204 22.6411 56.2201 22.5612 56.8864Z" fill="#98D4DA"/>
<path d="M29.9997 54.9527C30.1716 55.619 29.7599 55.9985 29.1034 56.3201C27.6411 57.0367 26.2122 57.8229 24.7676 58.5775C24.5617 58.6851 24.3521 58.7895 24.1337 58.8668C23.6131 59.0518 23.3947 58.9061 23.379 58.3564C23.3689 57.982 23.3783 57.6051 23.4035 57.2313C23.4652 56.3259 23.5445 55.4218 23.6106 54.517C23.6465 54.0331 23.6629 53.9873 24.111 53.8514C25.7993 53.3384 27.4302 52.6766 29.0152 51.8949C29.0505 51.8782 29.0851 51.8614 29.121 51.846C29.646 51.6204 29.7228 51.6662 29.7593 52.2294C29.8147 53.0955 29.9878 53.9513 29.9997 54.9527Z" fill="#98D4DA"/>
<path d="M34.9267 15.5059C34.7145 15.5046 34.5937 15.404 34.4823 15.2938C34.1203 14.9381 33.764 14.5753 33.4008 14.2203C33.2252 14.0495 33.1635 13.8755 33.3039 13.6455C33.5601 13.2266 33.8049 12.8013 34.0542 12.3779C34.1984 12.133 34.3576 12.1234 34.5704 12.307C35.2187 12.8676 35.8835 13.4102 36.5287 13.9747C36.8107 14.2209 36.7981 14.286 36.5199 14.5238C36.1176 14.8679 35.6619 15.1295 35.2093 15.3937C35.1111 15.4511 34.9959 15.4788 34.9267 15.5059Z" fill="#F1A470"/>
<path d="M40.0156 25.9136C40.0521 25.6855 40.0723 25.4529 40.1277 25.2293C40.3795 24.2124 40.6029 23.1897 40.7949 22.1593C40.9013 21.5897 40.9856 21.5381 41.5452 21.6908C42.2685 21.8887 42.9829 22.1181 43.727 22.4429C43.3965 22.8211 42.9653 22.9262 42.6468 23.1955C42.3195 23.472 41.9827 23.7368 41.651 24.0088C41.3325 24.2691 41.036 24.5539 40.7993 24.8935C40.5576 25.2396 40.3348 25.5985 40.1038 25.9517C40.0742 25.9388 40.0452 25.9265 40.0156 25.9136Z" fill="#EBA0AE"/>
</svg>
