<svg width="18" height="18" viewBox="0 0 18 18" fill="none" xmlns="http://www.w3.org/2000/svg">
<path d="M1.99288 2.9998C3.05411 2.89393 6.09375 1.00011 6.09375 2.9998C8.99794 1.00014 10 2.49998 11.4979 2.4998C13 1.5 15.7141 1.3998 17.097 4.9998C17.481 5.99947 15.3187 7.30102 13.9979 7.30007L8.99794 7.99988L3.99794 7.4998L2.49794 7.30007C-1.00237 6.50007 -0.00446117 3.4998 1.99288 2.9998ZM0.597218 7.30007C2.31359 8.14947 4.19988 9.06256 5.79303 7.99988C7.58681 9.20156 9.59722 10.1095 11.3971 7.99988C12.9902 9.06256 15.3807 7.34947 17.0971 6.50007V15.7001C17.3971 17.5001 17.0199 17.5001 15.657 17.5001C14.5975 17.5001 13.293 17.4999 11.293 17.4999C10.293 17.4999 10.9474 17.4999 9.29303 17.4999C8.42296 17.4999 9.29303 17.4999 7.79303 17.4999C6.29303 17.4999 7.05145 17.5001 5.39709 17.5001H1.657C0.28579 17.5001 0.156991 17.3001 0.297088 15.7001L0.597218 7.30007Z" fill="#584340"/>
<circle cx="6.5" cy="1.5" r="0.5" fill="#584340"/>
<circle cx="8.5" cy="0.5" r="0.5" fill="#584340"/>
<circle cx="10.5" cy="1.5" r="0.5" fill="#584340"/>
</svg>
