<svg width="78" height="48" viewBox="0 0 78 48" fill="none" xmlns="http://www.w3.org/2000/svg">
<path d="M9.19751 47.8071C6.11478 48.4783 2.26333 47.2014 0.689285 44.3801C-0.113427 42.9353 1.35865 42.3297 2.29732 41.5247C2.63201 41.2546 3.13403 40.4156 3.63605 40.4838C4.20605 40.5519 4.50674 41.6584 4.84143 42.0622C5.74611 43.1372 7.42213 43.7429 8.72687 42.9694C10.2355 42.0622 9.93224 40.316 8.69288 39.3406C7.41952 38.3337 5.57616 37.964 4.20344 37.2246C2.76274 36.4511 1.1547 35.2083 0.451347 33.6639C-0.688661 31.1442 0.417356 27.7854 2.79673 26.3747C5.51079 24.7963 9.36224 24.3584 11.875 26.6107C12.7117 27.3842 14.4217 29.1304 13.449 30.2396C13.0124 30.7771 12.2436 31.0786 11.6736 31.4483C10.8683 31.9517 10.735 32.054 10.0656 31.3801C8.89421 30.2055 7.65223 29.0282 5.81148 29.668C3.66743 30.4074 5.20748 32.4237 6.58281 32.9927C9.79889 34.3692 14.7564 36.2518 14.7564 40.5179C14.7564 44.013 12.6803 47.0703 9.1949 47.8071H9.19751Z" fill="#F4F9FF"/>
<path d="M14.9609 26.4088C14.9609 25.0663 16.2997 25.3338 17.3403 25.4019C20.0884 25.5697 22.7998 25.4701 25.5479 25.5357C26.5519 25.5357 27.9612 25.0978 28.9313 25.4019C29.8699 25.7035 29.6346 27.0145 29.6006 27.788C29.5666 28.9967 29.7 29.6024 28.4292 29.6365C27.6919 29.6365 26.9546 29.6706 26.2172 29.6706C25.9165 29.7047 24.7425 29.5368 24.5098 29.7702C24.3085 29.9721 24.5438 30.5096 24.5778 30.7771C24.5778 31.3487 24.4105 31.9517 24.4105 32.5233C24.4105 34.1018 24.4444 35.7143 24.4784 37.2613C24.5124 40.0485 24.3111 42.9065 24.4784 45.6937C24.5124 46.3308 24.7478 47.2066 24.1777 47.5763C23.8771 47.8123 23.2731 47.6445 22.9044 47.6445C22.201 47.6445 21.4637 47.7782 20.7943 47.7126C19.8217 47.5789 19.9576 46.8054 19.989 45.9323C20.023 44.6895 19.989 43.4125 20.023 42.1356C20.1224 38.9446 20.091 35.7196 20.023 32.5286C20.023 31.8573 20.2243 30.8819 20.057 30.2107C19.8896 29.5054 19.6543 29.6391 18.917 29.6732C18.381 29.6732 15.0655 30.0429 15.0655 29.3717C15.0655 28.4644 14.9662 27.3894 14.9662 26.414L14.9609 26.4088Z" fill="#F4F9FF"/>
<path d="M46.3135 39.5764C46.3815 41.4905 46.2795 43.8083 45.1421 45.4209C44.0021 47.0675 41.7247 47.8384 39.8159 47.9747C37.8732 48.0743 35.4285 47.9065 33.7185 46.9338C31.7757 45.7906 31.1378 43.8765 30.9704 41.7605C30.7691 39.3745 30.8711 36.957 30.8371 34.6051C30.8031 32.2872 30.7037 29.7334 31.9771 27.717C33.1825 25.7689 35.7292 25.1973 37.9072 25.0976C39.0132 25.0636 40.3859 25.1658 41.492 25.4333C45.278 26.4401 46.3161 29.028 46.2481 32.6228C46.2481 34.9407 46.2481 37.2926 46.3161 39.5764H46.3135ZM40.216 29.9693C38.7753 29.3322 36.8326 29.3977 35.9279 30.8425C34.9892 32.3213 35.5252 33.7319 35.4599 35.3104C35.3919 36.9911 35.2245 38.7033 35.3605 40.384C35.5958 43.1056 38.4092 44.5504 40.6526 42.77C41.7927 41.8969 41.892 40.5203 41.858 39.1752C41.79 37.193 41.79 35.1767 41.79 33.1944C41.79 31.8834 41.4554 30.5409 40.216 29.9693Z" fill="#F4F9FF"/>
<path d="M60.117 43.4074C60.5537 44.4824 61.0217 45.5234 61.4898 46.5643C62.0598 47.7416 61.5237 47.7075 60.4517 47.7075C59.9157 47.7075 59.3797 47.8412 58.8437 47.7757C58.577 47.7416 57.8396 47.676 57.6043 47.6079C56.867 47.3378 56.6003 45.9612 56.2656 45.29C55.7636 44.3487 55.4603 43.2737 54.8929 42.3665C54.5242 41.7293 53.3188 41.3596 52.8822 42.2327C52.6808 42.7021 52.9162 43.7456 52.8822 44.2491C52.8822 45.0226 52.9162 45.7934 52.9162 46.5669C52.9502 47.7442 52.5135 47.6079 51.3761 47.6079C50.8741 47.6079 49.0307 47.9776 48.6281 47.6419C48.1914 47.2722 48.5287 47.0048 48.5601 46.5669C48.5941 45.9953 48.4921 45.3923 48.4921 44.8207C48.4581 43.3759 48.4921 41.9312 48.4921 40.4865C48.4921 37.8671 48.4581 35.2451 48.4581 32.6257C48.4921 31.451 48.5261 30.3419 48.5914 29.1646C48.6254 28.2574 48.3248 27.1483 48.4921 26.2411C48.7274 25.2001 50.1341 25.4676 51.0388 25.4335C52.3122 25.3994 53.7869 25.3994 54.9922 25.3994C58.8437 25.4991 61.2571 27.1798 61.6257 31.1783C61.6937 32.5234 61.6937 33.9 61.6597 35.2424C61.5917 37.5262 61.0897 40.0119 58.9457 41.0214C58.9796 41.2233 59.0136 40.9873 58.9457 41.0214C59.0136 41.7949 59.8163 42.7021 60.117 43.4074ZM56.2316 30.3052C55.4943 29.9014 54.2889 29.6995 53.4522 29.8673C52.3122 30.1033 52.9502 31.6477 52.9841 32.6231C53.0181 33.8318 52.8848 35.0432 52.8848 36.2178C52.9188 37.1251 52.7514 37.4948 53.7555 37.4607C54.4928 37.4607 55.4969 37.361 56.1688 37.091C56.9402 36.7894 57.1729 36.2178 57.2409 35.4443C57.3742 34.5371 57.3742 33.4621 57.3742 32.5208C57.3742 31.4799 57.1729 30.7745 56.2342 30.3026L56.2316 30.3052Z" fill="#F4F9FF"/>
<path d="M64.441 37.1593C64.3416 35.2767 64.3416 33.3627 64.373 31.5141C64.407 30.4391 64.4409 29.3982 64.373 28.3231C64.339 27.5837 64.0043 26.0394 64.6083 25.4678C65.445 24.7625 67.7564 25.4678 68.6951 25.4678C70.6378 25.4337 72.5805 25.5019 74.4919 25.5019C74.9939 25.5019 75.6972 25.2003 76.1339 25.6697C76.5365 26.0394 76.3692 26.9125 76.3692 27.4159C76.3352 29.0285 76.5705 29.9698 74.5938 29.7338C72.9858 29.566 71.4117 29.7338 69.8037 29.6342C69.0324 29.566 68.899 29.4323 68.7657 30.2713C68.5983 31.2467 68.7317 32.3873 68.7317 33.3627C68.7317 34.1702 68.6637 34.1021 69.401 34.2017C70.005 34.2699 70.9097 34.3013 71.5451 34.2699C72.2484 34.2358 73.3205 33.9002 74.0238 34.1361C74.8945 34.4377 74.7612 35.1115 74.7272 35.9506C74.6932 37.0938 75.1952 38.5044 73.6551 38.5385C72.5491 38.5726 69.2991 37.6995 68.6977 38.7745C68.431 39.2124 68.5303 40.6886 68.5303 41.2602C68.4963 41.6639 68.5643 42.8727 68.831 43.2424C68.9644 43.4102 69.7017 43.342 70.1698 43.3761C71.4091 43.4443 72.3478 43.4443 73.4852 43.3761C74.1546 43.342 75.1272 43.0746 75.7626 43.3079C76.5993 43.6436 76.432 44.5508 76.432 45.3584C76.398 45.93 76.5993 47.3747 76.0293 47.6762C75.5926 47.8781 74.2539 47.608 73.7859 47.608C73.1505 47.574 64.373 48.0118 64.373 47.3065C64.373 43.9477 64.5743 40.5207 64.441 37.162V37.1593Z" fill="#F4F9FF"/>
<path d="M28.0897 5.54556C28.176 5.2886 28.9212 2.99434 28.5316 1.59943C28.4427 1.20613 28.2754 0.854776 28.0374 0.555867C27.7786 0.235981 27.4073 0.0524403 26.9288 0.0131101C26.8556 0.00524403 26.785 0 26.717 0C26.4738 0 26.2411 0.0471962 26.0241 0.138967C25.7653 0.249091 25.5142 0.398546 25.2815 0.582087C25.0541 0.760384 24.837 0.970145 24.6409 1.19826C24.4501 1.41851 24.2749 1.6204 24.1049 1.81181C23.5846 2.48567 22.9126 3.37715 22.1021 4.46004C21.268 5.57964 20.4025 6.75431 19.5344 7.95257C18.6454 9.17967 17.7303 10.4461 16.8125 11.7204C15.9 12.9895 15.0738 14.1458 14.3338 15.1867C13.6618 16.1306 13.0918 16.9487 12.6395 17.6225C12.7441 17.3027 12.8565 16.9749 12.9768 16.6367C13.3088 15.7032 13.654 14.7541 14.007 13.7839L15.0685 10.8735C15.4215 9.90596 15.73 8.9804 15.9863 8.11513C16.2425 7.24987 16.4229 6.45277 16.5301 5.75007C16.6373 5.0264 16.6295 4.4312 16.5014 3.97759C16.3942 3.64198 16.1902 3.41911 15.8895 3.31947C15.8712 3.31422 15.7666 3.28276 15.5862 3.28276C15.2045 3.28276 14.5874 3.41124 13.8109 4.01692C12.8434 4.77206 11.8969 5.72123 11.5335 6.09356C10.6026 7.05059 9.71624 8.07842 8.89522 9.15083C8.65467 9.47858 8.43503 9.7906 8.23632 10.0816C9.06518 7.4203 9.30311 6.70449 9.35541 6.58388C9.61165 5.97295 9.82867 5.32531 9.99862 4.66456C10.1738 3.99333 10.247 3.34307 10.2209 2.73738C10.1921 2.08188 9.93326 1.57583 9.44431 1.23497C9.12009 1.00947 8.77495 0.894107 8.41935 0.894107C8.31214 0.894107 8.20494 0.904594 8.09512 0.925571C7.65585 1.00947 7.22443 1.17466 6.81392 1.41589C6.41387 1.64925 6.0269 1.9298 5.65823 2.24707C5.60855 2.28902 5.37061 2.49353 5.37061 2.49353C4.68556 3.07562 3.25793 4.28961 2.66701 4.89268C2.1676 5.40135 0.938695 6.66778 0.295479 7.49109C-0.0261289 7.90275 -0.067964 8.38258 0.198735 8.60545C0.292864 8.68673 0.410526 8.72606 0.551719 8.72606C1.01714 8.72606 1.68127 8.2777 2.53105 7.39146C3.32069 6.52619 4.06064 5.77892 4.73262 5.16537L6.16286 3.8596C6.72764 3.34569 7.16429 3.05202 7.46237 2.98909C7.53035 2.97336 7.59049 2.96812 7.6454 2.96812C7.83104 2.96812 7.90687 3.0494 7.95393 3.1202C8.07159 3.30111 8.11866 3.59478 8.09512 3.98808C8.06898 4.41285 7.98008 4.87432 7.83365 5.3594C7.3787 6.8251 6.84268 8.29605 6.24653 9.73291L4.43978 14.0881C3.83578 15.5407 3.26055 17.0195 2.72715 18.4852C2.19114 19.9588 1.75187 21.4769 1.42764 22.9846C1.4015 23.058 1.38581 23.1366 1.38319 23.2127C1.32567 23.4854 1.37535 23.7109 1.54008 23.8839C1.61852 23.9678 1.67604 24.0308 1.82508 24.0308C1.82508 24.0308 1.85122 24.0308 1.87737 24.036C1.93228 24.0465 1.9898 24.0491 2.04733 24.0491C2.18329 24.0491 2.32449 24.0229 2.46568 23.9731C2.68531 23.8918 2.85004 23.7423 2.95986 23.5221C3.31807 22.7905 3.65014 22.0328 3.97175 21.2986C4.36395 20.4019 4.76923 19.4763 5.22941 18.5822C6.06089 16.9644 6.97342 15.3571 7.93824 13.8075C8.94229 12.195 10.0614 10.7398 11.1229 9.40778C12.242 7.99976 13.3637 6.67302 14.7704 5.90215C14.6371 6.44229 14.4567 7.02175 14.2371 7.62744C13.9494 8.41666 13.6304 9.26095 13.2931 10.1393C12.9532 11.0229 12.5924 11.938 12.2263 12.8636C11.8524 13.8023 11.5047 14.7462 11.1935 15.6718C10.8772 16.6131 10.6079 17.5439 10.3908 18.4406C10.1712 19.3505 10.0431 20.2367 10.0117 21.0784C10.0039 21.2776 10.0561 21.4559 10.166 21.6133C10.2679 21.7601 10.3987 21.8728 10.5529 21.9489C10.6837 22.0144 10.8223 22.0485 10.9661 22.0485C10.9974 22.0485 11.0288 22.0485 11.0628 22.0433C11.2511 22.0223 11.4184 21.9384 11.5596 21.7863C12.7362 20.4569 13.7873 19.1826 14.6789 17.9923C15.5653 16.8097 16.4203 15.6193 17.223 14.4499C18.0467 13.2517 18.8677 12.0429 19.6652 10.8551C20.4862 9.63065 21.4327 8.29343 22.4734 6.8723C22.6851 6.58388 22.9205 6.2535 23.1767 5.88904C23.4329 5.52196 23.7127 5.1339 24.0082 4.73536L24.858 3.58954C25.122 3.23556 25.3731 2.92879 25.5979 2.68494C25.679 2.61153 25.7757 2.51713 25.8881 2.40439C25.9797 2.30999 26.0842 2.23396 26.1941 2.17103C26.296 2.11596 26.3954 2.08188 26.5104 2.06877C26.5549 2.06877 26.5889 2.0845 26.615 2.1081C26.6673 2.17627 26.7013 2.27329 26.7222 2.40439C26.8059 2.73738 26.785 3.50039 26.2098 5.24403C25.9849 5.92575 25.6973 6.73333 25.3574 7.64317C25.0148 8.56349 24.6305 9.56773 24.22 10.6323C23.7912 11.7466 23.3754 12.8479 22.9858 13.9072C22.5832 14.9953 22.1857 16.0939 21.8066 17.1716C21.4327 18.2335 21.1085 19.2377 20.8392 20.1528C20.5725 21.0653 20.379 21.8728 20.2665 22.5546C20.1463 23.2782 20.1541 23.7974 20.2927 24.1409C20.4966 24.6967 20.8601 25.1818 21.3752 25.583C21.7935 25.9081 22.2642 26.0864 22.7793 26.1048C22.8133 26.1048 22.8473 26.1048 22.8786 26.1048C22.9806 26.1048 23.0878 26.0969 23.1976 26.0864C23.4591 26.0445 23.6526 25.916 23.7676 25.7088C23.8722 25.5201 23.9114 25.3129 23.8827 25.0979C23.8539 24.8803 23.765 24.6889 23.6134 24.5289C23.4617 24.3664 23.2656 24.2851 23.0303 24.2851C23.0068 24.2851 22.9858 24.2851 22.9571 24.2877C22.9388 24.2877 22.9205 24.2903 22.9048 24.2903C22.8499 24.2903 22.808 24.2772 22.774 24.251C22.693 24.1854 22.6355 24.0229 22.6119 23.7948C22.5675 23.3149 22.6276 22.6437 22.7897 21.8047C22.9545 20.9551 23.2081 19.9588 23.5454 18.8497C23.8827 17.7379 24.2618 16.558 24.6723 15.3388C25.0802 14.1274 25.509 12.8951 25.9483 11.6758C26.3876 10.4566 26.7954 9.31339 27.1589 8.27245C27.5171 7.25249 27.8335 6.33216 28.1002 5.54031L28.0897 5.54556Z" fill="#584340"/>
<path d="M76.9631 13.2543C76.6362 13.131 76.2675 13.27 76.0427 13.8101C75.6583 14.6806 75.0988 15.7294 74.3248 16.7074C73.5456 17.6907 72.5573 18.6058 71.3075 19.222C70.3505 19.6965 67.8012 20.2026 67.3357 19.5313C67.3619 19.5078 67.4089 19.4632 67.4874 19.3976L67.8299 19.1066C68.3241 18.6871 69.94 17.4049 70.9336 15.2942C71.1637 14.8091 71.3964 14.0671 71.3545 13.3958C71.2944 12.4598 70.8787 11.8226 69.9426 11.6234C68.6902 11.3533 67.3514 12.25 66.3997 13.388C65.074 14.9664 64.6714 16.9565 65.1498 19.0437C65.1525 19.0856 63.649 20.3258 62.2423 20.0925C61.3324 19.943 61.0814 19.2482 60.9506 18.6163C60.7362 17.5465 60.7911 16.3272 60.9925 15.4463C61.0291 15.2916 61.1546 15.1264 61.2801 15.0136C61.5651 14.754 61.8789 14.5312 62.1665 14.2768C63.6412 12.9606 64.789 11.3428 65.9081 9.44709C66.486 8.46646 67.0167 7.31801 67.2468 6.34525C67.6547 4.28172 67.2024 3.79927 66.6925 3.55543C65.9761 3.20145 65.2335 3.48463 64.5406 3.98806C64.2765 4.17684 64.036 4.39709 63.8111 4.63045C62.3024 6.19841 61.3089 8.0784 60.6107 10.1105C60.2499 11.1593 59.978 12.5463 59.6851 13.6187C59.6145 13.8678 59.5648 14.1851 59.3321 14.3057C58.9086 14.5207 58.7334 14.5836 58.3673 14.7042C57.6143 14.9428 56.9109 14.7147 56.3671 14.1457C56.2285 14.0041 56.0847 13.8599 55.9304 13.7393C55.567 13.4561 55.1225 13.4325 54.7826 13.6633C54.44 13.8966 54.3145 14.3057 54.4348 14.7803C54.4871 14.9743 54.5394 15.1683 54.5708 15.3676C54.7512 16.5475 54.7773 17.5884 54.1237 18.5848C53.8047 19.0673 52.8791 19.9115 52.0319 19.7726C51.1795 19.6284 50.688 18.6241 50.9782 18.2203C54.8349 12.8085 57.1306 7.35472 57.2953 5.51931C57.3371 5.05784 57.3947 4.60161 57.2744 4.15587C57.026 3.23292 56.1396 2.7662 55.2401 3.10706C54.9734 3.2067 54.7198 3.35877 54.4845 3.52396C53.8988 3.91989 53.4961 4.48886 53.1144 5.07095C51.7129 7.22624 50.6906 9.53361 49.9689 11.9931C49.3937 13.9596 48.9989 16.183 48.9727 18.2203C48.9727 18.32 48.8524 18.5402 48.625 18.8155L48.5387 18.9152C48.319 19.1826 48.0314 19.4553 47.7124 19.7123C46.8731 20.4386 46.1802 20.6929 45.652 20.6929C45.4952 20.6929 45.3461 20.6588 45.2128 20.5959C44.7003 20.3416 44.5199 19.4055 44.784 18.375C45.0663 17.3446 45.6442 15.9523 46.0259 15.032C46.2377 14.5207 46.392 14.151 46.4155 14.0304C46.541 13.4588 46.324 12.9553 45.8821 12.7744C45.6913 12.6958 45.5213 12.6564 45.3644 12.6564C45.3383 12.6564 45.3121 12.6564 45.2886 12.6591C45.0585 12.6748 44.8258 12.7561 44.5957 12.8347C44.499 12.8688 44.3996 12.9003 44.3002 12.9291C43.9159 13.0419 43.5263 13.173 43.1289 13.3014L43.0635 13.3224C42.7863 13.4168 42.5066 13.5086 42.2268 13.5925C41.9313 13.6843 41.6751 13.7524 41.4424 13.8101C41.981 12.8006 42.2555 11.9537 42.2608 11.2956C42.266 10.6165 41.9444 9.81679 41.3116 9.61228C41.0972 9.54148 40.8881 9.50477 40.692 9.50477C40.2788 9.50477 39.8997 9.65947 39.5598 9.96625C38.0511 11.3297 38.14 13.9465 38.9924 14.9795L38.9636 15.053L38.9401 15.0949C38.8512 15.2496 38.744 15.4594 38.6159 15.7032C37.9099 17.0745 36.6 19.6284 34.8507 19.6284C34.7226 19.6257 34.5422 19.5549 34.4062 19.3609C34.2729 19.1695 34.0951 18.7185 34.4062 17.8349C34.5317 17.4809 34.6572 17.1165 34.7906 16.7677L34.937 16.3928C34.9762 16.2827 35.1017 15.9549 34.9422 15.6534C34.8455 15.4751 34.6442 15.344 34.3565 15.2784C34.3043 15.2627 34.2546 15.2575 34.2023 15.2575C33.8728 15.2575 33.5695 15.517 33.3028 16.0336C32.657 17.3761 30.5861 19.9378 29.2605 19.9378C29.1298 19.9378 29.0069 19.9115 28.8971 19.8617C28.6487 19.7516 28.3976 19.3452 28.3976 18.7815C28.3976 16.752 30.4972 14.0173 32.1497 13.2857C32.3641 13.1913 32.6178 13.1389 32.8635 13.1389C33.1329 13.1389 33.3813 13.2018 33.5381 13.3119C33.7473 13.4614 33.8441 13.7026 33.8258 14.0409C33.8153 14.1772 33.8414 14.2978 33.8571 14.3765C33.9382 14.7724 34.2153 15.0136 34.5709 15.0136C34.6023 15.0136 34.6337 15.011 34.6625 15.0084C35.0704 14.9769 35.3841 14.678 35.4652 14.2454C35.5541 13.7787 35.575 13.0838 35.1776 12.4467C34.6886 11.6574 33.8545 11.2065 32.8949 11.2065C32.8374 11.2065 32.7825 11.2065 32.7276 11.2091C32.7171 11.2091 32.7067 11.2117 32.6962 11.2117C28.9337 11.6102 27.0877 16.0939 27.0119 16.2853C26.6353 17.2161 26.149 19.1354 26.7033 20.4019C26.9334 20.9263 27.3178 21.2933 27.8433 21.4952C28.1571 21.6132 28.4865 21.6735 28.8291 21.6735C30.2384 21.6735 31.5719 20.6457 32.1837 19.8984C32.4478 20.47 33.1172 21.0338 33.7395 21.1911C34.048 21.2697 34.3539 21.3091 34.6572 21.3091C37.5622 21.3091 39.3846 17.7746 40.2605 16.0755C40.3913 15.8238 40.4932 15.6272 40.5717 15.4882C40.5795 15.4777 40.5848 15.4699 40.59 15.4646C40.6501 15.4672 40.7155 15.4699 40.7782 15.4699C41.7614 15.4699 43.3773 15.0477 44.4127 14.5312C44.2218 15.1133 44.0074 15.6586 43.8139 16.1463C43.6257 16.6183 43.4505 17.0693 43.3223 17.4757C42.6007 19.4291 42.9772 20.6038 43.4217 21.2461C43.9394 21.9934 44.8049 22.3081 45.8638 22.3081C46.779 22.3081 47.7203 21.9384 48.5962 21.2383L48.6694 21.178C48.9989 20.9027 49.31 20.5828 49.5976 20.2288C50.2173 21.5477 51.8724 21.8597 53.0098 21.5477C54.8898 21.039 56.4298 19.1118 56.2756 16.7966C56.2729 16.7389 56.2808 16.6786 56.2886 16.6183C56.3069 16.3744 56.3435 16.3482 56.5658 16.4059C56.6678 16.4348 56.7724 16.4662 56.8769 16.4951C57.5646 16.6734 58.234 16.6629 58.9138 16.4452C59.1779 16.3613 59.1099 17.1007 59.0968 17.3131C59.1125 18.2466 59.1779 19.1144 59.4315 19.9535C59.6642 20.7296 60.1427 21.2724 60.8748 21.6054C61.4448 21.8623 62.0331 21.8466 62.6423 21.7548C63.4137 21.6394 63.683 21.5451 64.2059 21.3012C64.5511 21.1622 64.9067 20.9866 65.359 20.7401C65.5656 20.6247 65.6362 20.6405 65.8009 20.7585C66.9697 21.5896 69.2079 21.5424 69.9923 21.3563C71.3022 21.0443 74.8739 19.6441 77.0912 15.3256C77.0912 15.3256 77.0938 15.3204 77.0938 15.3152C77.1905 15.1264 77.2847 14.9376 77.3709 14.7383C77.7213 13.7944 77.2428 13.3618 76.9578 13.2543H76.9631ZM61.5468 12.1163C61.6017 11.9275 61.6645 11.7413 61.735 11.5552C62.394 9.79319 63.2333 7.80571 64.4596 6.32951C64.6661 6.08042 65.1132 5.55602 65.325 5.45638C65.5656 5.34364 65.7172 5.41181 65.6937 5.7317C65.4845 7.78211 62.8489 11.0832 62.0122 11.9354C61.9285 12.0324 61.8344 12.1268 61.735 12.2107C61.6854 12.2526 61.6043 12.3287 61.5546 12.3051C61.4867 12.2605 61.5337 12.174 61.552 12.1163H61.5468ZM50.9703 14.9402C51.1952 14.1143 51.4096 13.2883 51.6475 12.4676C52.3404 10.0921 53.402 7.87912 54.7381 5.792C54.8924 5.54553 55.295 5.02375 55.4441 4.9818C55.6663 4.92149 55.7945 5.09717 55.7474 5.37248C55.6768 5.98603 55.3264 6.96929 55.0859 7.63528C54.4061 9.52837 53.7445 10.9338 52.717 12.5148C52.2045 13.2936 51.7234 14.0959 51.2318 14.8878C51.203 14.9297 50.9547 15.2758 50.9024 15.323C50.8971 15.2522 50.9599 15.0058 50.9756 14.9402H50.9703ZM39.9625 13.5505C39.6853 12.8898 39.9285 11.9616 40.2135 11.4844C40.3468 11.2589 40.4592 11.1776 40.5168 11.1776V11.1042L40.5194 11.1776C40.6658 11.1776 40.7155 11.2432 40.7416 11.293C40.9508 11.6968 40.2971 13.0261 39.9625 13.5505ZM66.9357 17.9162C66.8625 17.987 66.7866 18.0525 66.7134 18.1233C66.7108 18.0945 66.7108 18.0604 66.7134 18.0106V17.8978C66.8311 14.8668 68.7111 13.3513 69.017 13.2385C69.2209 13.1625 69.3386 13.2175 69.3961 13.27C69.5556 13.4168 69.5661 13.7551 69.451 14.2113C69.0065 15.9733 67.2573 17.6225 66.9357 17.9162Z" fill="#584340"/>
</svg>
