<svg width="134" height="83" viewBox="0 0 134 83" fill="none" xmlns="http://www.w3.org/2000/svg">
<path d="M15.904 82.666C10.5735 83.8267 3.91368 81.6187 1.19189 76.7402C-0.196135 74.242 2.34933 73.1947 3.97246 71.8028C4.55118 71.3358 5.41926 69.8849 6.28734 70.0028C7.27297 70.1207 7.79291 72.034 8.37163 72.7322C9.93598 74.5911 12.8341 75.6385 15.0902 74.301C17.699 72.7322 17.1745 69.7127 15.0314 68.026C12.8296 66.285 9.6421 65.6458 7.26845 64.3672C4.77724 63.0297 1.99667 60.8806 0.780455 58.2102C-1.19081 53.8531 0.721678 48.0452 4.83602 45.6059C9.52907 42.8765 16.1889 42.1194 20.5338 46.014C21.9806 47.3515 24.9375 50.371 23.2556 52.2889C22.5005 53.2183 21.1713 53.7397 20.1857 54.379C18.7931 55.2495 18.5625 55.4263 17.4051 54.2611C15.3796 52.2299 13.232 50.1942 10.049 51.3005C6.34159 52.5791 9.00461 56.0656 11.3828 57.0495C16.9439 59.4298 25.5162 62.6851 25.5162 70.0618C25.5162 76.1055 21.9263 81.392 15.8995 82.666H15.904Z" fill="#36BAC7"/>
<path d="M25.8672 45.6652C25.8672 43.3438 28.1821 43.8063 29.9815 43.9242C34.7334 44.2143 39.4219 44.042 44.1737 44.1554C45.9099 44.1554 48.3468 43.3982 50.0242 43.9242C51.6473 44.4456 51.2404 46.7125 51.1817 48.05C51.1229 50.1401 51.3535 51.1875 49.1561 51.2464C47.8811 51.2464 46.6062 51.3054 45.3312 51.3054C44.8112 51.3643 42.7812 51.0741 42.3788 51.4776C42.0307 51.8267 42.4376 52.7562 42.4963 53.2187C42.4963 54.207 42.207 55.2498 42.207 56.2382C42.207 58.9676 42.2658 61.756 42.3245 64.431C42.3833 69.2505 42.0352 74.1925 42.3245 79.012C42.3833 80.1137 42.7902 81.6281 41.8046 82.2673C41.2846 82.6754 40.2402 82.3852 39.6027 82.3852C38.3865 82.3852 37.1115 82.6164 35.9541 82.5031C34.2722 82.2719 34.5073 80.9344 34.5615 79.4246C34.6203 77.2755 34.5615 75.0675 34.6203 72.8595C34.7921 67.3417 34.7379 61.7651 34.6203 56.2473C34.6203 55.0866 34.9685 53.4 34.6791 52.2393C34.3897 51.0197 33.9828 51.2509 32.7078 51.3099C31.781 51.3099 26.048 51.9492 26.048 50.7885C26.048 49.2198 25.8762 47.3609 25.8762 45.6743L25.8672 45.6652Z" fill="#36BAC7"/>
<path d="M80.0871 68.4348C80.2047 71.7446 80.0283 75.7525 78.0616 78.5409C76.0903 81.3882 72.1523 82.7211 68.8518 82.9569C65.4925 83.1292 61.2652 82.839 58.3083 81.157C54.949 79.1802 53.8458 75.8704 53.5564 72.2116C53.2083 68.0857 53.3846 63.9055 53.3259 59.8386C53.2671 55.8306 53.0953 51.4146 55.2971 47.928C57.3814 44.5593 61.7851 43.5709 65.5513 43.3987C67.4638 43.3397 69.8375 43.5165 71.7499 43.979C78.2967 45.72 80.0916 50.195 79.9741 56.4109C79.9741 60.4189 79.9741 64.4858 80.0916 68.4348H80.0871ZM69.5436 51.8226C67.0524 50.7209 63.6931 50.8342 62.1287 53.3324C60.5056 55.8895 61.4324 58.3288 61.3194 61.0582C61.2019 63.9644 60.9125 66.925 61.1476 69.8313C61.5545 74.5375 66.4194 77.0356 70.2986 73.9571C72.2699 72.4473 72.4417 70.067 72.3829 67.7411C72.2654 64.3135 72.2654 60.827 72.2654 57.3993C72.2654 55.1324 71.6866 52.811 69.5436 51.8226Z" fill="#36BAC7"/>
<path d="M103.953 75.0587C104.708 76.9176 105.517 78.7176 106.327 80.5175C107.312 82.5533 106.385 82.4943 104.532 82.4943C103.605 82.4943 102.678 82.7256 101.751 82.6122C101.29 82.5533 100.015 82.4399 99.6081 82.322C98.3331 81.855 97.872 79.4748 97.2932 78.3141C96.4252 76.6864 95.9007 74.8275 94.9196 73.2588C94.2821 72.157 92.1978 71.5178 91.4427 73.0275C91.0946 73.8391 91.5015 75.6436 91.4427 76.5141C91.4427 77.8516 91.5015 79.1846 91.5015 80.5221C91.5603 82.5578 90.8052 82.322 88.8385 82.322C87.9704 82.322 84.7829 82.9613 84.0867 82.381C83.3316 81.7417 83.9149 81.2792 83.9691 80.5221C84.0279 79.5337 83.8516 78.4909 83.8516 77.5025C83.7928 75.0043 83.8516 72.5061 83.8516 70.008C83.8516 65.4786 83.7928 60.9447 83.7928 56.4153C83.8516 54.3842 83.9103 52.4663 84.0234 50.4306C84.0821 48.8619 83.5622 46.944 83.8516 45.3753C84.2585 43.5753 86.6909 44.0378 88.2553 43.9789C90.4571 43.9199 93.0071 43.9199 95.0914 43.9199C101.751 44.0922 105.924 46.9984 106.562 53.9126C106.679 56.2385 106.679 58.6188 106.621 60.9402C106.503 64.8892 105.635 69.1873 101.928 70.9329C101.986 71.282 102.045 70.8739 101.928 70.9329C102.045 72.2704 103.433 73.8391 103.953 75.0587ZM97.2345 52.4028C95.9595 51.7046 93.8752 51.3555 92.4284 51.6457C90.4571 52.0537 91.5603 54.7242 91.6191 56.4108C91.6778 58.5009 91.4473 60.5956 91.4473 62.6268C91.506 64.1955 91.2167 64.8348 92.9528 64.7759C94.2278 64.7759 95.964 64.6036 97.126 64.1366C98.4597 63.6152 98.8621 62.6268 98.9797 61.2893C99.2102 59.7206 99.2102 57.8617 99.2102 56.234C99.2102 54.434 98.8621 53.2144 97.239 52.3983L97.2345 52.4028Z" fill="#36BAC7"/>
<path d="M111.424 64.2538C111.252 60.9985 111.252 57.6887 111.306 54.4923C111.365 52.6334 111.424 50.8335 111.306 48.9746C111.248 47.696 110.669 45.0256 111.713 44.0372C113.16 42.8176 117.157 44.0372 118.78 44.0372C122.139 43.9782 125.499 44.0961 128.804 44.0961C129.672 44.0961 130.888 43.5747 131.643 44.3863C132.339 45.0256 132.05 46.5353 132.05 47.4059C131.991 50.1942 132.398 51.8219 128.98 51.4138C126.199 51.1236 123.478 51.4138 120.697 51.2415C119.363 51.1237 119.133 50.8924 118.902 52.3433C118.613 54.0299 118.843 56.0021 118.843 57.6887C118.843 59.0852 118.726 58.9673 120.001 59.1396C121.045 59.2575 122.61 59.3119 123.708 59.2575C124.924 59.1985 126.778 58.6182 127.994 59.0262C129.5 59.5476 129.269 60.7128 129.211 62.1637C129.152 64.1405 130.02 66.5797 127.357 66.6386C125.444 66.6976 119.824 65.1878 118.785 67.0467C118.323 67.8039 118.495 70.3564 118.495 71.3448C118.436 72.0431 118.554 74.1332 119.015 74.7725C119.246 75.0626 120.521 74.9447 121.33 75.0037C123.473 75.1216 125.096 75.1216 127.063 75.0037C128.22 74.9447 129.902 74.4823 131.001 74.8858C132.448 75.4661 132.158 77.0349 132.158 78.4313C132.1 79.4197 132.448 81.9179 131.462 82.4393C130.707 82.7884 128.392 82.3214 127.583 82.3214C126.484 82.2625 111.306 83.0196 111.306 81.8C111.306 75.9921 111.655 70.0663 111.424 64.2584V64.2538Z" fill="#36BAC7"/>
<path d="M48.5782 9.58919C48.7274 9.14487 50.0159 5.17771 49.3423 2.76568C49.1885 2.08559 48.8992 1.47805 48.4877 0.961186C48.0401 0.408051 47.3981 0.0906779 46.5707 0.0226695C46.4441 0.00906779 46.3221 0 46.2045 0C45.784 0 45.3816 0.0816101 45.0064 0.240297C44.5588 0.43072 44.1247 0.689152 43.7223 1.00653C43.329 1.31483 42.9537 1.67754 42.6146 2.07199C42.2846 2.45284 41.9817 2.80195 41.6878 3.13292C40.788 4.29813 39.6261 5.83966 38.2245 7.71216C36.7822 9.64813 35.2857 11.6793 33.7846 13.7513C32.2474 15.8732 30.665 18.063 29.078 20.2665C27.5001 22.4609 26.0714 24.4604 24.7919 26.2603C23.6299 27.8925 22.6443 29.3071 21.8621 30.4723C22.0429 29.9192 22.2374 29.3524 22.4453 28.7676C23.0195 27.1535 23.6163 25.5122 24.2267 23.8347L26.0623 18.8021C26.6727 17.1291 27.2062 15.5286 27.6493 14.0324C28.0924 12.5362 28.4043 11.1579 28.5897 9.94284C28.7751 8.69148 28.7615 7.66229 28.54 6.87792C28.3546 6.29758 28.002 5.9122 27.482 5.73991C27.4504 5.73085 27.2695 5.67644 26.9575 5.67644C26.2974 5.67644 25.2304 5.8986 23.8876 6.94593C22.2148 8.25169 20.5781 9.89296 19.9496 10.5368C18.34 12.1916 16.8073 13.9689 15.3877 15.8233C14.9717 16.39 14.5919 16.9296 14.2483 17.4328C15.6816 12.8309 16.093 11.5932 16.1834 11.3846C16.6265 10.3282 17.0018 9.20835 17.2956 8.0658C17.5986 6.90513 17.7252 5.78072 17.6799 4.73339C17.6302 3.59991 17.1826 2.72487 16.3371 2.13547C15.7765 1.74555 15.1797 1.54606 14.5648 1.54606C14.3794 1.54606 14.1941 1.56419 14.0042 1.60047C13.2446 1.74555 12.4986 2.03119 11.7888 2.4483C11.097 2.85182 10.4279 3.33695 9.79036 3.88555C9.70446 3.95809 9.29303 4.31174 9.29303 4.31174C8.10846 5.31826 5.63986 7.41746 4.61805 8.46025C3.75449 9.33983 1.62951 11.5297 0.51728 12.9533C-0.0388335 13.6652 -0.111173 14.4949 0.349994 14.8803C0.512759 15.0208 0.716215 15.0888 0.960363 15.0888C1.76514 15.0888 2.91354 14.3135 4.38295 12.7811C5.74837 11.2849 7.02788 9.99271 8.18984 8.93178L10.663 6.6739C11.6396 5.78525 12.3946 5.27746 12.91 5.16864C13.0276 5.14144 13.1316 5.13237 13.2265 5.13237C13.5475 5.13237 13.6786 5.27292 13.76 5.39534C13.9635 5.70818 14.0449 6.21597 14.0042 6.89606C13.959 7.63055 13.8052 8.42852 13.552 9.26729C12.7653 11.8017 11.8385 14.3453 10.8076 16.8298L7.68346 24.3606C6.63905 26.8724 5.64438 29.4295 4.72204 31.964C3.79519 34.512 3.03562 37.1372 2.47498 39.7441C2.42977 39.8711 2.40264 40.0071 2.39812 40.1386C2.29865 40.6101 2.38456 41 2.66939 41.2993C2.80503 41.4444 2.9045 41.5532 3.16221 41.5532C3.16221 41.5532 3.20742 41.5532 3.25264 41.5622C3.34758 41.5804 3.44705 41.5849 3.54652 41.5849C3.78162 41.5849 4.02577 41.5396 4.26992 41.4534C4.6497 41.3129 4.93454 41.0544 5.12443 40.6736C5.74384 39.4086 6.31804 38.0983 6.87416 36.8288C7.55234 35.2783 8.25314 33.6778 9.04888 32.1317C10.4866 29.3343 12.0646 26.555 13.7329 23.8755C15.4691 21.0872 17.4041 18.5708 19.2398 16.2676C21.1749 13.8329 23.1145 11.5388 25.5469 10.2058C25.3163 11.1398 25.0044 12.1418 24.6246 13.1891C24.1272 14.5538 23.5757 16.0137 22.9924 17.5326C22.4046 19.0605 21.7807 20.6428 21.1477 22.2433C20.5012 23.8664 19.8999 25.4986 19.3618 27.0991C18.8148 28.7268 18.3491 30.3363 17.9738 31.8869C17.594 33.4602 17.3725 34.9926 17.3182 36.448C17.3047 36.7926 17.3951 37.1009 17.585 37.3729C17.7613 37.6268 17.9874 37.8218 18.2541 37.9533C18.4802 38.0666 18.7198 38.1255 18.9685 38.1255C19.0228 38.1255 19.077 38.1255 19.1358 38.1165C19.4613 38.0802 19.7507 37.9351 19.9948 37.6722C22.0294 35.3735 23.8469 33.17 25.3887 31.1116C26.9214 29.0668 28.3998 27.0084 29.7878 24.9863C31.212 22.9143 32.6317 20.8242 34.0107 18.7703C35.4304 16.653 37.0671 14.3407 38.8665 11.8833C39.2327 11.3846 39.6396 10.8133 40.0827 10.1831C40.5258 9.54839 41.0096 8.87737 41.5205 8.18822L42.9899 6.20691C43.4465 5.59483 43.8806 5.06436 44.2694 4.64271C44.4096 4.51576 44.5769 4.35254 44.7713 4.15758C44.9295 3.99436 45.1104 3.86288 45.3003 3.75407C45.4766 3.65886 45.6484 3.59991 45.8473 3.57725C45.9242 3.57725 45.983 3.60445 46.0282 3.64525C46.1186 3.76313 46.1774 3.93089 46.2135 4.15758C46.3582 4.73339 46.3221 6.05275 45.3274 9.06779C44.9386 10.2466 44.4412 11.643 43.8535 13.2163C43.2612 14.8077 42.5965 16.5442 41.8867 18.385C41.1452 20.3119 40.4263 22.2161 39.7527 24.0478C39.0564 25.9294 38.3692 27.8291 37.7136 29.6925C37.0671 31.5287 36.5064 33.2652 36.0407 34.8475C35.5796 36.4253 35.245 37.8218 35.0506 39.0006C34.8426 40.2519 34.8562 41.1497 35.0958 41.7436C35.4485 42.7048 36.0769 43.5435 36.9676 44.2372C37.691 44.7994 38.5048 45.1077 39.3955 45.1395C39.4543 45.1395 39.5131 45.1395 39.5673 45.1395C39.7436 45.1395 39.929 45.1259 40.1189 45.1077C40.571 45.0352 40.9056 44.813 41.1045 44.4549C41.2854 44.1284 41.3532 43.7702 41.3035 43.3985C41.2537 43.0222 41.1 42.6912 40.8378 42.4146C40.5755 42.1335 40.2365 41.993 39.8295 41.993C39.7889 41.993 39.7527 41.993 39.7029 41.9975C39.6713 41.9975 39.6396 42.002 39.6125 42.002C39.5176 42.002 39.4452 41.9794 39.3865 41.934C39.2463 41.8207 39.1468 41.5396 39.1061 41.1451C39.0293 40.3154 39.1333 39.1547 39.4136 37.7039C39.6984 36.2349 40.137 34.512 40.7202 32.5942C41.3035 30.6718 41.959 28.6316 42.6689 26.5233C43.3742 24.4286 44.1157 22.2977 44.8753 20.1894C45.6348 18.0812 46.3401 16.1044 46.9686 14.3044C47.588 12.5408 48.1351 10.9494 48.5962 9.58013L48.5782 9.58919Z" fill="#F4F9FF"/>
<path d="M133.09 22.9186C132.525 22.7055 131.887 22.9458 131.499 23.8798C130.834 25.385 129.866 27.1986 128.528 28.8897C127.181 30.5899 125.472 32.1723 123.311 33.2377C121.656 34.0584 117.248 34.9334 116.443 33.7727C116.488 33.7319 116.569 33.6549 116.705 33.5415L117.297 33.0383C118.152 32.3128 120.946 30.0958 122.664 26.446C123.062 25.6072 123.464 24.3241 123.392 23.1634C123.288 21.5448 122.569 20.4431 120.951 20.0985C118.785 19.6315 116.47 21.1821 114.824 23.1498C112.532 25.8792 111.836 29.3205 112.663 32.9294C112.668 33.002 110.068 35.1465 107.635 34.743C106.062 34.4846 105.628 33.2831 105.402 32.1904C105.031 30.3406 105.126 28.2323 105.474 26.7089C105.538 26.4414 105.755 26.1558 105.972 25.9608C106.464 25.512 107.007 25.1266 107.504 24.6868C110.054 22.4108 112.039 19.6134 113.974 16.3354C114.973 14.6397 115.891 12.6539 116.289 10.9718C116.994 7.4036 116.212 6.56936 115.331 6.14771C114.092 5.53563 112.808 6.02529 111.61 6.8958C111.153 7.22224 110.737 7.60309 110.348 8.00661C107.739 10.7179 106.021 13.9687 104.814 17.4825C104.19 19.296 103.72 21.6944 103.214 23.5488C103.092 23.9795 103.006 24.5281 102.603 24.7367C101.871 25.1085 101.568 25.2173 100.935 25.4258C99.6328 25.8384 98.4166 25.444 97.4762 24.4601C97.2366 24.2153 96.9879 23.9659 96.7212 23.7574C96.0927 23.2677 95.3241 23.2269 94.7363 23.6259C94.144 24.0294 93.927 24.7367 94.135 25.5573C94.2254 25.8928 94.3159 26.2283 94.3701 26.5729C94.6821 28.6132 94.7273 30.4131 93.597 32.136C93.0454 32.9702 91.4449 34.4302 89.98 34.1899C88.506 33.9405 87.656 32.204 88.1579 31.5058C94.8268 22.1478 98.7964 12.7173 99.0812 9.5436C99.1536 8.74563 99.2531 7.95673 99.0451 7.18597C98.6156 5.59004 97.0829 4.78301 95.5275 5.37241C95.0664 5.5447 94.6278 5.80767 94.2209 6.0933C93.2081 6.77792 92.5119 7.76178 91.8518 8.7683C89.4284 12.4952 87.6606 16.485 86.4127 20.7378C85.418 24.1382 84.7353 27.983 84.6901 31.5058C84.6901 31.6781 84.4821 32.0589 84.0888 32.535L83.9396 32.7073C83.5598 33.1697 83.0625 33.6413 82.5109 34.0856C81.0596 35.3415 79.8614 35.7813 78.9481 35.7813C78.6768 35.7813 78.4191 35.7223 78.1886 35.6135C77.3024 35.1737 76.9904 33.5551 77.4471 31.7733C77.9354 29.9915 78.9346 27.584 79.5947 25.9926C79.9609 25.1085 80.2276 24.4692 80.2683 24.2606C80.4854 23.2722 80.1101 22.4017 79.346 22.0889C79.0159 21.9529 78.7221 21.8849 78.4508 21.8849C78.4056 21.8849 78.3604 21.8849 78.3197 21.8894C77.9218 21.9166 77.5194 22.0572 77.1215 22.1932C76.9543 22.2521 76.7824 22.3065 76.6106 22.3564C75.946 22.5513 75.2724 22.778 74.5851 23.0002L74.4721 23.0365C73.9928 23.1997 73.5091 23.3584 73.0253 23.5035C72.5144 23.6622 72.0713 23.78 71.6689 23.8798C72.6003 22.1342 73.075 20.6698 73.0841 19.5318C73.0931 18.3575 72.537 16.9747 71.4428 16.621C71.0721 16.4986 70.7104 16.4351 70.3713 16.4351C69.657 16.4351 69.0014 16.7026 68.4136 17.2331C65.8049 19.5907 65.9586 24.1155 67.4325 25.9019L67.3828 26.0288L67.3421 26.1014C67.1884 26.3689 67.003 26.7316 66.7814 27.1533C65.5607 29.5245 63.2956 33.9405 60.2708 33.9405C60.0493 33.936 59.7373 33.8136 59.5022 33.478C59.2717 33.1471 58.9642 32.3672 59.5022 30.8393C59.7193 30.2272 59.9363 29.597 60.1669 28.994L60.42 28.3457C60.4879 28.1552 60.7049 27.5885 60.4291 27.0671C60.2618 26.7588 59.9137 26.5321 59.4163 26.4188C59.3259 26.3916 59.24 26.3825 59.1496 26.3825C58.5799 26.3825 58.0554 26.8313 57.5943 27.7245C56.4775 30.0459 52.8967 34.4755 50.6044 34.4755C50.3783 34.4755 50.1659 34.4302 49.976 34.344C49.5464 34.1536 49.1124 33.4508 49.1124 32.4761C49.1124 28.9668 52.743 24.238 55.6004 22.973C55.9711 22.8098 56.4097 22.7191 56.8347 22.7191C57.3004 22.7191 57.7299 22.8279 58.0012 23.0183C58.3629 23.2768 58.5302 23.6939 58.4985 24.2788C58.4804 24.5145 58.5256 24.7231 58.5528 24.8591C58.6929 25.5437 59.1722 25.9608 59.7871 25.9608C59.8413 25.9608 59.8956 25.9563 59.9453 25.9518C60.6506 25.8974 61.1932 25.3805 61.3333 24.6324C61.4871 23.8254 61.5232 22.6239 60.836 21.5222C59.9905 20.1575 58.5482 19.3776 56.8889 19.3776C56.7895 19.3776 56.6945 19.3776 56.5996 19.3822C56.5815 19.3822 56.5634 19.3867 56.5453 19.3867C50.0393 20.0758 46.8473 27.8288 46.7161 28.1598C46.0651 29.7693 45.2241 33.0881 46.1826 35.278C46.5805 36.1848 47.2451 36.8195 48.1539 37.1686C48.6964 37.3727 49.2661 37.4769 49.8584 37.4769C52.2954 37.4769 54.6012 35.6996 55.6592 34.4075C56.1158 35.3959 57.2733 36.3707 58.3493 36.6427C58.8828 36.7787 59.4118 36.8467 59.9363 36.8467C64.9594 36.8467 68.1107 30.735 69.6253 27.7971C69.8514 27.3618 70.0277 27.0218 70.1633 26.7815C70.1769 26.7633 70.1859 26.7497 70.195 26.7407C70.299 26.7452 70.412 26.7497 70.5205 26.7497C72.2205 26.7497 75.0146 26.0198 76.8051 25.1266C76.475 26.1331 76.1043 27.0762 75.7697 27.9195C75.4442 28.7356 75.1412 29.5154 74.9197 30.2182C73.6718 33.5959 74.3229 35.6271 75.0915 36.7379C75.9867 38.0301 77.4832 38.5741 79.3143 38.5741C80.8968 38.5741 82.5244 37.9349 84.0391 36.7243L84.1656 36.62C84.7353 36.144 85.2734 35.5908 85.7707 34.9788C86.8422 37.2593 89.7042 37.7988 91.6709 37.2593C94.9217 36.3797 97.5847 33.0473 97.318 29.0439C97.3134 28.9441 97.327 28.8399 97.3406 28.7356C97.3722 28.3139 97.4355 28.2686 97.8198 28.3683C97.9962 28.4182 98.177 28.4726 98.3578 28.5225C99.5469 28.8308 100.704 28.8127 101.88 28.4363C102.337 28.2913 102.219 29.5698 102.196 29.9371C102.224 31.5511 102.337 33.0519 102.775 34.5027C103.177 35.8447 104.005 36.7833 105.271 37.3591C106.256 37.8034 107.274 37.7762 108.327 37.6175C109.661 37.418 110.127 37.2548 111.031 36.8331C111.628 36.5928 112.243 36.2891 113.025 35.8629C113.382 35.6634 113.504 35.6906 113.789 35.8946C115.81 37.3319 119.68 37.2502 121.036 36.9283C123.302 36.3888 129.478 33.9677 133.312 26.5004C133.312 26.5004 133.316 26.4913 133.316 26.4822C133.483 26.1558 133.646 25.8294 133.795 25.4848C134.401 23.8526 133.574 23.1045 133.081 22.9186H133.09ZM106.433 20.9509C106.528 20.6244 106.636 20.3025 106.758 19.9806C107.898 16.9339 109.349 13.4972 111.469 10.9446C111.827 10.5139 112.6 9.60707 112.966 9.43478C113.382 9.23983 113.644 9.35771 113.603 9.91084C113.242 13.4564 108.684 19.1645 107.238 20.638C107.093 20.8058 106.93 20.969 106.758 21.1141C106.672 21.1866 106.532 21.3181 106.446 21.2773C106.329 21.2002 106.41 21.0506 106.442 20.9509H106.433ZM88.1443 25.8339C88.5332 24.4057 88.9039 22.9775 89.3153 21.5584C90.5135 17.4507 92.3491 13.6241 94.6595 10.0151C94.9262 9.58894 95.6225 8.68669 95.8802 8.61415C96.2645 8.50987 96.4861 8.81364 96.4047 9.2897C96.2826 10.3506 95.6768 12.0508 95.2608 13.2025C94.0853 16.4759 92.9414 18.9061 91.1645 21.64C90.2784 22.9866 89.4465 24.374 88.5965 25.7432C88.5467 25.8158 88.1172 26.4142 88.0268 26.4958C88.0178 26.3734 88.1263 25.9472 88.1534 25.8339H88.1443ZM69.1099 23.4309C68.6306 22.2884 69.0511 20.6834 69.5439 19.8582C69.7745 19.4683 69.9689 19.3277 70.0684 19.3277V19.2008L70.0729 19.3277C70.3261 19.3277 70.412 19.4411 70.4572 19.5272C70.8189 20.2255 69.6886 22.5241 69.1099 23.4309ZM115.751 30.9799C115.625 31.1023 115.493 31.2156 115.367 31.338C115.362 31.2882 115.362 31.2292 115.367 31.1431V30.9481C115.57 25.7069 118.821 23.0863 119.35 22.8914C119.703 22.7599 119.906 22.8551 120.006 22.9458C120.281 23.1997 120.299 23.7846 120.101 24.5735C119.332 27.6202 116.307 30.4721 115.751 30.9799Z" fill="#F4F9FF"/>
</svg>
