<svg width="40" height="40" viewBox="0 0 40 40" fill="none" xmlns="http://www.w3.org/2000/svg">
<g clip-path="url(#clip0_2013_53914)">
<path d="M32.8985 0H7.10149C3.17945 0 0 3.17945 0 7.10149V32.8985C0 36.8206 3.17945 40 7.10149 40H32.8985C36.8206 40 40 36.8206 40 32.8985V7.10149C40 3.17945 36.8206 0 32.8985 0Z" fill="#E05B8B"/>
<path d="M6.49219 15.5855V26.75C6.49219 27.9435 6.96629 29.0881 7.81021 29.932C8.65412 30.7759 9.79871 31.25 10.9922 31.25H28.9922C30.1857 31.25 31.3303 30.7759 32.1742 29.932C33.0181 29.0881 33.4922 27.9435 33.4922 26.75V13.25C33.4922 12.0565 33.0181 10.9119 32.1742 10.068C31.3303 9.22411 30.1857 8.75 28.9922 8.75H10.9922C9.79871 8.75 8.65412 9.22411 7.81021 10.068C6.96629 10.9119 6.49219 12.0565 6.49219 13.25V15.5855ZM10.9922 11H28.9922C29.5889 11 30.1612 11.2371 30.5832 11.659C31.0051 12.081 31.2422 12.6533 31.2422 13.25V14.915L19.9922 20.972L8.74219 14.915V13.25C8.74219 12.6533 8.97924 12.081 9.4012 11.659C9.82315 11.2371 10.3955 11 10.9922 11ZM8.74219 17.471L19.4589 23.24C19.6228 23.3282 19.8061 23.3744 19.9922 23.3744C20.1783 23.3744 20.3615 23.3282 20.5254 23.24L31.2422 17.471V26.75C31.2422 27.3467 31.0051 27.919 30.5832 28.341C30.1612 28.7629 29.5889 29 28.9922 29H10.9922C10.3955 29 9.82315 28.7629 9.4012 28.341C8.97924 27.919 8.74219 27.3467 8.74219 26.75V17.471Z" fill="white"/>
</g>
<defs>
<clipPath id="clip0_2013_53914">
<rect width="40" height="40" fill="white"/>
</clipPath>
</defs>
</svg>
