<?xml version="1.0" encoding="UTF-8"?>
<svg id="Layer_2" data-name="Layer 2" xmlns="http://www.w3.org/2000/svg" viewBox="0 0 3364.11157 667.25134">
  <defs>
    <style>
      .cls-1 {
        fill: #fff;
      }

      .cls-2 {
        fill: #594642;
      }
    </style>
  </defs>
  <g id="Layer_1-2" data-name="Layer 1">
    <g>
      <g>
        <g>
          <path class="cls-2" d="M719.21188,141.64843c2.21466-6.56052,21.29258-65.2199,11.34263-100.80829-2.28188-10.05056-6.54382-19.0107-12.66854-26.64494-6.61059-8.18824-16.17482-12.86975-28.42334-13.89294-1.84562-.20166-3.65787-.30227-5.45341-.30227-6.24156,0-12.21514,1.19147-17.73532,3.54057-6.66112,2.83543-13.05427,6.64443-19.0107,11.2921-5.82245,4.5809-11.35932,9.88273-16.44325,15.72187-4.88272,5.60409-9.37971,10.75569-13.70842,15.6718-13.3227,17.19846-30.57169,39.98433-51.31026,67.68675-21.39319,28.625-43.5249,58.62554-65.7739,89.23061-22.80256,31.32645-46.25972,63.72661-69.71644,96.29506-23.37325,32.45069-44.54854,61.9649-63.50871,88.55976-17.24899,24.14471-31.84661,45.05156-43.42429,62.23333,2.66806-8.15486,5.55402-16.57769,8.64119-25.1688,8.54058-23.84289,17.3496-48.12204,26.39365-72.90466l27.21518-74.34787c9.04406-24.69871,16.94718-48.40761,23.491-70.48879,6.54382-22.13126,11.20819-42.45072,13.90963-60.4044,2.75152-18.47384,2.51693-33.70893-.75521-45.3033-2.75152-8.6078-8.00372-14.26243-15.65465-16.79604-.48678-.15068-3.17153-.90589-7.78537-.90589-9.76544,0-25.60506,3.27214-45.52165,18.79235-24.79931,19.31297-49.06177,43.55873-58.34087,53.08912-23.8262,24.48036-46.56154,50.73957-67.61907,78.10634-6.1581,8.40614-11.79558,16.35934-16.86281,23.75898,21.25875-68.00525,27.36632-86.29458,28.67508-89.38175,6.56052-15.62127,12.11454-32.13174,16.49378-49.06177,4.46315-17.18177,6.376-33.75946,5.72139-49.26343-.72138-16.7789-7.39919-29.68203-19.86607-38.3733-8.28884-5.77237-17.14839-8.69172-26.29305-8.69172-2.73483,0-5.52018.25174-8.30554.77191-11.24203,2.13075-22.29908,6.34262-32.85311,12.5341-10.23553,5.97313-20.18548,13.12103-29.63196,21.20867-1.24154,1.09041-7.36581,6.2754-7.36581,6.2754-17.5675,14.89944-54.11231,45.90738-69.29732,61.2936-12.76869,12.97035-44.27966,45.38721-60.79013,66.39467-8.25546,10.5035-9.31249,22.75248-2.48354,28.49056,2.41632,2.04729,5.45341,3.08762,9.04406,3.08762,11.91287,0,28.97735-11.46038,50.70618-34.09511,20.2351-22.08118,39.21242-41.22587,56.39419-56.89767l36.6788-33.37373c14.44649-13.15442,25.65513-20.65467,33.27268-22.2657,1.71164-.36903,3.30552-.55355,4.71489-.55355,4.74873,0,6.72834,2.09736,7.91981,3.9096,3.00326,4.64767,4.22811,12.11408,3.64117,22.18178-.6713,10.87254-2.9198,22.66857-6.71165,35.05153-11.67828,37.43357-25.37001,75.03541-40.67232,111.78143l-46.32694,111.31224c-15.45344,37.11506-30.21889,74.91856-43.89393,112.36927-13.74181,37.66861-24.96669,76.42854-33.28937,114.95297-.67085,1.86232-1.04034,3.85907-1.1238,5.83914-1.49373,6.99677-.18497,12.752,3.99306,17.18177,2.03059,2.16458,3.50718,3.74178,7.28235,3.74178h.03338c.26843,0,.68799.01669,1.32546.1173,1.42606.23505,2.86927.33565,4.34586.33565,3.50673,0,7.11407-.65461,10.72186-1.94623,5.60409-2.04729,9.86604-5.90636,12.66809-11.49376,9.17805-18.69174,17.70194-38.08863,25.94025-56.84759,10.05056-22.88647,20.45346-46.56154,32.24949-69.41462,21.32597-41.36031,44.68208-82.38497,69.38079-121.98357,25.70566-41.19249,54.39789-78.39146,81.57968-112.45318,28.67553-35.97412,57.45122-69.88471,93.44248-89.56626-3.43996,13.79233-8.03711,28.59117-13.69173,44.06175-7.39964,20.16833-15.53735,41.76273-24.21193,64.2134-8.7251,22.5842-17.93698,45.99129-27.36677,69.58245-9.6143,23.99402-18.50723,48.13918-26.47711,71.76372-8.10433,24.07794-15.03388,47.87075-20.55451,70.75722-5.62079,23.22212-8.89293,45.89069-9.74829,67.41832-.18452,5.08393,1.12425,9.68152,3.92629,13.67504,2.63422,3.72463,5.97313,6.62729,9.91612,8.60735,3.33936,1.69494,6.87948,2.55031,10.55403,2.55031.80529,0,1.62772-.05008,2.4497-.1173,4.84933-.50348,9.11128-2.70144,12.70192-6.59435,30.15167-33.94398,57.06549-66.56205,79.93527-96.94921,22.70195-30.18551,44.632-60.6223,65.16937-90.4893,21.07468-30.62176,42.11553-61.52865,62.56898-91.86484,21.05754-31.25968,45.28661-65.48878,71.98207-101.78186,5.41958-7.3825,11.45993-15.83917,18.00375-25.15166,6.56052-9.37971,13.72511-19.31252,21.30927-29.49751l21.77937-29.24578c6.74503-9.06075,13.17156-16.86326,18.99401-23.08813,2.06353-1.87901,4.54707-4.27864,7.46641-7.14791,2.36579-2.38248,5.01716-4.37924,7.8359-5.95644,2.61753-1.42606,5.15115-2.29857,8.12102-2.58415,1.10756,0,1.99676.36903,2.65091,1.00695,1.30876,1.76171,2.19797,4.19472,2.73528,7.60085,2.13075,8.52389,1.59389,28.02092-13.15487,72.53563-5.77192,17.4502-13.12103,38.07148-21.84613,61.29405-8.80901,23.49055-18.60783,49.17907-29.12848,76.41139-10.9736,28.49102-21.61154,56.64593-31.62826,83.67705-10.33613,27.81972-20.48729,55.87402-30.18551,83.39193-9.58092,27.16511-17.91984,52.78685-24.78262,76.1768-6.84564,23.32272-11.77888,43.97784-14.66484,61.36082-3.08717,18.49054-2.86927,31.7627.63792,40.53788,5.21792,14.17851,14.5471,26.57817,27.73535,36.86377,10.68847,8.33892,22.80301,12.83591,35.95743,13.33939.85582.03338,1.71164.06677,2.55076.06677,2.63422,0,5.33566-.16783,8.1544-.48633,6.71165-1.07417,11.62775-4.32917,14.61477-9.66483,2.70144-4.83219,3.69125-10.10109,2.96987-15.63796-.72183-5.53733-3.03709-10.43674-6.91331-14.54755-3.90915-4.16134-8.943-6.2587-14.96666-6.2587-.5707,0-1.14094.01714-1.84562.06722-.4534.05053-.90635.08391-1.32591.08391-1.40937,0-2.49978-.33565-3.37229-1.0065-2.09736-1.66111-3.57395-5.82245-4.14465-11.67828-1.15763-12.28236.36949-29.38022,4.56421-50.82393,4.21142-21.72884,10.73855-47.14892,19.39643-75.53888,8.64119-28.39041,18.35609-58.57592,28.87629-89.73454,10.45343-30.95696,21.46041-62.46793,32.71912-93.59316,11.24203-31.14193,21.69545-60.38771,31.02463-86.94919,9.17805-26.09139,17.29907-49.58194,24.11132-69.83418Z"/>
          <path class="cls-2" d="M1971.68193,338.61644c-8.37276-3.17108-17.81923.40287-23.55777,14.19521-9.8489,22.249-24.19523,49.01169-44.04461,74.04605-19.93374,25.13496-45.28661,48.5416-77.31774,64.28017-24.4975,12.09784-89.86853,25.0515-101.79855,7.91981.68799-.62077,1.86277-1.71118,3.87622-3.42282l8.75848-7.43303c12.6347-10.70517,54.04509-43.5082,79.54954-97.38547,5.90591-12.41635,11.86235-31.32645,10.78863-48.5416-1.5605-23.89342-12.1813-40.1693-36.20916-45.28661-32.11504-6.89617-66.37753,16.04083-90.80781,45.11878-33.96067,40.33667-44.28011,91.19399-32.03113,144.53439.08391,1.09086-38.45766,32.73582-74.51569,26.82991-23.33942-3.79231-29.76594-21.54432-33.10485-37.75298-5.50394-27.36632-4.11126-58.47486,1.09041-81.02568.92304-3.96013,4.17803-8.15486,7.36581-11.02412,7.28235-6.66112,15.35284-12.31574,22.7191-18.84288,37.76922-33.64171,67.23335-74.96864,95.90843-123.44302,14.81598-25.03436,28.39041-54.43127,34.27963-79.23058,10.47012-52.73678-1.15763-65.06922-14.19521-71.2607-18.37279-9.07744-37.3668-1.7951-55.11881,11.0742-6.74503,4.8155-12.95366,10.47012-18.69174,16.4437-38.69271,40.08493-64.12948,88.08967-82.03263,140.0374-9.22858,26.82991-16.20866,62.26717-23.7256,89.63394-1.7951,6.35886-3.10386,14.49702-9.07744,17.53366-10.85585,5.50394-15.35284,7.13121-24.73209,10.15161-19.31297,6.12426-37.30003.23505-51.26019-14.26243-3.57395-3.64072-7.21467-7.29859-11.15811-10.38621-9.31204-7.21467-20.70519-7.83545-29.39646-1.94623-8.75894,5.97358-12.01393,16.4437-8.91007,28.54109,1.30876,4.94994,2.70144,9.91657,3.49049,15.03433,4.64767,30.16836,5.26844,56.76323-11.47707,82.20046-8.1544,12.31574-31.88,33.87676-53.59214,30.3195-21.86328-3.65787-34.41362-29.313-26.98059-39.63198,98.79484-138.25945,157.63874-277.67608,161.90068-324.57372,1.09041-11.79558,2.567-23.42333-.53731-34.81649-6.35931-23.57446-29.07795-35.52117-52.09886-26.82946-6.82895,2.55031-13.33939,6.42653-19.39643,10.62125-15.03388,10.08394-25.35287,24.64818-35.1183,39.54807-35.90735,55.05204-62.11603,114.04707-80.57273,176.86779-14.73207,50.23655-24.88323,107.08368-25.504,159.09863,0,2.567-3.10431,8.1544-8.90962,15.2017l-2.18127,2.56745c-5.65462,6.81225-13.02088,13.79233-21.15859,20.38624-21.49379,18.54106-39.24626,25.05105-52.80355,25.05105-4.04359,0-7.8359-.85537-11.25872-2.48309-13.10434-6.51044-17.75201-30.40341-11.00698-56.76323,7.21513-26.36027,22.03065-61.88144,31.79609-85.43921,5.41958-13.03712,9.37971-22.50029,10.00048-25.58791,3.18777-14.58093-2.33241-27.45023-13.64165-32.11504-4.88272-2.01345-9.22812-3.01995-13.27217-3.01995-.68799,0-1.30876,0-1.92954.08391-5.88922.38573-11.8628,2.48309-17.75201,4.49654-2.48354.85582-5.05054,1.69494-7.60085,2.39963-9.84935,2.86927-19.84983,6.20817-30.01768,9.53039l-1.69494.55355c-7.13121,2.39963-14.27867,4.73204-21.40988,6.89617-7.60085,2.33241-14.11129,4.11081-20.08442,5.5874,13.80903-25.82296,20.85633-47.45074,20.94024-64.28017.15068-17.36629-8.13816-37.76967-24.34637-43.03811-5.50394-1.77886-10.8563-2.71859-15.89015-2.71859-10.55358.00045-20.31902,3.96013-29.01073,11.79603-38.69225,34.81649-36.35985,101.73088-14.56424,128.09114l-.70468,1.86232-.62077,1.09041c-2.2485,3.94344-5.03385,9.2958-8.28884,15.57119-18.07097,35.05108-51.64546,100.27143-96.46243,100.27143-3.25499-.08391-7.91981-1.86232-11.40985-6.82895-3.40613-4.88272-7.98658-16.4437,0-38.99452,3.18823-9.07744,6.44322-18.38993,9.84935-27.29955l3.72509-9.6143c1.0065-2.80205,4.19472-11.1748.15068-18.92679-2.48309-4.56376-7.66807-7.90312-15.03388-9.6143-1.32546-.38618-2.63422-.53686-3.95968-.53686-8.45667,0-16.20866,6.66112-23.02091,19.84938-16.52716,34.27963-69.63297,99.7851-103.59364,99.7851-3.33891,0-6.52713-.68799-9.31249-1.92954-6.35931-2.78536-12.78538-13.18825-12.78538-27.60181,0-51.88051,53.81005-121.74853,96.14347-140.42358,5.50349-2.41632,12.01393-3.72509,18.30602-3.72509,6.89617,0,13.25548,1.62772,17.28237,4.41308,5.35236,3.809,7.8359,10.00048,7.36581,18.60783-.23459,3.49004.38618,6.59435.77191,8.6078,2.09736,10.08394,9.16135,16.29257,18.30602,16.29212.77191,0,1.62772-.08346,2.33241-.15068,10.45343-.7886,18.52392-8.45667,20.53737-19.46365,2.2485-11.94671,2.80205-29.69918-7.36581-45.99129-12.55079-20.15164-33.87721-31.71263-58.45817-31.71263-1.47659,0-2.86927,0-4.26195.08391-.23505,0-.55355.06722-.7886.06722-96.44574,10.16831-143.7458,124.76893-145.69203,129.65165-9.61475,23.80951-22.09832,72.80406-7.90312,105.22137,5.88967,13.4233,15.73902,22.80256,29.22908,27.92032,8.07094,3.01995,16.51047,4.56376,25.26941,4.56376,36.14194,0,70.25375-26.2759,85.99231-45.35383,6.74503,14.58093,23.89342,28.99404,39.86703,33.03808,7.90267,2.01345,15.73856,3.01995,23.49055,3.01995,74.43178,0,121.11106-90.33817,143.59466-133.76246,3.33936-6.42608,5.97358-11.47662,7.98703-15.03388.16783-.23505.31896-.46964.46964-.62077,1.5605.06722,3.18823.15113,4.8155.15113,25.20219-.00045,66.59633-10.77239,93.12398-23.96064-4.88272,14.88275-10.38621,28.84291-15.35284,41.25971-4.81595,12.0807-9.31249,23.55777-12.56748,33.96067-18.52437,49.93428-8.84285,79.93527,2.567,96.37852,13.25548,19.07792,35.43726,27.13172,62.56898,27.13172,23.42378,0,47.60232-9.46317,70.01915-27.36677l1.86232-1.54336c8.45667-7.06399,16.44325-15.20216,23.80951-24.2796,15.8897,33.72608,58.30704,41.64589,87.45221,33.72608,48.15587-13.02088,87.62003-62.25048,83.67705-121.43002-.08391-1.4599.15068-3.01995.30181-4.56376.46964-6.20817,1.39268-6.89617,7.13121-5.43627,2.63422.70468,5.28514,1.56005,7.98658,2.24804,17.60133,4.5809,34.74927,4.27864,52.18277-1.24154,6.74549-2.16458,5.05054,16.76221,4.66482,22.18178.38573,23.87673,2.08067,46.05851,8.60735,67.46839,5.95689,19.84983,18.22211,33.72608,36.98107,42.18275,14.58093,6.57721,29.69918,6.19103,45.28661,3.79185,19.76592-2.95318,26.66208-5.35236,40.08538-11.56098,8.8424-3.55681,17.98706-8.0538,29.54759-14.34589,5.26844-2.93649,7.13121-2.55031,11.30925.46964,29.93377,21.24251,87.31777,20.00051,107.40219,15.28562,33.57494-7.98658,125.0712-43.7428,181.90164-154.08193,0-.06677.08391-.15068.08391-.23459,2.48309-4.7988,4.88272-9.68152,7.13076-14.73207,8.99353-24.11132-3.25499-35.20221-10.55403-37.9208ZM1576.61987,309.55563c1.39268-4.8155,3.0204-9.6143,4.8155-14.34589,16.89665-45.05201,38.37375-95.84211,69.78411-133.52787,5.26844-6.35886,16.74552-19.78216,22.18178-22.33292,6.19148-2.86882,10.06725-1.15763,9.44648,7.0473-5.35236,52.41782-72.88797,136.71564-94.36507,158.49501-2.16458,2.48309-4.56376,4.88227-7.13121,7.06354-1.24154,1.07417-3.33891,3.0204-4.64767,2.39963-1.71118-1.15763-.53686-3.33891-.08391-4.7988ZM1305.62206,381.73936c5.73854-21.09137,11.24203-42.18275,17.36629-63.19021,17.75201-60.72291,44.96765-117.25154,79.16336-170.5924,3.95968-6.27494,14.27867-19.61433,18.07097-20.70519,5.67131-1.54381,8.99353,2.95318,7.75199,10.00048-1.77886,15.67134-10.77239,40.78962-16.98056,57.85409-17.4502,48.37378-34.3464,84.28113-60.70621,124.68502-13.10434,19.9166-25.43723,40.38675-38.07148,60.6223-.70514,1.09086-7.13121,9.93326-8.45667,11.09089-.15113-1.7784,1.47659-8.13771,1.86232-9.76498ZM1023.5329,346.21819c-7.13076-16.89665-.85537-40.62224,6.44322-52.80355,3.40613-5.73854,6.2754-7.81921,7.75199-7.81921l.06722-1.86232v1.86232c3.72463,0,5.05054,1.69494,5.67131,2.93649,5.33566,10.31899-11.40985,44.27966-19.93374,57.68626ZM1714.72819,457.79842c-1.86232,1.7951-3.809,3.49004-5.67131,5.28514-.06722-.70468-.06722-1.62772,0-2.86927v-2.86927c3.03709-77.46842,51.17582-116.16113,59.01172-119.03039,5.20168-1.94623,8.22162-.53686,9.69821.77191,4.11081,3.72509,4.34586,12.41635,1.39268,24.04455-11.39271,45.05156-56.20967,87.14994-64.4313,94.66733Z"/>
        </g>
        <g>
          <path class="cls-1" d="M2530.56657,471.82805h-110.25567l-.00045-352.1647c0-15.02531-9.43339-23.89658-25.39573-23.89658h-65.28486c-15.96233,0-25.38535,8.87127-25.38535,23.89658l.00045,427.93502c0,15.01448,9.42302,23.88575,25.3849,23.88575h200.93671c13.78602,0,21.77215-7.50747,21.77215-20.48098v-58.69412c0-12.96359-7.98613-20.48098-21.77215-20.48098Z"/>
          <path class="cls-1" d="M2816.38397,116.93484c-2.93649-13.66105-13.08855-21.16807-28.30063-21.16807h-102.29029c-15.21253,0-24.68788,6.8303-27.57204,21.16807l-83.43343,431.99621c-2.89453,13.67098,3.65471,22.57383,18.90874,22.57383h75.39542c13.08855,0,22.52195-5.4877,23.96921-18.43008l9.42302-81.94466h70.35571l10.87073,81.94466c1.44727,12.26567,10.87028,18.42963,23.95884,18.42963l75.4473-.7286c15.21253,0,21.75139-8.85052,18.86724-22.51157l-85.59982-431.32942ZM2714.80152,374.88921l20.3145-142.61749h2.92566l21.75139,142.61749h-44.99156Z"/>
          <path class="cls-1" d="M3160.2296,320.32847c40.60781-17.08658,59.47459-53.93592,59.47459-98.97936,0-79.87256-59.47505-125.58279-147.29223-125.58279l-110.95359.00045c-15.97226,0-25.4061,8.9024-25.4061,23.9065l.00045,427.91427c0,15.01448,9.43339,23.91688,25.4061,23.91688h106.62171c103.02972,0,162.49439-53.26958,162.49439-137.91117,0-57.30911-27.57159-96.23009-70.34533-113.26479ZM3112.20772,349.24356l-42.82562,128.8626c-3.12371,9.43339-8.27757,9.43339-11.40128,0l-42.82607-128.8626c-3.12371-9.42302,2.40549-17.55532,12.36988-17.55532h72.31321c9.96484,0,15.50397,8.1323,12.36988,17.55532ZM3126.16021,285.24941h-124.95796c-9.86018,0-17.85713-7.89229-17.85713-17.71096,0-8.61096,6.2578-15.77466,14.53582-17.31576-1.19778-5.05009-1.8745-10.39162-1.8745-15.83736,0-37.37988,30.31047-67.70073,67.64885-67.70073,37.39071,0,67.70073,30.32085,67.70073,67.70073,0,5.44574-.66634,10.78727-1.916,15.83736,8.26764,1.54065,14.57732,8.70435,14.57732,17.31531,0,9.81912-7.98613,17.71141-17.85713,17.71141Z"/>
          <path class="cls-1" d="M2184.55545,301.2122c-47.1575-40.95158-66.73258-55.28934-66.73258-76.44703,0-21.83486,14.49386-36.84934,48.59393-36.84934,36.27684,0,55.13325,16.37874,66.74295,20.4706,11.59933,4.09186,15.95196-3.41515,15.95196-7.50747l-.00045-77.12375c0-24.57284-60.93269-36.17217-87.7653-36.17217-111.72369,0-154.51818,60.74546-154.51818,131.03891,0,60.05792,31.92421,91.46151,65.29569,124.21854,51.49929,51.1871,79.78955,67.56539,81.23682,97.60472.7286,19.78351-10.88111,38.89031-54.4042,38.89031-40.62901,0-76.16597-16.37874-82.69446-18.41925-10.16244-3.4156-13.78602,2.04052-13.78602,7.50701v75.07285c0,24.57284,60.93269,36.17217,110.26604,36.17217,118.97129,0,156.68457-70.98054,156.68457-137.18212,0-53.91471-23.20904-88.04636-84.87077-141.27399Z"/>
        </g>
      </g>
      <g>
        <polygon class="cls-2" points="3243.43722 104.47553 3242.77753 114.30855 3261.49056 114.30855 3261.49056 170.68191 3271.70454 170.68191 3271.70454 114.30855 3290.32931 114.30855 3289.68486 104.47553 3243.43722 104.47553"/>
        <polygon class="cls-2" points="3362.98332 104.47553 3331.94647 142.01904 3300.92423 104.47553 3299.79598 104.47553 3299.79598 171.6343 3309.9217 171.6343 3309.9217 131.16062 3331.66774 158.29968 3332.23981 158.29968 3354.00046 131.16062 3354.00046 171.6343 3364.11157 171.6343 3364.11157 104.47553 3362.98332 104.47553"/>
      </g>
    </g>
  </g>
</svg>