<svg width="25" height="24" viewBox="0 0 25 24" fill="none" xmlns="http://www.w3.org/2000/svg">
<path fill-rule="evenodd" clip-rule="evenodd" d="M16.8851 6.53962C17.234 5.27141 22.5 6.27188 22.5 9.56103L22.0612 16.8569C22.0612 18.1821 20.0887 17.6506 19.38 17.6506C19.38 19.1455 18.0535 21 16.6326 21C15.2117 21 14.3874 19.1455 14.3874 17.6506H9.64853C9.64853 19.1455 9.00067 20.5234 7.57976 20.5234C6.15886 20.5234 4.65589 19.1455 4.65589 17.6506H3.44221C1.85559 17.6506 2.75262 7.19578 2.75262 5.74599C2.75262 1.62408 10.8538 3.36507 13.0965 3.36507C14.2205 3.36512 15.0965 4.41244 15.1611 5.59678C15.1611 7.10093 15.4787 9.56103 15.4136 12.3029C15.7439 12.6831 16.3023 12.6831 16.6326 12.3029C16.8851 10.5078 16.5912 7.60785 16.8851 6.53962Z" fill="#F4F9FF"/>
</svg>
