<svg width="40" height="40" viewBox="0 0 40 40" fill="none" xmlns="http://www.w3.org/2000/svg">
<g clip-path="url(#clip0_2013_53906)">
<path d="M32.8985 0H7.10149C3.17945 0 0 3.17945 0 7.10149V32.8985C0 36.8206 3.17945 40 7.10149 40H32.8985C36.8206 40 40 36.8206 40 32.8985V7.10149C40 3.17945 36.8206 0 32.8985 0Z" fill="#E05B8B"/>
<path d="M30.9969 25.0513C30.4152 24.7757 27.5761 23.3978 27.0642 23.1911C26.529 23.0073 26.1566 22.9155 25.761 23.4667C25.3654 24.0408 24.2717 25.3269 23.9459 25.6944C23.6201 26.0848 23.2711 26.1308 22.6893 25.8322C22.1075 25.5566 20.2459 24.9365 18.0584 23.0073C16.3364 21.4916 15.1961 19.6313 14.8471 19.0572C14.5213 18.483 14.8005 18.1845 15.1031 17.8859C15.359 17.6333 15.6848 17.2199 15.9641 16.8983C16.2433 16.5768 16.3597 16.3242 16.5458 15.9567C16.732 15.5663 16.6389 15.2448 16.4993 14.9692C16.3597 14.6936 15.1961 11.8917 14.7307 10.7434C14.2653 9.64103 13.7766 9.77883 13.4276 9.75586H12.3106C11.915 9.75586 11.3099 9.89366 10.7747 10.4678C10.2628 11.042 8.77344 12.4199 8.77344 15.2218C8.77344 18.0237 10.8445 20.7337 11.1238 21.1012C11.403 21.4916 15.1961 27.2331 20.9673 29.6905C22.3402 30.2876 23.4107 30.6321 24.2484 30.8848C25.6214 31.3211 26.878 31.2522 27.8787 31.1144C28.9956 30.9536 31.2994 29.7364 31.7649 28.4044C32.2535 27.0724 32.2535 25.947 32.0907 25.6944C31.9278 25.4418 31.5787 25.3269 30.9969 25.0513Z" fill="white"/>
</g>
<defs>
<clipPath id="clip0_2013_53906">
<rect width="40" height="40" fill="white"/>
</clipPath>
</defs>
</svg>
