<svg width="24" height="24" viewBox="0 0 24 24" fill="none" xmlns="http://www.w3.org/2000/svg">
<path d="M5.30798 2C4.43065 2 3.58925 2.34731 2.96889 2.96553C2.34852 3.58374 2 4.42222 2 5.29651L2 7.93372C2 13.5378 8.06463 20.1308 15.8935 21.7791C17.8341 22.1876 19.571 22.117 20.879 20.8135C21.9869 19.7094 22.3912 16.9736 21.5511 15.6199C21.3571 15.3074 21.0796 15.0548 20.7496 14.8907L18.0027 13.0967C16.9397 12.5672 15.6072 13.1176 15.2319 14.2413C15.0528 14.7762 14.9556 15.6208 14.4181 15.9315C14.2203 16.0459 13.5389 16.2854 13.3146 16.2409C11.8941 15.9578 10.5894 15.262 9.56487 14.2413C8.75537 13.4348 6.80432 10.3766 7.54263 9.10823C7.89117 8.50942 8.92773 8.40071 9.52456 8.20227C10.4951 7.87929 11.0698 6.83514 10.8213 5.84593C10.5087 4.59975 10.5704 3.2803 9.46623 2.41982C9.11765 2.14818 8.68797 2.00042 8.24547 2H5.30798Z" fill="white"/>
</svg>
