<?xml version="1.0" encoding="UTF-8"?>
<svg id="Layer_1" data-name="Layer 1" xmlns="http://www.w3.org/2000/svg" version="1.1" viewBox="0 0 500 500">
  <defs>
    <style>
      .cls-1 {
        fill: #eae1db;
      }

      .cls-1, .cls-2, .cls-3 {
        stroke-width: 0px;
      }

      .cls-2 {
        fill: #ad2f35;
      }

      .cls-3 {
        fill: #ddc5b8;
      }
    </style>
  </defs>
  <path class="cls-1" d="M387,180.9s-7.7-19.5-16.1-21.8-9.3,2.9-13.8-3.2-21.2-13.5-41.4-18.9-41.3-10.6-48.4-11.9-8.6-1-14.9-2.2-27.5-5.5-33.9,0-61.6,57.8-65.8,63.9-10.6,12.2-10.6,12.2l-10,12.5-8,8.3s-6.1,4.5-6.1,11.6,2.6,13.8,2.6,13.8l161.1-40.8s107.1-19.6,105.3-23.5Z"/>
  <path class="cls-3" d="M121.1,253.2s-4.8-18.3,12.5-22.8,38.8-7.1,52.3-11.2,106-24.1,122.6-30.5,83.8-34.4,84.1,9,.6,64.2,0,74.8-1.6,35.6-5.5,44.6-9.3,21.2-24.5,25.9-231.7,27.1-231.7,27.1c0,0,1.8-4.2-4.5-8.7s1.8-16.9,3.1-19.9,3.1-23.3.2-28.6-10.1-13.8-2.1-25.5,3.7-20.2,1.6-22.6-8.2-11.6-8.2-11.6Z"/>
  <path class="cls-2" d="M307,211.8s-70.6,13.5-93.1,20.2-39.2,8-57.8,12.2-37.6-5.5-35,9,4.5,14.1,3.9,18.3-1.3,3.9-.6,6.4,2.2,3.2,2.2,7.1-4.8,3.5-1.6,6.4,71.9-10.9,81.6-13.8,39.5-11.6,48.2-13.2,53.3-7.3,73.2-14.4,50.7-5.5,51.4-16.7,12.2-31.5-8.7-30.5-63.6,9-63.6,9Z"/>
  <path class="cls-2" d="M371.9,250c-2.5.7-56.8,14.4-68.7,14.4s-33.7,3.9-48.8,13.8-53.6,7.1-66.1,10.6-58.1,13.2-60.7,12.8c0,0-1.6,5.8-1.9,11.2s1,5.8,1.9,10.3.3,4.8,0,8,1.3,3.2.6,6.4-2.6,4.8-1.3,6.7,3.2,2.2,3.2,2.2c0,0,53.3-11.2,72.9-15.4s32.4-8,40.8-9,23.8-1.6,41.4-12.8,53.3-9,70-15.4,23.1-3.5,23.4-19.3,2.8-27.4-6.7-24.7Z"/>
  <path class="cls-2" d="M369,304.9c-2,.6-55.2,14.1-72.9,19.3s-70.3,16.1-83.2,20.2-66.5,15.7-74.2,17-12.2,0-12.2,0c0,0,5.8,4.2,4.5,8.7s-1.3,9,0,15.1,4.2,7.7,3.9,11.6,2.6,4.5,2.6,4.5c0,0,6.7,4.8,27.3-4.8s97.9-26.3,110.1-29.5,96.3-23.8,98.2-28.6,3.9-35.8-4.2-33.4Z"/>
  <g>
    <path class="cls-2" d="M153,209.5c-.2-.4-.6-.7-1-.9-.8-.4-1.8-.6-2.7-.4-.8.3-1.7.8-2.1,1.6-.2.3-.3.6-.5,1-.3.4-.4.8-.4,1.3-.1.5,0,.9,0,1.4.1.5.3.9.6,1.2.2.4.6.7,1,.9.8.4,1.8.6,2.7.4.8-.3,1.7-.8,2.1-1.6.2-.3.3-.6.5-1,.3-.4.4-.8.4-1.3.1-.5,0-.9,0-1.4-.1-.5-.3-.9-.6-1.2Z"/>
    <path class="cls-2" d="M176.4,213c-.2-.2-.5-.4-.7-.5-.5-.3-1.1-.5-1.8-.5h-.5c-.5,0-.9,0-1.3.3-.4.1-.8.4-1.1.7-.3.3-.6.7-.7,1.1-.2.4-.3.9-.3,1.3,0,.3,0,.6.1.9.2.6.5,1.1.9,1.5.2.2.5.4.7.5.5.3,1.1.5,1.8.5h.5c.5,0,.9,0,1.3-.3.4-.1.8-.4,1.1-.7.3-.3.6-.7.7-1.1.2-.4.3-.9.3-1.3,0-.3,0-.6-.1-.9-.2-.6-.5-1.1-.9-1.5Z"/>
    <path class="cls-2" d="M195.1,193.9c.6-1.2.6-2.5,0-3.5.5-1.3.2-2.9-.8-3.8-1.5-1.3-3.5-1.3-4.9,0-2.7,2.4-1.9,6.8,1,8.6,1.6,1,3.9.4,4.8-1.3Z"/>
    <path class="cls-2" d="M186,195.4c-.2.1-.4.3-.6.4,0,0,0,0-.1,0-.1,0-.5,0-.6.1-.2,0-.4,0-.4,0-.1,0-.3,0-.4-.1,0,0,0,0-.1,0-1.7-.9-3.8-.4-4.8,1.3-.9,1.6-.4,3.9,1.3,4.8,2.9,1.5,6.5,1.5,9.3-.4,1.5-1.1,2.3-3.1,1.3-4.8-.9-1.5-3.2-2.3-4.8-1.3Z"/>
    <path class="cls-2" d="M201,203.7s0,0,0-.1c0,0,0,0,0-.1,0,0,0,0,0,0,1.4-1,2.4-3.2,1.2-4.8l-.9-1.3c-.6-.8-1.1-1.3-2.1-1.6-.8-.2-2-.1-2.7.4-1.2.8-2.1,2.5-1.7,3.9-.4.6-.7,1.3-.9,2-.5,1.8.6,3.9,2.4,4.3,1.9.4,3.8-.6,4.3-2.4,0,0,0-.1,0-.2ZM200.9,203.7s0,0,0,.1c0,0,0,0,0-.1Z"/>
    <path class="cls-2" d="M170.5,186.4c2.2.6,4.4-1.1,4.4-3.4,0-.7-.2-1.3-.6-1.9-.2-.4-.4-1,0,.2,0-.2-.2-.4-.2-.6-.2-.9-.5-1.9-.7-2.8,0-.1,0-.2-.1-.3.9-.6,1.8-1.3,2.7-2,.7-.6,1.3-1.2,1.8-2,2.4,1,5.8.2,6.9-2.6,1.1,1.1,2.9,1.4,4.2.6,1-.7,1.7-1.8,1.7-3,.1,0,.3-.1.4-.2.7-.4,1.4-1.3,1.6-2.1.4-1.7-.5-4-2.4-4.3-1.3-.2-2.5-.1-3.7.4-.9.4-1.7,1.2-2.2,2,0,.1-.2.3-.2.4-1.5-2.7-4.3-4.6-7.7-4.4-2.5.2-4.8,1.5-6.2,3.6-1,1.4-1.2,2.8-1.3,4.3-.8.5-1.5,1.1-2.3,1.6-1.3.9-2.5,1.7-3.8,2.6-1.3.1-2.6.5-3.9,1.2-2.8,1.4-5,4.1-5.8,7.2-.1.5-.1,1.1-.1,1.6-.8.6-1.5,1.8-1.8,2.7-.3,1.2-.2,2.8.5,3.9.7,1.1,1.7,2,3,2.3,1.4.3,2.5,0,3.9-.5,1.7-.7,3.4-1.4,5.1-2.2,1.1-.5,2-1.9,2.3-3,.2-.9.2-2,0-2.9.5,0,1,0,1.5,0,.2.9.4,1.7,1.1,2.4.5.5,1.2,1,2,1.2ZM188.9,168.9s0,0,0,0c0,0,0,0,0,0,0,0,0,0,0,0Z"/>
    <path class="cls-2" d="M211,157.4s0,0,0,0c0,0,0,0,0,0,0,0,0,0,0-.1,0,0,0,0,0,0Z"/>
    <path class="cls-2" d="M211.1,152.3c-1.5-1.4-3.5-1.3-4.9,0-2.8,2.4-2.8,7.3,0,9.8,1.4,1.2,3.6,1.4,4.9,0,1.2-1.3,1.4-3.6,0-4.9,1.3-1.2,1.3-3.7,0-4.9ZM211,157.1s0,0,0,0c0,0,0,0,0,0,0,0,0,0,0,0ZM210.9,157.5s0,0,0,0c0,0,0,0,0,0ZM211,157.4c0,0,0,.1,0,0,0,0,0,0,0,0,0,0,0,0,0,0h0s0,0,0,0c0,0,0,0,0,0,0,0,0,0,0,0,0,0,0,0,0,0,0,.1,0,.1,0,.1Z"/>
    <path class="cls-2" d="M194.6,148.7c.6-1.1.9-2.4.9-3.6,0-.4,0-.8,0-1.2,1.2-1.2,1-3.6-.2-4.7-1.5-1.4-3.4-1.2-4.9,0-1.3,1.1-1.9,2.9-1.9,4.6,0,0,0,0,0,.1-.5.2-1,.4-1.3.8-1.4,1.5-1.3,3.5,0,4.9,2,2.4,6,1.6,7.5-.9ZM188.4,145.6s0,0,0,0c0,.3,0,.3,0,0ZM191.6,144.4c.1,0,.2.2.4.3-.1-.1-.2-.2-.4-.3Z"/>
    <path class="cls-2" d="M299.3,136.3c.9-.1,1.7-.2,2.6-.3,1-.1,1.8-.3,2.5-1s1.1-1.6,1-2.5c0-.9-.3-1.8-1-2.5-.6-.6-1.6-1.1-2.5-1-.9.1-1.7.2-2.6.3-1,.1-1.8.3-2.5,1-.6.6-1.1,1.6-1,2.5,0,.9.3,1.8,1,2.5.6.6,1.6,1.1,2.5,1Z"/>
    <path class="cls-2" d="M346.9,168.5c0,0,0-.1,0-.2,0,0,0,0,0,0,0,0,0,0,0,.1Z"/>
    <path class="cls-2" d="M347.8,167.1c.3-.3.6-.6.9-.9,1.6-1.4,1.5-4.3,0-5.7-1.7-1.6-4-1.5-5.7,0-1.9,1.6-3.2,3.8-4,6.2-.7,2,.8,4.5,2.8,4.9,2.2.5,4.2-.7,4.9-2.8,0,0,0-.2.1-.3,0,.2-.2.3,0,0,0,0,0,0,0,0,0,0,0,0,0,0,0,0,0,0,0,0,.2-.3.4-.7.6-1,0,0,.2-.3.3-.3Z"/>
    <path class="cls-2" d="M331.5,161.9c.4.4.8.7,1.3.8.5.3,1,.4,1.5.3h.2c.1,0,.2,0,.4,0,.4,0,.7,0,1.1-.1.7-.2,1.3-.5,1.8-1,.2-.3.4-.5.6-.8.4-.6.5-1.3.5-2,0-.7-.2-1.5-.6-2.1-.4-.6-.9-1.1-1.5-1.5-.7-.4-1.5-.6-2.2-.6-.2,0-.5,0-.6,0-.2,0-.4,0-.6,0-.4,0-.7.3-1.1.5-1.2.8-2.1,2.2-2.1,3.6,0,.6,0,1.1.3,1.5.2.5.4.9.8,1.3ZM331,160.1s0,0,0,0c0,0,0,0,0,0,0,0,0,0,0,0Z"/>
    <path class="cls-2" d="M330.2,174.4c-.3-1-.9-1.9-1.8-2.4-.9-.5-2.1-.8-3.1-.4-.8.3-1.6.6-2.4.9-.9.3-1.9.9-2.4,1.8-.5.9-.8,2.1-.4,3.1.4.9.6,1.5,1.3,2.2.6.6,1.4,1.1,2.2,1.3,1.4.4,2.9.3,4.1-.5.9-.5,1.6-1.4,1.8-2.4,0,0,0,0,0-.1,0-.1.2-.2.3-.4.5-.9.7-2.1.4-3.1Z"/>
    <path class="cls-2" d="M320.9,164.5c1.1,0,2-.4,2.8-1.2,1.8-1.7,1.6-4.6,0-6.3-.5-.5-1.1-.9-1.7-1.2-.3-.1-.5-.2-.8-.3,0,0,0,0-.1,0-.4-.2-.8-.4-1.1-.5-1-.3-2.2-.1-3.1.4-.9.6-1.6,1.4-1.8,2.4,0,.4,0,.7-.1,1.1,0,.7.2,1.4.5,2,.2.4.5.8.8,1.1.4.4.9.7,1.5,1,0,.1.2.2.3.3.8.7,1.8,1.2,2.8,1.2Z"/>
    <path class="cls-2" d="M307.4,156.7c-1,0-2.1.4-2.8,1.2-.2.3-.4.5-.6.8-.4.6-.5,1.3-.5,2,0,.7-.2,1.5-.3,2.2-.2,0-.4.1-.6.2-.5.2-.9.4-1.3.8-.4.4-.7.8-.8,1.3-.1.2-.2.4-.2.7,0-.9,0-1.8-.3-2.7-.4-1.6-2.1-2.7-3.7-2.6,0-.2-.2-.3-.3-.5-.9-1.6-3.2-2.3-4.8-1.3-1.6,1.1-2.2,3.1-1.3,4.8,1.2,2.1,2.6,4.1,4.2,6,1.7,1.9,5.3.9,5.8-1.5,0-.4.1-.7.2-1.1,0,.3,0,.6.1.9.2.7.5,1.3,1,1.8.3.2.5.4.8.6.6.4,1.3.5,2,.5h.3c.6,0,1.1,0,1.5-.3.5-.2.9-.4,1.3-.8.4-.4.7-.8.8-1.3.2-.4.3-.8.3-1.3.6-.2,1.1-.5,1.5-.9.2-.3.4-.5.6-.8.4-.6.5-1.3.5-2,.1-.9.2-1.7.3-2.6.1-.9-.5-2.2-1.2-2.8s-1.8-1.2-2.8-1.2Z"/>
    <path class="cls-2" d="M248.1,192.5c-.6,0-1.1,0-1.6,0-1.2-1.2-2.7-2.1-4.7-2.2-1.7,0-3.3.4-4.6,1.6-.6.6-1.1,1.2-1.4,1.9-.2.4-.4,3-.5,3.2-.5.6-4.4.4-5.7.8-1.9.6-3.7,1.7-4.9,3.3-1,1.3-1.5,2.9-1.6,4.4-2.1.7-4.2,1.7-6.1,3.1-3.3,2.5-1.6,8.8,3.1,7.3,10.5-3.3,20.8-7.1,30.9-11.4,1.9.4,4.1-.3,4.9-2.6,1.9-5-3.2-9.1-7.8-9.5Z"/>
    <path class="cls-2" d="M229.4,195.2v-2.9c0-2.1-1.8-4.1-4-4-2.2,0-4,1.8-4,4v2.9c0,2.1,1.8,4.1,4,4,2.2,0,4-1.8,4-4Z"/>
    <path class="cls-2" d="M219.6,202.4c3.8-3.5-1.9-9.2-5.7-5.7-2,1.8-4.5,2.6-5.9,5-1.1,2-.3,6.8-3.4,7.1-3.8.5-5.6,5.2-2,7.5,1.1.7,1.3,1.6,1.8.5-2.3,4.6,4.6,8.6,6.9,4,1.3-2.5,1.1-4.8,0-6.8,1-.9,1.9-2,2.5-3.4.7-1.5.4-3.9,1.2-5.2.8-1.2,3.4-2.1,4.5-3.2Z"/>
    <path class="cls-2" d="M139.8,222.4c-.2-.1-.3-.3-.5-.4-.4-.2-.8-.3-1.3-.3-.2,0-.4,0-.7,0-.4.1-.8.3-1.1.6l-.7.7c-.2.2-.4.5-.5.8-.2.3-.2.6-.2,1,0,.3,0,.7.2,1,.1.3.3.6.5.8.2.1.3.3.5.4.4.2.8.3,1.3.3.2,0,.4,0,.7,0,.4-.1.8-.3,1.1-.6.2-.2.5-.5.7-.7.2-.2.4-.5.5-.8.2-.3.2-.6.2-1,0-.3,0-.7-.2-1-.1-.3-.3-.6-.5-.8Z"/>
    <path class="cls-2" d="M286.7,202.6c-.2-.3-.4-.5-.6-.7-.2-.2-.5-.4-.9-.4-.2,0-.4,0-.7,0-.5,0-.9.1-1.3.3-.2.1-.3.3-.5.4-.3.3-.5.7-.6,1.1-.2.7-.5,1.4-.7,2.2-.1.3-.1.7,0,1,0,.3.1.6.3.9.2.3.4.5.6.7.2.2.5.4.9.4.2,0,.4,0,.7,0,.5,0,.9-.1,1.3-.3.2-.1.3-.3.5-.4.3-.3.5-.7.6-1.1.2-.7.5-1.4.7-2.2.1-.3.1-.7,0-1,0-.3-.1-.6-.3-.9Z"/>
    <path class="cls-2" d="M273.9,178.7c.4.1,1.7,2.1,2.3,2.4,6.8,4.3,16.6.7,22.1-4,2.9-2.5-1.3-6.8-4.2-4.2-.2.2-.4.3-.5.4,0-.1.1-.2.2-.3.2-.4.3-.9.3-1.3,0-.3,0-.6-.1-.9-.2-.6-.5-1.1-.9-1.5-.2-.2-.5-.4-.7-.5-.5-.3-1.1-.5-1.8-.5h-.5c-.5,0-.9,0-1.3.3-.3,0-.5.3-.8.4-1.1-.9-2.4-1.5-4-1.7-2-.2-3.6.4-4.9,1.3-1.8-1.5-4-2.6-6.6-2.7-.6,0-1.2,0-1.9,0,0-.4,0-.9-.1-1.3.3-.5.5-1.1.4-1.7,0-1.8-1.5-3.6-3.5-3.5-2.5.1-4.9,1.3-5.9,3.7-.6,1.4-.5,3,.1,4.4-.1.1-.2.2-.3.4-3-.7-6.3-.3-9,1.4,0-.4-.2-.7-.3-1-.1-.3-.3-.7-.5-.9,1.7-.2,3.2-.9,4.2-2.4.8-1.3,1.1-2.8.6-4.3-.2-.6-.5-1.1-.9-1.5,0-.9-.2-1.8-1-2.6-1.3-1.2-3.7-1.5-4.9,0-1,1.3-1.7,2.7-1.9,4.2-.1-.4-.3-.9-.5-1.3-.2-.4-.5-.7-.8-1,0-.2,0-.5,0-.7l3.2-2.7c1.8-1.5,1.7-4.8,0-6.4-.5-.4-1-.7-1.5-1,.3-.1.6-.3.9-.5.5-.1.9-.3,1.3-.6.9-.6,2.6-1.9,4.3-2.8-.1.5-.2,1-.4,1.5-.1.2-.3.3-.4.5-.4.8-.6,1.8-.4,2.7,0,0,0,.2.1.3.2,3,2.8,6.3,6.2,4.9,1.1-.4,2.2-.9,3.3-1.3.3,1.1,1.1,2.1,2.4,2.4.4,0,.9.1,1.3,0,.6,2.1,1.9,4,3.6,5.5,1.6,1.4,3.4,1.5,4.9,1,.3.6.8,1.2,1.4,1.5.4.5.8,1.1,1.2,1.6.5.6.9,1.1,1.7,1.4.7.3,1.5.4,2.3.2,1.5-.5,2.5-1.8,2.6-3.4.2-3.2-2.4-5.9-5.4-6.3,0-.4,0-.8-.2-1.2.3,0,.6-.2.7-.2.8-.2,1.7-.3,2.5-.4.8,1.7,2.4,3.1,4.1,3.4,1,.2,1.8.2,2.7-.4.7-.4,1.4-1.3,1.6-2.1.2-.9.2-1.9-.4-2.7,0-.1-.2-.3-.3-.4,1.2-1.4,1.5-3.7.9-5.5.5,0,1-.3,1.5-.6-.1.2-.2.5-.3.7-.2.9-.2,1.9.4,2.7.2.2.4.5.5.7.4.4,1,.7,1.5.9,0,0,.1,0,.2,0,.3,0,.7.1,1,.1.4,0,.8,0,1.2-.2.8-.2,1.5-.6,2.1-1.2.6-.6,1-1.3,1.2-2.1,0-.2,0-.4,0-.6,0-.2,0-.4,0-.6,0-.4,0-.9-.2-1.3-.3-.9-.8-1.6-1.6-2.1-.8-.4-1.9-.6-2.7-.4-.4.1-.8.3-1.1.6,0,0,0,0,0,0,.4-.8.6-1.8.4-2.7-.1-.3-.2-.6-.4-.8-.3-.5-.7-.9-1.3-1.3-.1-.1-.3-.2-.5-.3,0,0,0-.2,0-.3,0-.3-.2-.6-.4-.8,0-.2,0-.5-.1-.7-.6-1.8-2.4-3-4.3-2.4-.6.2-1.3.4-1.9.6-1.5.5-2.6,1.8-2.6,3.4,0,.5,0,.9,0,1.4,0,1.1.5,2.1,1.4,2.7.5.4,1,.6,1.5.7,0,.1,0,.2,0,.3-2.9-1.1-5.7-1.4-8.5-.9-.3-.6-.7-1.1-1.2-1.6,1.2-1.1,2-2.6,2.4-4.3,3.7.3,5-5.6,1-6.9-.9-.3-2-.7-3.2-1.2-1.8-2-4.5-3.3-7.4-3.2-2.8,0-3.8,2.7-3.2,4.8-.4.8-.7,1.7-.8,2.6-.2-.2-.5-.4-.7-.6-.4-.3-.8-.4-1.3-.4-.5-.1-.9,0-1.4,0l-1.3.5c-.4,0-.7.2-.9.5-.6-.2-1.3-.2-2-.3.2-.4.4-.7.5-1.1.6-1.7-.7-3.9-2.4-4.3-1.1-.2-2,0-2.8.5,0,0,0,0,0,0-.8-.2-2-.1-2.7.4-.7.5-1.4,1.2-1.6,2.1-.2.9-.2,2,.4,2.7.5.7,1,1.2,1.7,1.6-1.3.6-2.5,1.2-3.5,1.9-.3-.2-.5-.3-.8-.5-3.1-1.7-6,0-7.1,2.6-.2,0-.4-.2-.6-.2-.1,0-.3,0-.4,0,1.9-.7,3.4-2.4,3.3-4.6,0-1.1-.4-2.1-1.1-3,.3-.4.4-.8.5-1.3.3,0,.6,0,.9.1.1.1.2.3.3.4,1.3,1.3,3.6,1.4,4.9,0,.2-.2.4-.5.5-.7.7-.3,1.3-.6,1.8-1.1.9-.9,1.5-2.3,1.5-3.5,0-1.3-.5-2.6-1.5-3.5-.9-.8-2-1.3-3.1-1.4.2-.2.3-.4.4-.6.4-.8.6-1.9.4-2.7-.6-1.9-2.4-2.8-4.3-2.4-1,.2-1.9.4-2.9.5-.8.2-1.7.9-2.1,1.6-.4.8-.6,1.9-.4,2.7,0,0,0,.1,0,.2-.8-.1-1.5-.1-2.3,0,0,0-.1,0-.2,0-.5,0-1,0-1.5.2-.8-.6-1.7-.9-2.8-.9h-3.6c-.2,0-.4,0-.7,0-.9-.4-2-.4-2.9,0-5.2,2.1-10.5,4.1-15.7,6.2-2.1.8-3.6,2.4-3.7,4.8,0,1.2,0,2.3,0,3.5-.6,0-1.1.2-1.7.4-.8.4-1.5,1.1-1.9,1.9-.5.8-.7,1.7-.8,2.6,0,.8.4,1.9,1,2.5s1.6,1.1,2.5,1c.3,0,.7,0,1-.2,0,0,0,0,0,0,.8.2,2,.1,2.7-.4.5-.3.9-.7,1.2-1.2,3.3.4,6.1,0,9-1.7.4-.2.8-.5,1.1-.7.7,1.6,2.4,2.6,4.1,2.1,1.3-.4,2.6-.7,3.8-1.1.3,0,.6-.3.9-.4,0,.3,0,.5.2.7,0,0-.1.1-.2.2-.3,0-.7-.1-1-.1-2.3,0-4.2,1.4-5,3.6-1.2,3,.5,5.8,2.9,7.4-4.2,2.1-7.5,6-9,10.6-.1.4-.2.9-.2,1.4-.6,1.5,0,3.6,1.5,4.3,2.5,1.1,5.8,3.4,8.5,1.8.6-.4,1.1-.8,1.5-1.4,1.3-.7,2.2-1.9,2.2-3.8v-1.5c0-.2,0-.4,0-.5.1-.1.2-.3.3-.4.9-1,1.2-2.1,1.2-3.1.3,0,.6-.2.9-.2,2.4-.4,3.7-3.4,3.1-5.5-.3-1-.9-1.8-1.6-2.4.2-.2.3-.4.5-.7,0,0,0-.1,0-.2.9.2,1.8.4,2.7.6,1.7.4,3.5,0,4.8-1.2.5.3,1,.4,1.6.4.2.2.4.3.7.4.3.1.5.2.8.3-.3.2-.7.4-1,.7-.3.3-.6.5-.9.8-.5.2-.9.4-1.3.8-.3.3-.5.5-.6.8-.5.4-1,.8-1.5,1.3-1.5,1.2-1.6,3.7-.7,5.3-.8,1.6-1,3.5-.7,5.3-5.5-.3-10.1,2.9-12.1,8.2-1,2.5.4,4.4,2.4,5.1-.9.4-1.5,1.1-1.8,2.1-.4,1.8.5,3.9,2.4,4.3,3.1.7,6-.1,8.3-2.1,1.4-1.2,1.3-3.7,0-4.9-1-.9-2.3-1.2-3.4-.8.3-.4.5-.8.7-1.3.2-.4.4-.8.8-1,.5.7,1.1,1.3,1.9,1.8,1.3.9,3,1.2,4.5,1.2,1.1,0,2.8-.8,4.1-1,.2.2.5.3.8.4.5.3,1.1.4,1.7.4.3,0,.6,0,.9-.1.6,3.2,4.7,5.6,7.5,2.5,1.6-1.7,3.8-1.4,4.9.6,1.3,2.4,4.6,2.7,6.6,1.3.2,0,.4.1.7.1,1.1.1,2,.1,3.1-.1.5-.1,2-1,2.4-.9ZM247.7,165.4c.1-.3.2-.6.2-.9.1.3.2.6.4.9-.2,0-.3,0-.5,0,0,0,0,0,0,0,0,0,0,0,0,0ZM254.4,162s0,0,0,0c.3.6,0,.3,0,0ZM277.6,163s0,0,0,0c0,0,0,0,0,0s0,0,0,0c0,0,0,0,0,0,0,0,0,0,0,0ZM277.8,163.3s0,0,0,0c0,0,0,0,0,0ZM293.6,144.9s0,0-.1,0c0,0-.2.1-.3.2,0,0,0-.1.1-.2.1,0,.3-.1.4-.2,0,0,0,0,0,0,0,0,0,0,0,.1ZM265.8,137.9c.1-.2.3-.4.4-.5.3.9.7,1.7,1.1,2.4-.8.2-1.5.5-2.3.8,0-.6,0-1.1,0-1.7.3-.3.5-.6.8-.9ZM255.5,129.4c-.2-.2-.3-.4-.5-.6.2.2.4.4.5.6ZM290.5,175.2s0,0,0-.1c0,0,.2,0,.2,0,0,0-.2,0-.3.1Z"/>
    <path class="cls-2" d="M393,176.8c-4.6-7.4-9.9-14.3-15.9-20.6-2.4-2.6-5.7-1.6-7.3.6-.1,0-.3-.1-.4-.2-.5-.3-1-.5-1.5-.5-.5-.1-1.1,0-1.6,0-.5.1-1,.4-1.4.7-.4.3-.8.7-1,1.1-.1.2-.2.4-.3.6,0-1-.4-2-1.2-2.7-.8-.7-1.7-1.2-2.8-1.2h-.9c.1-.9,0-1.8-.5-2.5l-.6-.8c-.5-.5-1.1-.8-1.8-1-.5-.2-1-.4-1.5-.6-.3-.8-.8-1.5-1.6-1.9-1.8-1.1-3.9-1.4-5.9-1.1-.8-.5-1.8-.6-3-.3-1,.3-2.1.5-3.1.2,0-.1,0-.2,0-.3-.7-2.4-2.7-3.6-5-3.8-2.1-.2-4,2-4,4-.3-.3-.5-.6-.8-.9.5-.3.9-.7,1.2-1.2,1-1.7.5-4.6-1.4-5.5-3.8-1.7-8.4-.9-10.7,2.9-.5-1.6-1.6-3-3.4-3.4-1.3-.4-2.6-.5-3.9-.4,0-.3,0-.5-.1-.8-.2-.6-.5-1.1-.9-1.5-.1-.1-.2-.2-.3-.3-.3-.3-.7-.6-1.1-.7-.4-.2-.9-.3-1.3-.3-.5,0-.9,0-1.3.3-.4.1-.8.4-1.1.7-.2.2-.4.5-.5.7-.3.5-.5,1.1-.5,1.8,0,.3,0,.6.1.9.2.6.5,1.1.9,1.5-.4.3-.7.5-1.1.8-1.7,1.4-1.9,4.4-.7,6.3-.7,0-1.4.4-2,1l-.8.9c-.8,1-1.3,2.1-.9,3.4.3,1.1,1.3,2.3,2.4,2.4,1.6.2,3,.2,4.5-.4,1.1-.5,2-1.2,2.7-2,0,0,0,0,0,0,.4.2.9.3,1.3.3h.9c.6-.3,1.1-.6,1.5-1,.2-.2.4-.5.5-.7.3-.5.5-1.1.5-1.8v-.6c0-.2,0-.4,0-.6,1.2,0,2.4-.6,3.3-1.4.1,2.5,1.3,4.9,3.2,6.5,3.1,2.6,9.6,3.9,11.1-1.2,0-.2.1-.4.1-.6,0,0,.1.1.2.2,3.5,2.8,7.9,4.1,12.3,2.8.8.4,1.6.5,2.6.3,0,0,.2,0,.3,0,0,0,.1,0,.2,0,0,0,0,0,.1,0,.3.2.6.3.8.3,0,.2.1.4.2.5.2.3.4.5.6.8.5.5,1.1.8,1.8,1l1.6.6c.2,0,.4,0,.6.1,0,.2,0,.3,0,.5,0,1,.4,2.1,1.2,2.8.8.7,1.7,1.2,2.8,1.2h1.3c1,0,2.1-.4,2.8-1.2.4-.4.7-.8.8-1.3,0,0,0-.1,0-.1,0,.3,0,.6.1,1,.3,1,.9,1.9,1.8,2.4l1,.5c0,1.4,0,2.9,0,4.3,0,2.3,1.5,4.1,3.7,4.8,0,0,0,0,0,0,.1,1.2.5,2.5,1,3.6,1.9,3.6,5.9,5,9.6,5.6,1.2.2,2.4,0,3.5-.4,3.4,5.3,12,.3,8.6-5.1ZM304.8,148.4s0,0,0,0c0,0,0,0-.1,0,0,0,0,0,0,0Z"/>
    <path class="cls-2" d="M361.9,167.1c-1-.9-2.2-1.5-3.5-1.5-1.3,0-2.6.5-3.5,1.5l-.8.8c-.2,0-.4.2-.6.3-.3.2-.5.4-.8.6-.1.1-.2.2-.3.4-.4.3-.7.6-.9,1-.1.3-.3.6-.4,1-.2.7-.2,1.4,0,2.1.1.3.3.6.4,1,.4.6.8,1.1,1.4,1.4,0,0,0,0,0,0,.3.1.6.3,1,.4,0,0,0,0,.1,0,.9.6,1.9,1,2.9,1,1.3,0,2.6-.5,3.5-1.5.5-.5,1-1,1.4-1.4.5-.5.8-1,1-1.6.3-.6.5-1.2.4-1.9,0-.7-.1-1.3-.4-1.9-.2-.6-.5-1.2-1-1.6Z"/>
    <path class="cls-2" d="M345,173.6c-1.2.7-2.4,1.4-3.6,2.2-1.1.6-1.8,1.7-2.2,2.9-.5-.2-.9-.5-1.4-.7-.6-.4-1.2-.6-1.9-.6-.7-.1-1.3-.1-2,0-.7.2-1.2.5-1.7.9-.5.4-1,.8-1.3,1.4-.6,1.2-.9,2.6-.5,3.9.4,1.2,1.1,2.4,2.3,3s1,.5,1.4.7c.6.4,1.2.6,1.9.6.7.1,1.3.1,2,0,.7-.2,1.2-.5,1.7-.9.5-.4,1-.8,1.3-1.4.2-.4.3-.7.5-1.1,1.5.9,3.4,1,5,0,1.2-.7,2.4-1.4,3.6-2.2,2.2-1.3,3.3-4.6,1.8-6.8-1.5-2.3-4.4-3.2-6.8-1.8Z"/>
    <path class="cls-2" d="M145.7,206.7c-.8-2.3-3.5-4.5-6.2-3.5-4,1.6-7.5,3.8-10.3,7.1-1.1,1.3-1.6,3-1.3,4.5-.2,0-.5,0-.7,0h-1.4c-.7,0-1.3.1-1.9.4-.6.2-1.2.5-1.6,1-.5.5-.8,1-1,1.6-.3.6-.5,1.2-.4,1.9,0,1.3.5,2.6,1.5,3.5,1,.9,2.2,1.5,3.5,1.5h1.4c.7,0,1.3-.1,1.9-.4.6-.2,1.2-.5,1.6-1,.5-.5.8-1,1-1.6.3-.6.5-1.2.4-1.9,0-.3,0-.7-.1-1,1.6.3,3.2-.1,4.3-1.4.1-.2.3-.3.4-.5-.5,1.8.6,3.9,2.4,4.3,1.8.4,3.8-.6,4.3-2.4,0,0,0-.1,0-.2,0,0,0,0,0-.1.2-.2.3-.4.5-.5.7-.5,1-1.7,1-2.5s-.4-1.9-1-2.5c-.3-.3-.6-.5-.9-.6,1.9-1.2,3.2-3.3,2.5-5.6Z"/>
    <path class="cls-2" d="M306.8,179.6c-2.1-1.6-4.7-1.4-7.1-.6-1.7.6-3,2.4-2.4,4.3.6,1.7,2.4,3.1,4.3,2.4.1,0,.2,0,.4-.1.2.9.8,1.7,1.6,2.1,1.7.9,3.7.4,4.8-1.3,1.5-2.3.6-5.3-1.5-6.9ZM302.1,183.3c0,0,0-.2.1-.3,0,0,0,.2-.1.3ZM302.9,185.4s0,0,0,0c0,0,0,0,.1,0,0,0,0,0,0,0,0,0-.1,0-.2,0Z"/>
    <path class="cls-2" d="M277.8,189.4c-.8-.4-1.8-.7-2.7-.4l-2.2.7c-.9.3-1.6.8-2.1,1.6-.4.8-.6,1.9-.4,2.7.3.8.8,1.7,1.6,2.1.8.4,1.8.7,2.7.4.7-.2,1.4-.5,2.2-.7.9-.3,1.6-.8,2.1-1.6.4-.8.6-1.9.4-2.7-.3-.8-.8-1.7-1.6-2.1Z"/>
    <path class="cls-2" d="M133.1,232.1c-.4.2-.8.4-1.3.6v-.6c-.2-.4-.4-.8-.7-1.1-.2-.1-.3-.3-.5-.4-.4-.2-.8-.3-1.3-.3h-.7c-.3,0-.7,0-1,.2-.3.1-.6.3-.8.5-.2.2-.4.5-.5.8-.2.3-.2.6-.2,1,0,.2,0,.4,0,.7.1.4.3.8.6,1.1.2.1.3.3.5.4.2,0,.3.2.5.2-1,.8-2,1.6-3,2.4v-.5c0-1.8-1.6-3.6-3.5-3.5-1.9,0-3.5,1.5-3.5,3.5v2.9c0,1.8,1.6,3.6,3.5,3.5,1.2,0,2.3-.7,2.9-1.7,1.1,1.6,3.5,2.5,5.4.8,2-1.9,4.3-3.3,6.8-4.5,1.7-.8,2.1-3.3,1.3-4.8-1-1.8-3.1-2.1-4.8-1.3Z"/>
  </g>
</svg>