<svg width="20" height="20" viewBox="0 0 20 20" fill="none" xmlns="http://www.w3.org/2000/svg">
<path d="M4.40005 7.18256C5.46128 7.07669 7.05154 6.48042 7.64156 5.592C9.03753 7.69587 12.2008 8.0904 13.0416 5.592C15.3286 9.03049 21.0246 5.4 19.6417 1.8C19.1943 0.635415 17.8603 0.000942092 16.5396 0H3.54356C-0.520348 0.000867926 -0.191091 7.64059 4.40005 7.18256ZM2.24169 8.6C3.95807 9.4494 6.04841 9.06268 7.64156 8C9.43534 9.20168 11.2417 10.4 13.0416 8.2904C14.6347 9.35308 17.0252 8.6494 18.7416 7.8V17C19.0416 18.8 18.6644 18.8 17.3015 18.8C16.2419 18.8 12.7416 19.6781 12.7416 17.9C12.7416 16.9391 13.1959 13.2 11.5416 13.2C10.6715 13.2 7.64156 12.6114 7.64156 14.1C7.64156 15.0609 8.69592 18.8 7.04156 18.8H3.30147C1.93026 18.8 1.80147 18.6 1.94156 17L2.24169 8.6Z" fill="#36BAC7"/>
</svg>
