<svg width="64" height="64" viewBox="0 0 64 64" fill="none" xmlns="http://www.w3.org/2000/svg">
<path d="M27.7891 56.7868C24.9652 56.7587 22.1706 56.4636 19.4271 55.757C18.0505 55.4024 16.6472 55.1627 15.2981 54.6984C14.8177 54.5332 14.3597 54.3275 13.9406 54.0317C13.0738 53.4211 12.647 52.5813 12.5111 51.5117C12.3542 50.2768 12.2196 49.0472 12.256 47.8019C12.2598 47.685 12.2534 47.5674 12.2592 47.4505C12.2885 46.8158 12.3925 46.74 12.9672 47.0411C14.3412 47.762 15.832 48.1395 17.2864 48.6253C18.1558 48.9153 19.0354 48.9329 19.9272 48.7278C20.3514 48.6305 20.7858 48.5829 21.2113 48.4941C22.2931 48.2688 23.3539 48.4425 24.4109 48.6599C26.0573 48.9988 27.7285 49.0158 29.396 49.0726C29.8597 49.089 30.3171 48.9975 30.7394 48.8173C31.9003 48.3223 33.0695 48.4288 34.2452 48.7141C34.6904 48.8225 35.1261 48.9714 35.5707 49.0818C36.6895 49.3593 37.7574 49.2751 38.7129 48.5502C40.0837 47.5113 41.5777 47.3069 43.2075 47.7594C44.8793 48.2231 46.5512 48.1956 48.218 47.6595C49.1985 47.3434 50.2178 47.4982 51.2199 47.5478C51.6314 47.5681 51.7487 47.7385 51.6996 48.1532C51.6441 48.6168 51.6065 49.104 51.4362 49.5278C51.1153 50.3284 50.8614 51.1564 50.5157 51.9446C49.9697 53.1887 48.9676 53.9468 47.797 54.5071C46.1417 55.2999 44.3812 55.7067 42.5862 55.9784C40.6591 56.269 38.718 56.3617 36.7725 56.4244C34.0742 56.5112 31.3785 56.664 28.6822 56.7849C28.3849 56.7986 28.087 56.7868 27.7891 56.7868Z" fill="#C67D45"/>
<path d="M42.9132 38.4047C42.8175 38.4654 42.7983 38.4889 42.7786 38.4889C40.9836 38.4856 39.267 39.1178 37.4828 39.1844C35.7912 39.2477 34.1001 39.2993 32.4046 39.1628C30.5828 39.0166 28.7578 38.7886 26.9258 39.0779C26.4513 39.1524 25.9684 39.1831 25.4893 39.0923C24.2116 38.8507 22.9314 38.8944 21.6652 39.1341C20.4736 39.3607 19.3101 39.3058 18.1313 39.0459C17.0131 38.7997 15.8802 38.6247 14.7512 38.4341C14.1382 38.3302 13.5169 38.389 12.8994 38.3707C12.3451 38.3544 12.2698 38.2812 12.2513 37.7092C12.1971 36.0002 12.1843 34.2887 12.0944 32.581C11.9725 30.2621 11.9547 27.9439 11.977 25.623C11.9808 25.2227 12.0172 24.8276 12.1116 24.4391C12.1703 24.1968 12.3023 24.0218 12.532 23.9193C12.9613 23.7279 13.1915 23.8834 13.1418 24.364C13.0187 25.5518 12.8452 26.7358 12.7591 27.9256C12.6015 30.0975 12.4439 32.2721 12.8133 34.4415C12.9045 34.9776 13.0767 35.4843 13.2592 35.9898C13.3312 36.189 13.432 36.3738 13.5832 36.5233C14.1114 37.0451 14.8743 36.874 15.1409 36.1746C15.2602 35.8611 15.2481 35.532 15.2589 35.2035C15.3157 33.492 15.1007 31.783 15.1671 30.0747C15.2277 28.5309 15.2034 26.982 15.3788 25.4434C15.4586 24.7441 15.4592 24.7441 16.1418 24.9804C17.1177 25.3194 18.1007 25.6367 19.0671 26.0024C20.2874 26.4635 21.551 26.6254 22.8383 26.6653C23.4207 26.6829 23.4545 26.6999 23.2924 27.266C22.9001 28.64 22.5468 30.0238 22.379 31.4467C22.2144 32.8448 22.1353 34.2482 22.4517 35.6385C22.5927 36.2595 22.8121 36.8492 23.2019 37.3592C23.5221 37.7778 23.9169 38.0801 24.4247 38.2186C25.2055 38.4308 25.8855 38.1533 26.3116 37.4454C26.6681 36.8531 26.8174 36.1857 26.9093 35.5137C27.0419 34.5401 27.144 33.5605 27.2129 32.5797C27.322 31.0366 27.4897 29.5007 27.6734 27.9667C27.7462 27.3633 27.9178 26.7756 28.1117 26.197C28.2424 25.8052 28.46 25.5662 28.8931 25.5323C29.3945 25.4931 29.8907 25.3997 30.3902 25.335C31.0376 25.2515 31.148 25.3729 30.9726 26.0064C30.6906 27.0211 30.4023 28.0333 30.2046 29.0703C29.9539 30.3816 29.7153 31.6955 29.7364 33.0401C29.7485 33.7747 29.8761 34.4891 30.1784 35.1572C30.5522 35.9819 31.2035 36.3418 32.0634 36.2562C32.6151 36.2007 32.98 35.8598 33.2983 35.4471C33.7614 34.847 34.0064 34.1385 34.2162 33.4175C34.7221 31.6844 34.9996 29.9003 35.337 28.1293C35.4378 27.6004 35.5354 27.0708 35.6291 26.5399C35.6872 26.2114 35.8282 25.973 36.1835 25.9215C37.1269 25.7837 37.8987 25.288 38.5985 24.665C38.8658 24.4273 39.0437 24.3744 39.348 24.6435C39.954 25.1796 40.5523 25.1058 41.0792 24.4776C41.2865 24.2308 41.462 23.9513 41.624 23.6692C41.7803 23.3982 41.9748 23.3198 42.2536 23.4432C42.3161 23.4713 42.3812 23.4942 42.4449 23.5209C43.1728 23.8272 43.22 23.9056 42.9872 24.6742C42.621 25.8842 42.3008 27.106 42.0635 28.3494C41.5895 30.8355 41.5321 33.3281 41.9723 35.8259C42.1317 36.7297 42.4035 37.5923 42.9132 38.4047Z" fill="#C67D45"/>
<path d="M12.2608 42.568C12.2608 41.8647 12.2481 41.1607 12.2653 40.4581C12.2774 39.9409 12.3616 39.8632 12.8528 39.7652C13.881 39.5608 14.8966 39.5647 15.9044 39.9082C17.1929 40.3464 18.5108 40.5782 19.8797 40.5861C20.9061 40.5919 21.928 40.795 22.962 40.7585C23.5118 40.7389 24.0636 40.7532 24.602 40.6207C25.6041 40.3745 26.6024 40.4633 27.6019 40.6331C29.9972 41.0399 32.3899 40.9811 34.7781 40.5782C35.2323 40.5012 35.6865 40.4751 36.1445 40.4594C37.1511 40.4254 38.157 40.3764 39.163 40.3288C39.3218 40.3209 39.4851 40.3053 39.6382 40.2615C41.4836 39.7391 43.3545 39.8599 45.2305 40.0068C47.1397 40.1557 49.0336 40.1446 50.8178 39.267C51.1259 39.1155 51.4563 39.0103 51.7784 38.8876C52.0642 38.7791 52.2326 38.8889 52.2402 39.1958C52.2511 39.6405 52.253 40.0872 52.2313 40.5312C52.1567 42.0985 52.0623 43.6651 51.9908 45.233C51.9424 46.3039 51.9137 46.3529 50.9377 46.0989C50.2634 45.9239 49.6103 46.0212 48.9705 46.1969C46.801 46.7937 44.6258 46.6683 42.4391 46.3327C41.5295 46.1929 40.6218 46.1825 39.7301 46.5266C38.8466 46.8682 37.9083 47.017 36.9757 47.0895C35.6348 47.1934 34.2895 47.4095 32.9379 47.1385C32.6304 47.0771 32.2866 47.0804 31.981 47.1516C30.3397 47.5349 28.6608 47.4977 26.9985 47.6067C26.1884 47.6596 25.3528 47.5871 24.542 47.3965C23.302 47.1059 22.0549 47.0464 20.7932 47.2737C18.9618 47.6035 17.1885 47.2659 15.4598 46.6703C14.5936 46.3719 13.7713 45.9435 12.9153 45.6104C12.4075 45.4126 12.2168 45.0834 12.2449 44.5369C12.2793 43.8825 12.2532 43.2243 12.2532 42.568H12.2608Z" fill="#AD612E"/>
<path d="M19.0201 24.248C17.9351 24.1494 16.9413 23.8072 15.9506 23.4487C15.5672 23.3103 15.5079 23.0105 15.5539 22.6586C15.6457 21.9618 15.7446 21.2663 15.8428 20.5708C15.8562 20.4781 15.8811 20.3873 15.9002 20.2953C16.0654 19.4881 15.9768 18.7443 15.3255 18.1788C15.025 17.9183 15.0155 17.659 15.1647 17.3149C15.6004 16.3085 15.9564 15.2631 16.5789 14.3514C17.5893 12.8736 18.8504 12.4426 20.5306 12.9657C20.8515 13.0656 21.1487 13.3693 21.497 13.2308C21.8013 13.11 21.9008 12.7372 22.1113 12.4923C22.9833 11.4762 24.1187 11.2476 25.3581 11.3697C26.1147 11.4435 26.8495 11.6205 27.5072 12.0443C27.6003 12.1044 27.6922 12.1906 27.8829 12.1214C27.9307 11.8138 27.983 11.4723 28.0366 11.1314C28.1897 10.1505 28.4608 9.21083 28.9871 8.36516C29.6543 7.29159 30.4574 6.91219 31.6745 7.15968C32.7595 7.3804 33.7827 7.7892 34.7293 8.38475C35.5598 8.90717 35.9789 9.6477 35.9451 10.6658C35.9254 11.2554 35.8628 11.8314 35.7295 12.4048C35.6122 12.9096 35.6504 12.9546 36.1071 13.1296C36.2781 13.1949 36.479 13.2282 36.6092 13.3432C36.9364 13.6325 37.2707 13.812 37.6878 13.5867C37.7554 13.7722 37.6744 13.8636 37.6126 13.9577C36.5843 15.521 36.0096 17.2633 35.6421 19.0944C35.3251 20.6792 35.0259 22.2661 34.7682 23.8621C34.7351 24.0697 34.6949 24.2774 34.6483 24.4825C34.5794 24.7887 34.3887 24.9076 34.0889 24.8436C33.9989 24.824 33.9096 24.805 33.8197 24.7855C33.2029 24.6535 33.1563 24.5876 33.3591 23.9966C33.5486 23.4435 33.7591 22.8982 33.9613 22.3503C34.448 21.0319 34.848 19.6893 35.1018 18.3016C35.2205 17.6505 35.2492 16.9955 35.1969 16.3412C35.084 14.9235 33.872 14.2796 32.6709 14.9953C32.1267 15.3192 31.7236 15.8031 31.3632 16.3223C31.043 16.7826 30.7999 17.2881 30.5614 17.7948C29.706 19.6122 28.7313 21.3643 27.8032 23.1418C27.481 23.7589 26.9235 23.9163 26.3922 24.1579C26.2346 24.2291 26.1191 24.1148 26.1606 23.9352C26.2021 23.7543 26.2735 23.5793 26.3462 23.4076C26.8125 22.3118 27.2922 21.2219 27.7502 20.1222C28.0832 19.3216 28.3198 18.5014 28.3492 17.6126C28.3932 16.2903 27.2622 15.5615 26.1026 16.0584C25.3492 16.381 24.7298 16.8976 24.1366 17.4526C23.0496 18.4681 22.1847 19.688 21.203 20.8007C20.9261 21.1135 20.6633 21.442 20.3284 21.6908C20.0886 21.8697 19.9406 21.7855 19.9412 21.4779C19.9412 21.0508 20.0643 20.6433 20.2008 20.2456C20.5428 19.2491 20.9695 18.2898 21.446 17.3527C21.7107 16.8336 21.9742 16.3131 22.221 15.7848C22.3601 15.487 22.4456 15.1671 22.3933 14.8294C22.3078 14.2776 21.8153 14.0478 21.3765 14.3808C21.122 14.5741 20.8961 14.819 20.6978 15.073C19.5126 16.59 18.6208 18.2735 18.0588 20.1294C17.8356 20.868 17.7042 21.6287 17.8477 22.4169C17.9893 23.196 18.3414 23.8151 19.0201 24.248Z" fill="#6B3624"/>
<path d="M51.6072 14.5336C51.6327 15.4067 51.479 16.1655 51.331 16.9237C51.0478 18.3714 50.7805 19.8231 50.2811 21.216C50.0974 21.728 49.8633 22.204 49.5194 22.6226C49.3549 22.8225 49.1654 22.9916 48.9415 23.1137C48.6717 23.2606 48.5441 23.2012 48.5371 22.8995C48.5288 22.573 48.5486 22.2426 48.5913 21.918C48.6768 21.2643 48.673 20.6087 48.6698 19.9524C48.6679 19.4483 48.5084 18.9859 48.2622 18.5536C48.2156 18.472 48.1505 18.3904 48.0523 18.3904C47.9139 18.3904 47.8546 18.5079 47.8367 18.6222C47.7582 19.1303 47.6861 19.6403 47.6204 20.1509C47.5107 21.0103 47.4176 21.8717 47.299 22.7304C47.1816 23.5819 47.128 23.6133 46.307 23.6205C46.0276 23.6231 45.7585 23.5924 45.4976 23.4951C45.0644 23.3344 44.9962 23.2384 45.09 22.7598C45.2348 22.0251 45.4185 21.2983 45.5671 20.5636C45.7668 19.5769 45.967 18.5889 45.9288 17.5708C45.9192 17.3135 45.9205 17.0549 45.8299 16.8081C45.6117 16.2106 45.185 16.0375 44.6313 16.3314C44.2154 16.5528 43.9105 16.9034 43.6222 17.2704C42.9447 18.1344 42.4389 19.1087 41.9044 20.0647C41.6652 20.4918 41.4342 20.9235 41.195 21.3499C41.1255 21.474 41.0292 21.6085 40.8774 21.568C40.6681 21.5118 40.7032 21.314 40.7351 21.1592C40.915 20.2881 41.1083 19.4195 41.2901 18.5484C41.558 17.2626 41.7143 15.9618 41.7793 14.6486C41.8106 14.0099 41.9088 13.957 42.4765 14.2757C42.6972 14.3991 42.9135 14.5336 43.1234 14.6747C43.3606 14.8347 43.5373 14.7974 43.7038 14.5584C43.9437 14.2156 44.188 13.8734 44.4578 13.5567C45.4236 12.4244 46.5201 11.484 48.0102 11.1751C49.8696 10.7898 51.5141 12.1161 51.606 14.0641C51.6149 14.2509 51.6072 14.4389 51.6072 14.5336Z" fill="#6B3624"/>
<path d="M52.0032 25.5325C52.0689 28.0349 52.1065 30.5386 52.2303 33.0397C52.2889 34.2314 52.2634 35.4278 52.2577 36.6221C52.2558 37.1439 52.206 37.2099 51.7015 37.3581C51.2345 37.4952 50.8027 37.7062 50.3842 37.9465C49.7955 38.2841 49.1703 38.4709 48.5037 38.5642C47.6643 38.6824 46.8204 38.7281 45.9777 38.7941C45.7972 38.8085 45.6103 38.7993 45.431 38.7699C45.2135 38.734 45.165 38.5897 45.3073 38.4199C46.8255 36.611 47.0717 34.3431 47.4098 32.1326C47.7944 29.6139 48.0687 27.0769 48.3685 24.5451C48.4176 24.135 48.572 23.8594 48.8941 23.6224C49.2067 23.3912 49.4803 23.1019 49.7604 22.827C50.0857 22.509 50.4652 22.3052 50.9054 22.2314C51.5407 22.125 51.984 22.4855 51.9987 23.1437C52.0172 23.9398 52.0032 24.7364 52.0032 25.5325Z" fill="#C67D45"/>
<path d="M43.4358 32.3258C43.3325 29.7894 43.9525 27.3843 44.5509 24.9753C44.637 24.6292 44.7971 24.4562 45.1836 24.5247C45.5192 24.5835 45.8674 24.5718 46.2106 24.5809C46.8728 24.5992 46.9614 24.6978 46.8581 25.3835C46.7433 26.1475 46.6163 26.9096 46.4881 27.6717C46.1545 29.6569 45.9459 31.6636 45.5326 33.6351C45.3303 34.5983 45.1243 35.5615 44.6842 36.4483C44.5751 36.6677 44.5024 37.0151 44.2083 36.976C43.9283 36.9381 43.9123 36.5913 43.8505 36.3491C43.5117 35.0247 43.3752 33.6769 43.4358 32.3258Z" fill="#C67D45"/>
<path d="M40.3416 14.4844C40.3097 15.9028 40.0227 17.1363 39.7618 18.3732C39.4575 19.8144 38.995 21.2236 38.9147 22.7112C38.9038 22.9038 38.8202 23.071 38.692 23.2134C38.0733 23.8997 37.3314 24.398 36.4696 24.6944C36.0831 24.8277 35.9357 24.7127 35.9982 24.2954C36.4199 21.4927 36.7746 18.6703 38.0905 16.1046C38.5192 15.2687 39.0595 14.5144 39.6469 13.7929C39.735 13.6851 39.8313 13.5819 39.9391 13.4964C40.1375 13.3377 40.2765 13.3912 40.3288 13.6459C40.3958 13.9724 40.3486 14.3009 40.3416 14.4844Z" fill="#6B3624"/>
<path d="M31.3474 33.0039C31.3825 31.5464 31.66 30.1248 31.9668 28.709C32.1646 27.7948 32.3891 26.8871 32.6966 26.0042C32.8643 25.5235 32.9122 25.5027 33.4001 25.5882C34.3972 25.7626 34.3882 25.7606 34.2045 26.7774C33.8524 28.7325 33.5137 30.6903 33.1629 32.6454C33.0716 33.1515 32.9549 33.6537 32.7463 34.1258C32.671 34.295 32.5824 34.4615 32.4778 34.6136C32.3451 34.8056 32.1894 34.9989 31.9247 34.9591C31.66 34.9186 31.5681 34.69 31.4967 34.4634C31.3455 33.9887 31.3353 33.4976 31.3474 33.0039Z" fill="#C67D45"/>
<path d="M30.2747 24.3281C28.9613 24.3313 28.9562 24.3287 29.5571 23.1892C30.2952 21.7891 30.9847 20.3662 31.6067 18.908C31.9084 18.2007 32.2375 17.5027 32.7064 16.8921C32.95 16.5747 33.1988 16.064 33.6562 16.2854C34.0255 16.465 33.8367 16.9574 33.771 17.3159C33.4584 19.0242 32.8811 20.6502 32.2822 22.2691C32.1036 22.7497 31.9077 23.2251 31.7546 23.7142C31.6149 24.1629 31.3458 24.3627 30.8909 24.3307C30.6868 24.3163 30.4801 24.3281 30.2747 24.3281Z" fill="#6B3624"/>
<path d="M23.926 33.5106C24.0223 31.2524 24.3661 29.04 25.0748 26.8896C25.2184 26.4547 25.4633 26.2222 25.8926 26.1602C26.23 26.1112 26.3321 26.1915 26.2766 26.5265C26.2115 26.919 26.0865 27.3016 26.0355 27.6954C25.8167 29.3913 25.7006 31.097 25.5902 32.804C25.5271 33.7849 25.418 34.7644 25.2866 35.7381C25.2432 36.0567 25.2573 36.5596 24.8299 36.5707C24.4574 36.5798 24.3336 36.1305 24.2226 35.8014C23.9726 35.0609 23.903 34.2923 23.926 33.5106Z" fill="#C67D45"/>
<path d="M19.6719 24.3795C20.9579 24.1045 21.8094 23.2223 22.6138 22.2839C23.1566 21.6511 23.6599 20.9837 24.1964 20.3451C24.7928 19.6346 25.4294 18.9626 26.1171 18.3429C26.2172 18.2528 26.3371 18.1424 26.4762 18.2554C26.5776 18.339 26.54 18.4729 26.5087 18.5845C26.459 18.7641 26.406 18.9443 26.3378 19.1174C25.6718 20.81 24.9969 22.4994 24.3399 24.196C24.2034 24.5473 23.9872 24.7164 23.6242 24.7314C22.2974 24.7843 20.9815 24.7171 19.6719 24.3795Z" fill="#6B3624"/>
<path d="M45.3353 17.1C45.3041 17.5303 45.2224 17.945 45.0923 18.3433C44.7306 19.4522 44.36 20.5584 43.976 21.6594C43.8018 22.159 43.754 22.1629 43.2896 21.9154C42.5293 21.5098 42.5235 21.5079 42.8323 20.6557C43.1735 19.7134 43.5027 18.7652 43.9651 17.8738C44.1597 17.4996 44.3874 17.1509 44.6751 16.8459C44.8033 16.7101 44.9571 16.5828 45.1574 16.6807C45.3251 16.7637 45.3251 16.9432 45.3353 17.1Z" fill="#6B3624"/>
</svg>
