<svg width="24" height="24" viewBox="0 0 24 24" fill="none" xmlns="http://www.w3.org/2000/svg">
<path fill-rule="evenodd" clip-rule="evenodd" d="M16.3851 6.53962C16.734 5.27141 22 6.27188 22 9.56103L21.5612 16.8569C21.5612 18.1821 19.5887 17.6506 18.88 17.6506C18.88 19.1455 17.5535 21 16.1326 21C14.7117 21 13.8874 19.1455 13.8874 17.6506H9.14853C9.14853 19.1455 8.50067 20.5234 7.07976 20.5234C5.65886 20.5234 4.15589 19.1455 4.15589 17.6506H2.94221C1.35559 17.6506 2.25262 7.19578 2.25262 5.74599C2.25262 1.62408 10.3538 3.36507 12.5965 3.36507C13.7205 3.36512 14.5965 4.41244 14.6611 5.59678C14.6611 7.10093 14.9787 9.56103 14.9136 12.3029C15.2439 12.6831 15.8023 12.6831 16.1326 12.3029C16.3851 10.5078 16.0912 7.60785 16.3851 6.53962Z" fill="#584340"/>
</svg>
