<?xml version="1.0" encoding="UTF-8"?>
<svg id="Layer_1" data-name="Layer 1" xmlns="http://www.w3.org/2000/svg" version="1.1" viewBox="0 0 500 500">
  <defs>
    <style>
      .cls-1 {
        fill: #c6a58d;
      }

      .cls-1, .cls-2, .cls-3, .cls-4, .cls-5 {
        stroke-width: 0px;
      }

      .cls-2 {
        fill: #e2d9cc;
      }

      .cls-3 {
        fill: #eae1db;
      }

      .cls-4 {
        fill: #fcfbfa;
      }

      .cls-5 {
        fill: #534340;
      }
    </style>
  </defs>
  <path class="cls-5" d="M128.8,295.7s142.7-56.7,159.5-64.2c16.8-7.5,116-51.7,122.9-49.4s10.2,9.3-1.3,10.7-49.2,10.7-89.8,36.7c-40.6,26-117,54.6-155.6,69.8-38.6,15.2-85.8,37-98.3,30s-9.3-19.2-11.8-20.9-.2-5.4-.2-5.4c0,0,9-1.7,9,1s-2.6,4.6-2.5,7,4.4,12.4,18.4,6.9c14-5.4,38.5-16.8,49.7-22.1Z"/>
  <path class="cls-5" d="M250,261.1c-15.5.8-35.7,2.3-56.5,3.9-1.7,1.2-3.3,2.5-4.9,3.9-3.7,3.3-7.4,7.1-11.5,10.2,32.1-1.4,67.2-2.6,95.1-3.5,2-.7,3.9-1.6,5.8-2.7,6.9-3.9,13-9.4,20-13.3-19.2.4-36.5.9-47.9,1.5Z"/>
  <path class="cls-5" d="M164.1,277.6c6.7-1.4,12-6.6,17.2-11.6-32.5,2.6-64.5,5.5-80.7,6.4-28.7,1.7-51.1,0-46.5-13,4.6-13,7.3-9.5,7.3-12.3s-9-5.9-9,0-7.3,7.9-6.1,15.4c1.3,7.5,7.9,26.2,59.1,21.1,13.4-1.3,33.6-2.6,56.2-3.7.3-1.1,1-2,2.5-2.3Z"/>
  <path class="cls-5" d="M445,250.2c-2-1.3-11.6-2.5-11.4,1.1s1.3,5-14.9,6.8c0,0-56.5.4-106.7,1.4-.3.4-.7.7-1.2.8-3.2.5-6.3,1.6-9.2,3.1-6.3,3.3-11.9,8.1-17.9,12,19.5-.6,34-1.1,39-1.3,18.4-1,103-2.5,112.5-9.8s11.8-12.6,9.8-14Z"/>
  <path class="cls-5" d="M444.7,200.4c0,5.9-25,14.7-42.3,21.8-17.3,7-197.4,72.7-204.5,78-7.1,5.3-100.9,45.6-102.2,47.1-1.4,1.5.7,5.2,1.3,8.6.6,3.4-1.6,4.6-6.1,4.8-4.6.1-2.1-3.5-2-6.4,0-2.9-3.2-1.1-2.1-10.8.8-7.6,10-12.7,34.7-25.9,8.1-2.3,20-6.1,25.8-9.6l66.2-30.2,1-4.3c53.3-21.7,116.4-44.3,135.4-50.2,29-9,71.8-17.5,71.8-17.5,0,0,8.4-2.9,14.2-5.7,5.8-2.7.6-4.8-.2-8.7-.8-4,3.1-4.5,5.9-5.7,2.8-1.1,1.6,1.8,1.9,5.5.3,3.7,1.4,3.3,1.4,9.3Z"/>
  <g>
    <path class="cls-2" d="M254.8,246.3s.3-47.2-15.3-61.1-14.9-14.6-16.9-17.6-11-13.6-12.3,0-12,21.2-11,38.7,8.6,39.1,22.3,40.1,32.2,25.2,33.2,0Z"/>
    <path class="cls-2" d="M223.2,248.4c0,1.4-1.2,2.9-3,2.4-5.3-1.4-9.5-5.9-12.6-10.2-2.4-3.3-4.7-7.3-5.5-11.5-5.1-1.2-11.4-1.2-19.3,1-28.8,8.2-35.2,15.9-40.8,19-5.6,3.1,0,14.4,13.9,15.4s36.4,25.7,60.6,14.6c17.6-8,11.5-23.1,6.9-30.7Z"/>
    <path class="cls-2" d="M229.5,273.9c-4,4.2-9,7.4-14.5,9.3-5.5,1.9-11.3,2.6-17.1,2.7-20.3,16.9-7.8,50.6-7,58.7,1,9.4-5,16.8-2.6,22.6,2.4,5.8,14.2-6,27.8-13.7s19.7-16.1,25.7-24c6-7.9,7.2-47,7.2-47-1.5-5.9-3-11.7-19.5-8.6Z"/>
    <path class="cls-2" d="M264.8,266.6s35.7,7.8,42.1,32.8.2,27.2,1.3,38,5,16-1.9,16-44.7-11.5-50.8-33.9-12.3-50.1-8.4-52.9,10.2-7.3,17.7,0Z"/>
    <path class="cls-2" d="M254.8,246.3s16.5-21.9,18.7-32.6,38.3-42.1,42.6-41.1,5.2,1.7,4.3,11.6,17.2,19.6-5.8,45.4-59.7,43.2-59.7,28.1,0-11.4,0-11.4Z"/>
    <path class="cls-4" d="M226.1,235.1s-17.1,5-17.2,13-4.6,6.4,0,15.3,3.7,16.1,14.6,14.3,7.9-7.4,12.4-9.1,12.6-1.2,13.9-7.8,4-2.5,3.6-11,1.6-14.5-3.5-14.8-14.1-4.5-16.5-4.5-1.8,0-7.3,4.5Z"/>
    <path class="cls-1" d="M233.7,270.3s7.1,3.3,9.4,9.3,12.9,3.5,15.5-3.1,2.1-10.1-8.3-17.7"/>
    <path class="cls-3" d="M218.3,254.4s10,1.2,10.6-2.7-.3-15.3,7.8-9.1,7.1,13,1.5,17.7-15.8,9.6-19.9,3.9-3-9.5,0-9.8Z"/>
  </g>
</svg>