<svg width="40" height="40" viewBox="0 0 40 40" fill="none" xmlns="http://www.w3.org/2000/svg">
<g clip-path="url(#clip0_2013_53910)">
<path d="M32.8985 0H7.10149C3.17945 0 0 3.17945 0 7.10149V32.8985C0 36.8206 3.17945 40 7.10149 40H32.8985C36.8206 40 40 36.8206 40 32.8985V7.10149C40 3.17945 36.8206 0 32.8985 0Z" fill="#E05B8B"/>
<path d="M29.6451 11.2649C28.4525 10.0603 27.032 9.10515 25.4664 8.45525C23.9008 7.80534 22.2215 7.47366 20.5264 7.47957C13.4239 7.47957 7.63532 13.2682 7.63532 20.3706C7.63532 22.647 8.23369 24.8584 9.35239 26.8097L7.53125 33.4958L14.3605 31.7007C16.2467 32.7284 18.367 33.2747 20.5264 33.2747C27.6288 33.2747 33.4174 27.4861 33.4174 20.3836C33.4174 16.9365 32.0776 13.6975 29.6451 11.2649ZM20.5264 31.0893C18.6012 31.0893 16.715 30.569 15.063 29.5934L14.6727 29.3592L10.6142 30.4259L11.6939 26.4714L11.4337 26.0682C10.3641 24.3602 9.79615 22.3859 9.79466 20.3706C9.79466 14.4649 14.6077 9.65193 20.5134 9.65193C23.3752 9.65193 26.0678 10.7706 28.0841 12.7999C29.0824 13.7937 29.8736 14.9757 30.4118 16.2775C30.9499 17.5793 31.2243 18.975 31.2191 20.3836C31.2451 26.2893 26.4321 31.0893 20.5264 31.0893ZM26.406 23.0763C26.0808 22.9202 24.4939 22.1397 24.2077 22.0227C23.9085 21.9186 23.7004 21.8666 23.4792 22.1788C23.2581 22.504 22.6467 23.2324 22.4646 23.4405C22.2825 23.6617 22.0873 23.6877 21.7621 23.5186C21.4369 23.3625 20.3963 23.0113 19.1735 21.9186C18.2109 21.0601 17.5735 20.0064 17.3784 19.6812C17.1963 19.356 17.3524 19.1869 17.5215 19.0178C17.6646 18.8747 17.8467 18.6405 18.0028 18.4584C18.1589 18.2763 18.2239 18.1332 18.328 17.9251C18.4321 17.704 18.38 17.5218 18.302 17.3657C18.2239 17.2097 17.5735 15.6227 17.3134 14.9723C17.0532 14.3479 16.78 14.4259 16.5849 14.4129H15.9605C15.7394 14.4129 15.4012 14.491 15.102 14.8162C14.8158 15.1414 13.9833 15.9218 13.9833 17.5088C13.9833 19.0958 15.141 20.6308 15.2971 20.8389C15.4532 21.0601 17.5735 24.3121 20.7995 25.704C21.567 26.0422 22.1654 26.2373 22.6337 26.3804C23.4012 26.6275 24.1036 26.5885 24.663 26.5105C25.2873 26.4194 26.5752 25.73 26.8353 24.9755C27.1085 24.221 27.1085 23.5836 27.0174 23.4405C26.9264 23.2975 26.7312 23.2324 26.406 23.0763Z" fill="white"/>
</g>
<defs>
<clipPath id="clip0_2013_53910">
<rect width="40" height="40" fill="white"/>
</clipPath>
</defs>
</svg>
