<svg width="20" height="20" viewBox="0 0 20 20" fill="none" xmlns="http://www.w3.org/2000/svg">
<g clip-path="url(#clip0_158_29511)">
<path d="M1.66699 5.00033C1.66699 3.42898 1.66699 2.6433 2.15515 2.15515C2.6433 1.66699 3.42898 1.66699 5.00033 1.66699C6.57167 1.66699 7.35735 1.66699 7.8455 2.15515C8.33366 2.6433 8.33366 3.42898 8.33366 5.00033V6.66699C8.33366 8.23834 8.33366 9.02401 7.8455 9.51217C7.35735 10.0003 6.57167 10.0003 5.00033 10.0003C3.42898 10.0003 2.6433 10.0003 2.15515 9.51217C1.66699 9.02401 1.66699 8.23834 1.66699 6.66699V5.00033Z" stroke="#494949" stroke-width="1.5"/>
<path d="M1.66699 15.834C1.66699 15.0574 1.66699 14.6691 1.79386 14.3628C1.96302 13.9545 2.28747 13.63 2.69585 13.4609C3.00214 13.334 3.39042 13.334 4.16699 13.334H5.83366C6.61023 13.334 6.99851 13.334 7.3048 13.4609C7.71318 13.63 8.03763 13.9545 8.20679 14.3628C8.33366 14.6691 8.33366 15.0574 8.33366 15.834C8.33366 16.6106 8.33366 16.9988 8.20679 17.3051C8.03763 17.7135 7.71318 18.038 7.3048 18.2071C6.99851 18.334 6.61023 18.334 5.83366 18.334H4.16699C3.39042 18.334 3.00214 18.334 2.69585 18.2071C2.28747 18.038 1.96302 17.7135 1.79386 17.3051C1.66699 16.9988 1.66699 16.6106 1.66699 15.834Z" stroke="#494949" stroke-width="1.5"/>
<path d="M11.667 13.3333C11.667 11.762 11.667 10.9763 12.1551 10.4882C12.6433 10 13.429 10 15.0003 10C16.5717 10 17.3573 10 17.8455 10.4882C18.3337 10.9763 18.3337 11.762 18.3337 13.3333V15C18.3337 16.5713 18.3337 17.357 17.8455 17.8452C17.3573 18.3333 16.5717 18.3333 15.0003 18.3333C13.429 18.3333 12.6433 18.3333 12.1551 17.8452C11.667 17.357 11.667 16.5713 11.667 15V13.3333Z" stroke="#494949" stroke-width="1.5"/>
<path d="M11.667 4.16699C11.667 3.39042 11.667 3.00214 11.7939 2.69585C11.963 2.28747 12.2875 1.96302 12.6959 1.79386C13.0021 1.66699 13.3904 1.66699 14.167 1.66699H15.8337C16.6102 1.66699 16.9985 1.66699 17.3048 1.79386C17.7132 1.96302 18.0376 2.28747 18.2068 2.69585C18.3337 3.00214 18.3337 3.39042 18.3337 4.16699C18.3337 4.94356 18.3337 5.33185 18.2068 5.63813C18.0376 6.04651 17.7132 6.37097 17.3048 6.54012C16.9985 6.66699 16.6102 6.66699 15.8337 6.66699H14.167C13.3904 6.66699 13.0021 6.66699 12.6959 6.54012C12.2875 6.37097 11.963 6.04651 11.7939 5.63813C11.667 5.33185 11.667 4.94356 11.667 4.16699Z" stroke="#494949" stroke-width="1.5"/>
</g>
<defs>
<clipPath id="clip0_158_29511">
<rect width="20" height="20" fill="white"/>
</clipPath>
</defs>
</svg>
